<svg width="114" height="63" viewBox="0 0 114 63" fill="none" xmlns="http://www.w3.org/2000/svg">
<g clip-path="url(#clip0_129_142)">
<rect width="114" height="63" rx="10" fill="#3C3D3F" fill-opacity="0.12"/>
<path d="M63.6017 38V23.4211H72.742V25.3146H65.8013V29.7566H72.265V31.6431H65.8013V36.1064H72.8274V38H63.6017ZM74.7608 25.3146V23.4211H86.0438V25.3146H81.495V38H79.3024V25.3146H74.7608ZM99.8189 28.1621H97.5979C97.5125 27.6875 97.3535 27.2699 97.121 26.9092C96.8884 26.5485 96.6037 26.2424 96.2667 25.9909C95.9298 25.7394 95.5525 25.5495 95.1349 25.4214C94.722 25.2933 94.283 25.2292 93.8179 25.2292C92.9779 25.2292 92.2257 25.4404 91.5613 25.8628C90.9017 26.2851 90.3796 26.9045 89.9952 27.7207C89.6156 28.537 89.4257 29.5336 89.4257 30.7105C89.4257 31.897 89.6156 32.8983 89.9952 33.7146C90.3796 34.5309 90.904 35.1478 91.5684 35.5654C92.2328 35.9831 92.9803 36.1919 93.8108 36.1919C94.2711 36.1919 94.7078 36.1302 95.1206 36.0068C95.5383 35.8787 95.9155 35.6912 96.2525 35.4444C96.5894 35.1976 96.8742 34.8963 97.1067 34.5404C97.344 34.1797 97.5077 33.7668 97.5979 33.3017L99.8189 33.3088C99.7003 34.0254 99.4701 34.6851 99.1284 35.2878C98.7915 35.8858 98.3572 36.4031 97.8257 36.8397C97.2989 37.2715 96.6962 37.6061 96.0176 37.8434C95.3389 38.0807 94.5986 38.1993 93.7966 38.1993C92.5342 38.1993 91.4095 37.9003 90.4223 37.3024C89.4352 36.6997 88.6569 35.8383 88.0874 34.7183C87.5227 33.5983 87.2403 32.2624 87.2403 30.7105C87.2403 29.1539 87.5251 27.818 88.0946 26.7028C88.664 25.5828 89.4423 24.7238 90.4295 24.1258C91.4166 23.5231 92.5389 23.2218 93.7966 23.2218C94.5701 23.2218 95.2915 23.3333 95.9606 23.5563C96.6345 23.7746 97.2396 24.0973 97.7759 24.5245C98.3121 24.9468 98.7559 25.4641 99.1071 26.0763C99.4582 26.6838 99.6955 27.379 99.8189 28.1621Z" fill="white"/>
<path fill-rule="evenodd" clip-rule="evenodd" d="M33.0002 12.155L46.3202 19.845C46.9282 20.1961 47.4332 20.701 47.7843 21.3091C48.1353 21.9172 48.3202 22.6069 48.3202 23.309V38.691C48.3202 39.3932 48.1353 40.0829 47.7843 40.691C47.4332 41.299 46.9282 41.804 46.3202 42.155L33.0002 49.845C32.3921 50.1961 31.7023 50.3809 31.0002 50.3809C30.298 50.3809 29.6083 50.1961 29.0002 49.845L15.6802 42.155C15.0721 41.804 14.5672 41.299 14.2161 40.691C13.865 40.0829 13.6802 39.3932 13.6802 38.691V23.309C13.6802 22.6069 13.865 21.9172 14.2161 21.3091C14.5672 20.701 15.0721 20.1961 15.6802 19.845L29.0002 12.155C29.6083 11.804 30.298 11.6191 31.0002 11.6191C31.7023 11.6191 32.3921 11.804 33.0002 12.155V12.155Z" fill="url(#paint0_linear_129_142)"/>
<path d="M25.2285 29.957L31.1205 27.473L36.8325 30.02L31.1125 21L25.2285 29.957V29.957ZM25.2465 32.713L31.1295 36.121L37.1315 32.713L31.1845 40.99L25.2465 32.713V32.713Z" fill="white"/>
<path d="M31.1483 28.6885L25.0103 31.2705L31.1483 34.6795L37.1133 31.3435" fill="white"/>
</g>
<defs>
<linearGradient id="paint0_linear_129_142" x1="49.013" y1="50.7686" x2="9.76779" y2="16.0404" gradientUnits="userSpaceOnUse">
<stop stop-color="#58D98C"/>
<stop offset="1" stop-color="#599270"/>
</linearGradient>
<clipPath id="clip0_129_142">
<rect width="114" height="63" fill="white"/>
</clipPath>
</defs>
</svg>
