<svg width="213" height="63" viewBox="0 0 213 63" fill="none" xmlns="http://www.w3.org/2000/svg">
<g clip-path="url(#clip0_128_26)">
<rect width="213" height="63" rx="10" fill="#3C3D3F" fill-opacity="0.12"/>
<path d="M72.9769 23.4211H75.1837V33.0099C75.1837 34.0302 74.944 34.9343 74.4647 35.722C73.9854 36.5051 73.3115 37.122 72.443 37.5729C71.5745 38.019 70.5566 38.242 69.3891 38.242C68.2264 38.242 67.2108 38.019 66.3424 37.5729C65.4739 37.122 64.8 36.5051 64.3207 35.722C63.8413 34.9343 63.6017 34.0302 63.6017 33.0099V23.4211H65.8013V32.8319C65.8013 33.4915 65.9461 34.0776 66.2356 34.5902C66.5298 35.1027 66.9451 35.5061 67.4813 35.8003C68.0176 36.0898 68.6535 36.2346 69.3891 36.2346C70.1295 36.2346 70.7678 36.0898 71.304 35.8003C71.845 35.5061 72.2579 35.1027 72.5427 34.5902C72.8322 34.0776 72.9769 33.4915 72.9769 32.8319V23.4211ZM86.1327 27.2509C86.0568 26.577 85.7436 26.055 85.1931 25.6848C84.6426 25.3099 83.9497 25.1224 83.1144 25.1224C82.5165 25.1224 81.9992 25.2173 81.5626 25.4072C81.126 25.5923 80.7867 25.8485 80.5446 26.176C80.3073 26.4987 80.1887 26.8665 80.1887 27.2794C80.1887 27.6258 80.2694 27.9248 80.4307 28.1763C80.5968 28.4278 80.8128 28.639 81.0785 28.8099C81.349 28.976 81.6385 29.116 81.947 29.2299C82.2555 29.339 82.5521 29.4292 82.8368 29.5004L84.2605 29.8705C84.7256 29.9844 85.2026 30.1387 85.6914 30.3333C86.1802 30.5278 86.6334 30.7841 87.051 31.1021C87.4687 31.42 87.8056 31.8139 88.0619 32.2838C88.3229 32.7536 88.4534 33.316 88.4534 33.9709C88.4534 34.7966 88.2398 35.5298 87.8127 36.1705C87.3904 36.8112 86.7758 37.3166 85.969 37.6868C85.167 38.0569 84.1965 38.242 83.0575 38.242C81.966 38.242 81.0216 38.0688 80.2243 37.7224C79.427 37.3759 78.8029 36.8848 78.3521 36.2488C77.9012 35.6081 77.6521 34.8488 77.6046 33.9709H79.8114C79.8541 34.4976 80.025 34.9366 80.324 35.2878C80.6277 35.6342 81.0145 35.8929 81.4843 36.0637C81.9589 36.2298 82.4785 36.3129 83.0433 36.3129C83.665 36.3129 84.2178 36.2156 84.7019 36.021C85.1907 35.8217 85.5751 35.5465 85.8551 35.1953C86.1351 34.8393 86.2751 34.4241 86.2751 33.9495C86.2751 33.5176 86.1517 33.1641 85.9049 32.8888C85.6629 32.6136 85.3331 32.3858 84.9155 32.2054C84.5026 32.0251 84.0351 31.8661 83.5131 31.7285L81.7904 31.2587C80.6229 30.9407 79.6975 30.4733 79.0141 29.8563C78.3355 29.2394 77.9962 28.4231 77.9962 27.4075C77.9962 26.5675 78.224 25.8343 78.6796 25.2079C79.1351 24.5814 79.7521 24.095 80.5304 23.7485C81.3087 23.3974 82.1867 23.2218 83.1643 23.2218C84.1514 23.2218 85.0222 23.395 85.7768 23.7414C86.5361 24.0879 87.1341 24.5648 87.5707 25.1723C88.0073 25.775 88.2351 26.4678 88.2541 27.2509H86.1327ZM95.6011 38H90.8815V23.4211H95.7506C97.1791 23.4211 98.4059 23.7129 99.431 24.2967C100.456 24.8756 101.241 25.7085 101.787 26.7953C102.338 27.8773 102.613 29.1753 102.613 30.6892C102.613 32.2078 102.335 33.5129 101.78 34.6044C101.23 35.6959 100.432 36.5359 99.3882 37.1244C98.3442 37.7081 97.0818 38 95.6011 38ZM93.0811 36.078H95.4801C96.5906 36.078 97.5137 35.8692 98.2493 35.4515C98.9849 35.0292 99.5354 34.4193 99.9008 33.6221C100.266 32.82 100.449 31.8424 100.449 30.6892C100.449 29.5455 100.266 28.575 99.9008 27.7777C99.5401 26.9804 99.0015 26.3753 98.2849 25.9624C97.5682 25.5495 96.6784 25.3431 95.6154 25.3431H93.0811V36.078ZM103.802 25.3146V23.4211H115.085V25.3146H110.537V38H108.344V25.3146H103.802ZM122.931 30.7105C122.931 28.9261 123.166 27.2841 123.636 25.7845C124.106 24.2848 124.792 22.9014 125.693 21.6343H127.644C127.293 22.1041 126.965 22.6807 126.662 23.3641C126.358 24.0475 126.092 24.7973 125.864 25.6136C125.636 26.4251 125.459 27.2675 125.33 28.1407C125.202 29.0092 125.138 29.8658 125.138 30.7105C125.138 31.84 125.25 32.9838 125.473 34.1417C125.696 35.2997 125.997 36.3746 126.377 37.3664C126.756 38.3583 127.179 39.1675 127.644 39.7939H125.693C124.792 38.5268 124.106 37.1434 123.636 35.6437C123.166 34.1441 122.931 32.4997 122.931 30.7105ZM129.139 25.3146V23.4211H140.422V25.3146H135.874V38H133.681V25.3146H129.139ZM142.715 38V23.4211H147.912C149.041 23.4211 149.979 23.6157 150.724 24.0048C151.474 24.394 152.034 24.9326 152.404 25.6207C152.774 26.3041 152.959 27.0943 152.959 27.9912C152.959 28.8834 152.772 29.6688 152.397 30.3475C152.026 31.0214 151.466 31.5458 150.717 31.9207C149.972 32.2956 149.034 32.4831 147.905 32.4831H143.968V30.5895H147.705C148.417 30.5895 148.996 30.4875 149.442 30.2834C149.893 30.0794 150.223 29.7827 150.432 29.3936C150.641 29.0044 150.745 28.537 150.745 27.9912C150.745 27.4407 150.638 26.9638 150.425 26.5604C150.216 26.157 149.886 25.8485 149.435 25.635C148.989 25.4167 148.403 25.3075 147.677 25.3075H144.915V38H142.715ZM149.912 31.4224L153.514 38H151.009L147.478 31.4224H149.912ZM167.544 28.1621H165.323C165.237 27.6875 165.078 27.2699 164.846 26.9092C164.613 26.5485 164.329 26.2424 163.992 25.9909C163.655 25.7394 163.277 25.5495 162.86 25.4214C162.447 25.2933 162.008 25.2292 161.543 25.2292C160.703 25.2292 159.951 25.4404 159.286 25.8628C158.627 26.2851 158.105 26.9045 157.72 27.7207C157.341 28.537 157.151 29.5336 157.151 30.7105C157.151 31.897 157.341 32.8983 157.72 33.7146C158.105 34.5309 158.629 35.1478 159.293 35.5654C159.958 35.9831 160.705 36.1919 161.536 36.1919C161.996 36.1919 162.433 36.1302 162.846 36.0068C163.263 35.8787 163.641 35.6912 163.977 35.4444C164.314 35.1976 164.599 34.8963 164.832 34.5404C165.069 34.1797 165.233 33.7668 165.323 33.3017L167.544 33.3088C167.425 34.0254 167.195 34.6851 166.853 35.2878C166.516 35.8858 166.082 36.4031 165.551 36.8397C165.024 37.2715 164.421 37.6061 163.743 37.8434C163.064 38.0807 162.324 38.1993 161.522 38.1993C160.259 38.1993 159.134 37.9003 158.147 37.3024C157.16 36.6997 156.382 35.8383 155.812 34.7183C155.248 33.5983 154.965 32.2624 154.965 30.7105C154.965 29.1539 155.25 27.818 155.82 26.7028C156.389 25.5828 157.167 24.7238 158.154 24.1258C159.142 23.5231 160.264 23.2218 161.522 23.2218C162.295 23.2218 163.016 23.3333 163.686 23.5563C164.36 23.7746 164.965 24.0973 165.501 24.5245C166.037 24.9468 166.481 25.4641 166.832 26.0763C167.183 26.6838 167.421 27.379 167.544 28.1621ZM169.776 38V36.4054L174.709 31.2943C175.236 30.739 175.67 30.2526 176.012 29.835C176.359 29.4126 176.617 29.0116 176.788 28.6319C176.959 28.2522 177.044 27.8489 177.044 27.4217C177.044 26.9377 176.93 26.52 176.703 26.1689C176.475 25.8129 176.164 25.5401 175.77 25.3502C175.376 25.1556 174.932 25.0584 174.439 25.0584C173.917 25.0584 173.461 25.1651 173.072 25.3787C172.683 25.5923 172.384 25.8936 172.175 26.2828C171.966 26.6719 171.862 27.1275 171.862 27.6495H169.762C169.762 26.7621 169.966 25.9862 170.374 25.3218C170.782 24.6573 171.342 24.1424 172.054 23.777C172.766 23.4068 173.575 23.2218 174.482 23.2218C175.398 23.2218 176.204 23.4045 176.902 23.7699C177.604 24.1306 178.152 24.6241 178.546 25.2506C178.94 25.8723 179.137 26.5746 179.137 27.3577C179.137 27.8987 179.035 28.4278 178.831 28.9451C178.632 29.4624 178.283 30.039 177.785 30.6749C177.286 31.3061 176.593 32.0726 175.706 32.9743L172.809 36.0068V36.1136H179.372V38H169.776ZM186.945 38.242C185.82 38.2373 184.859 37.9407 184.062 37.3522C183.265 36.7637 182.655 35.9071 182.233 34.7824C181.81 33.6576 181.599 32.3027 181.599 30.7177C181.599 29.1373 181.81 27.7872 182.233 26.6672C182.66 25.5472 183.272 24.6929 184.069 24.1045C184.871 23.516 185.83 23.2218 186.945 23.2218C188.06 23.2218 189.017 23.5184 189.814 24.1116C190.611 24.7001 191.221 25.5543 191.643 26.6743C192.071 27.7895 192.284 29.1373 192.284 30.7177C192.284 32.3075 192.073 33.6648 191.651 34.7895C191.228 35.9095 190.618 36.7661 189.821 37.3593C189.024 37.9478 188.065 38.242 186.945 38.242ZM186.945 36.3414C187.932 36.3414 188.703 35.8597 189.259 34.8963C189.819 33.9329 190.099 32.54 190.099 30.7177C190.099 29.5075 189.971 28.4848 189.714 27.6495C189.463 26.8095 189.1 26.1736 188.625 25.7417C188.155 25.3051 187.595 25.0868 186.945 25.0868C185.963 25.0868 185.192 25.5709 184.632 26.539C184.072 27.5072 183.789 28.9 183.785 30.7177C183.785 31.9326 183.91 32.96 184.162 33.8C184.418 34.6353 184.781 35.2688 185.251 35.7007C185.721 36.1278 186.286 36.3414 186.945 36.3414ZM198.731 30.7105C198.731 32.4997 198.496 34.1441 198.026 35.6437C197.556 37.1434 196.87 38.5268 195.969 39.7939H194.018C194.369 39.3241 194.697 38.7475 195.001 38.0641C195.304 37.3807 195.57 36.6332 195.798 35.8217C196.026 35.0054 196.204 34.1607 196.332 33.2875C196.46 32.4143 196.524 31.5553 196.524 30.7105C196.524 29.5858 196.412 28.4444 196.189 27.2865C195.966 26.1285 195.665 25.0536 195.285 24.0618C194.906 23.0699 194.483 22.2607 194.018 21.6343H195.969C196.87 22.9014 197.556 24.2848 198.026 25.7845C198.496 27.2841 198.731 28.9261 198.731 30.7105Z" fill="white"/>
<path fill-rule="evenodd" clip-rule="evenodd" d="M32.9997 12.5359L46.3197 20.2259C46.9277 20.577 47.4327 21.0819 47.7838 21.69C48.1348 22.2981 48.3197 22.9878 48.3197 23.6899V39.0719C48.3197 39.7741 48.1348 40.4638 47.7838 41.0719C47.4327 41.6799 46.9277 42.1849 46.3197 42.5359L32.9997 50.2259C32.3916 50.577 31.7018 50.7618 30.9997 50.7618C30.2975 50.7618 29.6078 50.577 28.9997 50.2259L15.6797 42.5359C15.0716 42.1849 14.5667 41.6799 14.2156 41.0719C13.8645 40.4638 13.6797 39.7741 13.6797 39.0719V23.6899C13.6797 22.9878 13.8645 22.2981 14.2156 21.69C14.5667 21.0819 15.0716 20.577 15.6797 20.2259L28.9997 12.5359C29.6078 12.1849 30.2975 12 30.9997 12C31.7018 12 32.3916 12.1849 32.9997 12.5359Z" fill="url(#paint0_linear_128_26)"/>
<path d="M32.5174 29.5067V27.7107H36.6274V24.9707H25.4344V27.7107H29.5464V29.5067C26.2044 29.6597 23.6914 30.3217 23.6914 31.1147C23.6914 31.9077 26.2054 32.5697 29.5464 32.7237V38.4827H32.5194V32.7227C35.8544 32.5697 38.3614 31.9077 38.3614 31.1157C38.3614 30.3237 35.8544 29.6627 32.5194 29.5087L32.5174 29.5067ZM32.5194 32.2357V32.2337C32.4354 32.2397 32.0044 32.2657 31.0444 32.2657C30.2774 32.2657 29.7374 32.2437 29.5474 32.2337V32.2357C26.5954 32.1057 24.3914 31.5907 24.3914 30.9757C24.3914 30.3607 26.5954 29.8477 29.5474 29.7157V31.7237C29.7404 31.7367 30.2934 31.7697 31.0574 31.7697C31.9734 31.7697 32.4344 31.7317 32.5194 31.7237V29.7167C35.4654 29.8477 37.6644 30.3627 37.6644 30.9757C37.6644 31.5877 35.4644 32.1027 32.5194 32.2347" fill="white"/>
<path d="M47.5103 40.5214C46.9726 40.1463 46.385 39.7337 45.8224 39.3336C45.8099 39.3211 45.7974 39.3086 45.7849 39.3086C45.7224 39.2586 45.6473 39.2086 45.5598 39.1836H45.5473C44.0345 38.821 42.4966 38.4459 41.0088 38.0708C39.6585 37.7458 38.3082 37.4082 36.9579 37.0831C36.9204 37.0706 36.8829 37.0581 36.8454 37.0581C36.7203 37.0206 36.5828 36.9831 36.4328 37.0081C36.3828 37.0206 36.3453 37.0331 36.3203 37.0581L36.2827 37.0956C36.2202 37.1581 36.1952 37.2206 36.1702 37.2707L36.1577 37.2957V37.4457L36.1702 37.4707C37.0204 39.8712 37.8956 42.3093 38.7458 44.6598C39.3959 46.4727 40.0711 48.3481 40.7337 50.1986C40.7713 50.3236 40.8963 50.4111 41.0338 50.4236H41.0713C41.2089 50.4236 41.3214 50.3611 41.3839 50.2486L43.8594 46.6228C44.4596 45.7476 45.0722 44.8599 45.6724 43.9722C45.9224 43.6096 46.1725 43.247 46.41 42.8844C46.8226 42.2843 47.2352 41.6716 47.6478 41.0715L47.6728 41.034V40.9965C47.6853 40.8715 47.6978 40.6464 47.5103 40.5214M44.6096 41.8467C44.022 42.1468 43.4343 42.4593 42.8342 42.7719L43.8845 41.6466C44.3221 41.1715 44.7722 40.6839 45.2223 40.2088L45.2348 40.1963C45.2723 40.1463 45.3223 40.0963 45.3723 40.0463L45.4848 39.9338C45.7224 40.0963 45.9474 40.2588 46.1725 40.4214C46.335 40.5339 46.4975 40.6589 46.6726 40.7714C45.9599 41.134 45.2723 41.4966 44.6096 41.8467M43.1218 41.6967C42.6717 42.1843 42.2091 42.6844 41.7465 43.172C40.8588 42.0842 39.9461 40.984 39.0584 39.9213C38.6583 39.4336 38.2582 38.946 37.8581 38.4709C37.7706 38.3709 37.6831 38.2584 37.5955 38.1459C37.533 38.0708 37.483 38.0083 37.4205 37.9333C37.7831 38.0333 38.1457 38.1208 38.5082 38.1959C38.8208 38.2709 39.1584 38.3459 39.471 38.4334C41.2839 38.871 43.0968 39.3211 44.9097 39.7587C44.3095 40.4089 43.7094 41.059 43.1218 41.6967M41.5464 47.8105C41.5839 47.4855 41.6214 47.1479 41.6464 46.8103C41.6715 46.5477 41.709 46.2727 41.734 46.0101C41.784 45.5975 41.8215 45.1599 41.859 44.7348L41.8715 44.6598C41.909 44.3848 41.934 44.1097 41.959 43.8346C41.9965 43.8096 42.034 43.7971 42.0715 43.7846C42.1216 43.7596 42.1716 43.7471 42.2091 43.7096C42.9342 43.3345 43.6594 42.9469 44.3846 42.5718C45.1097 42.1968 45.8474 41.8092 46.5851 41.4216C45.9099 42.3968 45.2473 43.372 44.5971 44.3347C44.0345 45.1474 43.4594 45.9976 42.8842 46.8228C42.6592 47.1604 42.4216 47.498 42.1966 47.823C41.9465 48.1856 41.684 48.5607 41.4339 48.9358C41.4714 48.5607 41.5089 48.1731 41.5464 47.8105M37.1829 38.671C37.1454 38.5584 37.0954 38.4459 37.0579 38.3334C37.9081 39.3586 38.7583 40.3839 39.5835 41.3841C40.0086 41.8967 40.4462 42.4218 40.8713 42.9344C40.9588 43.0345 41.0463 43.1345 41.1213 43.2345C41.2339 43.3595 41.3339 43.4971 41.4464 43.6221C41.4089 43.9472 41.3714 44.2722 41.3464 44.5848C41.3214 44.8099 41.2964 45.0224 41.2714 45.2474C41.2589 45.385 41.2464 45.535 41.2214 45.6725C41.1963 45.8601 41.1463 46.2977 41.1463 46.2977V46.3227C41.0838 46.9603 41.0213 47.598 40.9588 48.2231C40.9338 48.4857 40.9088 48.7482 40.8713 49.0108C40.8588 48.9608 40.8338 48.9108 40.8213 48.8733C40.7713 48.7482 40.7212 48.6107 40.6837 48.4857L40.3462 47.548C39.3084 44.5848 38.2457 41.6341 37.1829 38.671" fill="#EC0928"/>
</g>
<defs>
<linearGradient id="paint0_linear_128_26" x1="13.6797" y1="12" x2="52.9249" y2="46.7282" gradientUnits="userSpaceOnUse">
<stop stop-color="#53AE94"/>
<stop offset="1" stop-color="#2E9175"/>
</linearGradient>
<clipPath id="clip0_128_26">
<rect width="213" height="63" fill="white"/>
</clipPath>
</defs>
</svg>
