<svg width="212" height="63" viewBox="0 0 212 63" fill="none" xmlns="http://www.w3.org/2000/svg">
<g clip-path="url(#clip0_128_57)">
<rect width="212" height="63" rx="10" fill="#3C3D3F" fill-opacity="0.12"/>
<path d="M72.9769 23.4211H75.1837V33.0099C75.1837 34.0302 74.944 34.9343 74.4647 35.722C73.9854 36.5051 73.3115 37.122 72.443 37.5729C71.5745 38.019 70.5566 38.242 69.3891 38.242C68.2264 38.242 67.2108 38.019 66.3424 37.5729C65.4739 37.122 64.8 36.5051 64.3207 35.722C63.8413 34.9343 63.6017 34.0302 63.6017 33.0099V23.4211H65.8013V32.8319C65.8013 33.4915 65.9461 34.0776 66.2356 34.5902C66.5298 35.1027 66.9451 35.5061 67.4813 35.8003C68.0176 36.0898 68.6535 36.2346 69.3891 36.2346C70.1295 36.2346 70.7678 36.0898 71.304 35.8003C71.845 35.5061 72.2579 35.1027 72.5427 34.5902C72.8322 34.0776 72.9769 33.4915 72.9769 32.8319V23.4211ZM86.1327 27.2509C86.0568 26.577 85.7436 26.055 85.1931 25.6848C84.6426 25.3099 83.9497 25.1224 83.1144 25.1224C82.5165 25.1224 81.9992 25.2173 81.5626 25.4072C81.126 25.5923 80.7867 25.8485 80.5446 26.176C80.3073 26.4987 80.1887 26.8665 80.1887 27.2794C80.1887 27.6258 80.2694 27.9248 80.4307 28.1763C80.5968 28.4278 80.8128 28.639 81.0785 28.8099C81.349 28.976 81.6385 29.116 81.947 29.2299C82.2555 29.339 82.5521 29.4292 82.8368 29.5004L84.2605 29.8705C84.7256 29.9844 85.2026 30.1387 85.6914 30.3333C86.1802 30.5278 86.6334 30.7841 87.051 31.1021C87.4687 31.42 87.8056 31.8139 88.0619 32.2838C88.3229 32.7536 88.4534 33.316 88.4534 33.9709C88.4534 34.7966 88.2398 35.5298 87.8127 36.1705C87.3904 36.8112 86.7758 37.3166 85.969 37.6868C85.167 38.0569 84.1965 38.242 83.0575 38.242C81.966 38.242 81.0216 38.0688 80.2243 37.7224C79.427 37.3759 78.8029 36.8848 78.3521 36.2488C77.9012 35.6081 77.6521 34.8488 77.6046 33.9709H79.8114C79.8541 34.4976 80.025 34.9366 80.324 35.2878C80.6277 35.6342 81.0145 35.8929 81.4843 36.0637C81.9589 36.2298 82.4785 36.3129 83.0433 36.3129C83.665 36.3129 84.2178 36.2156 84.7019 36.021C85.1907 35.8217 85.5751 35.5465 85.8551 35.1953C86.1351 34.8393 86.2751 34.4241 86.2751 33.9495C86.2751 33.5176 86.1517 33.1641 85.9049 32.8888C85.6629 32.6136 85.3331 32.3858 84.9155 32.2054C84.5026 32.0251 84.0351 31.8661 83.5131 31.7285L81.7904 31.2587C80.6229 30.9407 79.6975 30.4733 79.0141 29.8563C78.3355 29.2394 77.9962 28.4231 77.9962 27.4075C77.9962 26.5675 78.224 25.8343 78.6796 25.2079C79.1351 24.5814 79.7521 24.095 80.5304 23.7485C81.3087 23.3974 82.1867 23.2218 83.1643 23.2218C84.1514 23.2218 85.0222 23.395 85.7768 23.7414C86.5361 24.0879 87.1341 24.5648 87.5707 25.1723C88.0073 25.775 88.2351 26.4678 88.2541 27.2509H86.1327ZM95.6011 38H90.8815V23.4211H95.7506C97.1791 23.4211 98.4059 23.7129 99.431 24.2967C100.456 24.8756 101.241 25.7085 101.787 26.7953C102.338 27.8773 102.613 29.1753 102.613 30.6892C102.613 32.2078 102.335 33.5129 101.78 34.6044C101.23 35.6959 100.432 36.5359 99.3882 37.1244C98.3442 37.7081 97.0818 38 95.6011 38ZM93.0811 36.078H95.4801C96.5906 36.078 97.5137 35.8692 98.2493 35.4515C98.9849 35.0292 99.5354 34.4193 99.9008 33.6221C100.266 32.82 100.449 31.8424 100.449 30.6892C100.449 29.5455 100.266 28.575 99.9008 27.7777C99.5401 26.9804 99.0015 26.3753 98.2849 25.9624C97.5682 25.5495 96.6784 25.3431 95.6154 25.3431H93.0811V36.078ZM103.802 25.3146V23.4211H115.085V25.3146H110.537V38H108.344V25.3146H103.802ZM122.931 30.7105C122.931 28.9261 123.166 27.2841 123.636 25.7845C124.106 24.2848 124.792 22.9014 125.693 21.6343H127.644C127.293 22.1041 126.965 22.6807 126.662 23.3641C126.358 24.0475 126.092 24.7973 125.864 25.6136C125.636 26.4251 125.459 27.2675 125.33 28.1407C125.202 29.0092 125.138 29.8658 125.138 30.7105C125.138 31.84 125.25 32.9838 125.473 34.1417C125.696 35.2997 125.997 36.3746 126.377 37.3664C126.756 38.3583 127.179 39.1675 127.644 39.7939H125.693C124.792 38.5268 124.106 37.1434 123.636 35.6437C123.166 34.1441 122.931 32.4997 122.931 30.7105ZM129.858 38V23.4211H138.999V25.3146H132.058V29.7566H138.522V31.6431H132.058V36.1064H139.084V38H129.858ZM141.737 38V23.4211H146.933C148.063 23.4211 149 23.6157 149.745 24.0048C150.495 24.394 151.055 24.9326 151.425 25.6207C151.795 26.3041 151.98 27.0943 151.98 27.9912C151.98 28.8834 151.793 29.6688 151.418 30.3475C151.048 31.0214 150.488 31.5458 149.738 31.9207C148.993 32.2956 148.055 32.4831 146.926 32.4831H142.989V30.5895H146.727C147.439 30.5895 148.018 30.4875 148.464 30.2834C148.914 30.0794 149.244 29.7827 149.453 29.3936C149.662 29.0044 149.766 28.537 149.766 27.9912C149.766 27.4407 149.66 26.9638 149.446 26.5604C149.237 26.157 148.907 25.8485 148.456 25.635C148.01 25.4167 147.424 25.3075 146.698 25.3075H143.936V38H141.737ZM148.933 31.4224L152.535 38H150.03L146.499 31.4224H148.933ZM166.565 28.1621H164.344C164.259 27.6875 164.1 27.2699 163.867 26.9092C163.635 26.5485 163.35 26.2424 163.013 25.9909C162.676 25.7394 162.299 25.5495 161.881 25.4214C161.468 25.2933 161.029 25.2292 160.564 25.2292C159.724 25.2292 158.972 25.4404 158.308 25.8628C157.648 26.2851 157.126 26.9045 156.741 27.7207C156.362 28.537 156.172 29.5336 156.172 30.7105C156.172 31.897 156.362 32.8983 156.741 33.7146C157.126 34.5309 157.65 35.1478 158.315 35.5654C158.979 35.9831 159.726 36.1919 160.557 36.1919C161.017 36.1919 161.454 36.1302 161.867 36.0068C162.284 35.8787 162.662 35.6912 162.999 35.4444C163.336 35.1976 163.62 34.8963 163.853 34.5404C164.09 34.1797 164.254 33.7668 164.344 33.3017L166.565 33.3088C166.446 34.0254 166.216 34.6851 165.875 35.2878C165.538 35.8858 165.103 36.4031 164.572 36.8397C164.045 37.2715 163.442 37.6061 162.764 37.8434C162.085 38.0807 161.345 38.1993 160.543 38.1993C159.28 38.1993 158.156 37.9003 157.169 37.3024C156.181 36.6997 155.403 35.8383 154.834 34.7183C154.269 33.5983 153.987 32.2624 153.987 30.7105C153.987 29.1539 154.271 27.818 154.841 26.7028C155.41 25.5828 156.189 24.7238 157.176 24.1258C158.163 23.5231 159.285 23.2218 160.543 23.2218C161.316 23.2218 162.038 23.3333 162.707 23.5563C163.381 23.7746 163.986 24.0973 164.522 24.5245C165.058 24.9468 165.502 25.4641 165.853 26.0763C166.204 26.6838 166.442 27.379 166.565 28.1621ZM168.797 38V36.4054L173.731 31.2943C174.257 30.739 174.692 30.2526 175.033 29.835C175.38 29.4126 175.638 29.0116 175.809 28.6319C175.98 28.2522 176.066 27.8489 176.066 27.4217C176.066 26.9377 175.952 26.52 175.724 26.1689C175.496 25.8129 175.185 25.5401 174.791 25.3502C174.397 25.1556 173.954 25.0584 173.46 25.0584C172.938 25.0584 172.482 25.1651 172.093 25.3787C171.704 25.5923 171.405 25.8936 171.196 26.2828C170.988 26.6719 170.883 27.1275 170.883 27.6495H168.783C168.783 26.7621 168.987 25.9862 169.395 25.3218C169.804 24.6573 170.364 24.1424 171.075 23.777C171.787 23.4068 172.596 23.2218 173.503 23.2218C174.419 23.2218 175.226 23.4045 175.923 23.7699C176.626 24.1306 177.174 24.6241 177.568 25.2506C177.961 25.8723 178.158 26.5746 178.158 27.3577C178.158 27.8987 178.056 28.4278 177.852 28.9451C177.653 29.4624 177.304 30.039 176.806 30.6749C176.308 31.3061 175.615 32.0726 174.727 32.9743L171.83 36.0068V36.1136H178.393V38H168.797ZM185.966 38.242C184.842 38.2373 183.881 37.9407 183.083 37.3522C182.286 36.7637 181.676 35.9071 181.254 34.7824C180.831 33.6576 180.62 32.3027 180.62 30.7177C180.62 29.1373 180.831 27.7872 181.254 26.6672C181.681 25.5472 182.293 24.6929 183.09 24.1045C183.892 23.516 184.851 23.2218 185.966 23.2218C187.082 23.2218 188.038 23.5184 188.835 24.1116C189.632 24.7001 190.242 25.5543 190.665 26.6743C191.092 27.7895 191.305 29.1373 191.305 30.7177C191.305 32.3075 191.094 33.6648 190.672 34.7895C190.249 35.9095 189.64 36.7661 188.842 37.3593C188.045 37.9478 187.086 38.242 185.966 38.242ZM185.966 36.3414C186.953 36.3414 187.725 35.8597 188.28 34.8963C188.84 33.9329 189.12 32.54 189.12 30.7177C189.12 29.5075 188.992 28.4848 188.736 27.6495C188.484 26.8095 188.121 26.1736 187.646 25.7417C187.177 25.3051 186.617 25.0868 185.966 25.0868C184.984 25.0868 184.213 25.5709 183.653 26.539C183.093 27.5072 182.81 28.9 182.806 30.7177C182.806 31.9326 182.931 32.96 183.183 33.8C183.439 34.6353 183.802 35.2688 184.272 35.7007C184.742 36.1278 185.307 36.3414 185.966 36.3414ZM197.752 30.7105C197.752 32.4997 197.517 34.1441 197.047 35.6437C196.577 37.1434 195.892 38.5268 194.99 39.7939H193.039C193.391 39.3241 193.718 38.7475 194.022 38.0641C194.325 37.3807 194.591 36.6332 194.819 35.8217C195.047 35.0054 195.225 34.1607 195.353 33.2875C195.481 32.4143 195.545 31.5553 195.545 30.7105C195.545 29.5858 195.434 28.4444 195.211 27.2865C194.987 26.1285 194.686 25.0536 194.306 24.0618C193.927 23.0699 193.504 22.2607 193.039 21.6343H194.99C195.892 22.9014 196.577 24.2848 197.047 25.7845C197.517 27.2841 197.752 28.9261 197.752 30.7105Z" fill="white"/>
<path fill-rule="evenodd" clip-rule="evenodd" d="M32.9997 12.5359L46.3197 20.2259C46.9277 20.577 47.4327 21.0819 47.7838 21.69C48.1348 22.2981 48.3197 22.9878 48.3197 23.6899V39.0719C48.3197 39.7741 48.1348 40.4638 47.7838 41.0719C47.4327 41.6799 46.9277 42.1849 46.3197 42.5359L32.9997 50.2259C32.3916 50.577 31.7018 50.7618 30.9997 50.7618C30.2975 50.7618 29.6078 50.577 28.9997 50.2259L15.6797 42.5359C15.0716 42.1849 14.5667 41.6799 14.2156 41.0719C13.8645 40.4638 13.6797 39.7741 13.6797 39.0719V23.6899C13.6797 22.9878 13.8645 22.2981 14.2156 21.69C14.5667 21.0819 15.0716 20.577 15.6797 20.2259L28.9997 12.5359C29.6078 12.1849 30.2975 12 30.9997 12C31.7018 12 32.3916 12.1849 32.9997 12.5359Z" fill="url(#paint0_linear_128_57)"/>
<path d="M32.5174 29.5067V27.7107H36.6274V24.9707H25.4344V27.7107H29.5464V29.5067C26.2044 29.6597 23.6914 30.3217 23.6914 31.1147C23.6914 31.9077 26.2054 32.5697 29.5464 32.7237V38.4827H32.5194V32.7227C35.8544 32.5697 38.3614 31.9077 38.3614 31.1157C38.3614 30.3237 35.8544 29.6627 32.5194 29.5087L32.5174 29.5067ZM32.5194 32.2357V32.2337C32.4354 32.2397 32.0044 32.2657 31.0444 32.2657C30.2774 32.2657 29.7374 32.2437 29.5474 32.2337V32.2357C26.5954 32.1057 24.3914 31.5907 24.3914 30.9757C24.3914 30.3607 26.5954 29.8477 29.5474 29.7157V31.7237C29.7404 31.7367 30.2934 31.7697 31.0574 31.7697C31.9734 31.7697 32.4344 31.7317 32.5194 31.7237V29.7167C35.4654 29.8477 37.6644 30.3627 37.6644 30.9757C37.6644 31.5877 35.4644 32.1027 32.5194 32.2347" fill="white"/>
</g>
<defs>
<linearGradient id="paint0_linear_128_57" x1="13.6797" y1="12" x2="52.9249" y2="46.7282" gradientUnits="userSpaceOnUse">
<stop stop-color="#53AE94"/>
<stop offset="1" stop-color="#2E9175"/>
</linearGradient>
<clipPath id="clip0_128_57">
<rect width="212" height="63" fill="white"/>
</clipPath>
</defs>
</svg>
