<svg width="197" height="63" viewBox="0 0 197 63" fill="none" xmlns="http://www.w3.org/2000/svg">
<g clip-path="url(#clip0_128_119)">
<rect width="197" height="63" rx="10" fill="#3C3D3F" fill-opacity="0.12"/>
<path d="M63.2244 38V36.5336L70.8911 25.3146H63.1603V23.4211H73.582V24.8875L65.9152 36.1064H73.6461V38H63.2244ZM76.2041 38V23.4211H81.4006C82.5301 23.4211 83.4674 23.6157 84.2125 24.0048C84.9623 24.394 85.5223 24.9326 85.8925 25.6207C86.2627 26.3041 86.4477 27.0943 86.4477 27.9912C86.4477 28.8834 86.2603 29.6688 85.8854 30.3475C85.5152 31.0214 84.9552 31.5458 84.2054 31.9207C83.4603 32.2956 82.523 32.4831 81.3935 32.4831H77.4569V30.5895H81.1942C81.9061 30.5895 82.485 30.4875 82.9311 30.2834C83.382 30.0794 83.7118 29.7827 83.9206 29.3936C84.1294 29.0044 84.2338 28.537 84.2338 27.9912C84.2338 27.4407 84.1271 26.9638 83.9135 26.5604C83.7047 26.157 83.3749 25.8485 82.924 25.635C82.4779 25.4167 81.8918 25.3075 81.1657 25.3075H78.4037V38H76.2041ZM83.401 31.4224L87.003 38H84.4972L80.9664 31.4224H83.401ZM90.4544 23.4211L93.9425 29.1231H94.0564L97.5445 23.4211H100.093L95.5513 30.7105L100.121 38H97.5588L94.0564 32.3763H93.9425L90.4401 38H87.8774L92.5259 30.7105L87.9059 23.4211H90.4544ZM107.628 30.7105C107.628 28.9261 107.862 27.2841 108.332 25.7845C108.802 24.2848 109.488 22.9014 110.39 21.6343H112.34C111.989 22.1041 111.661 22.6807 111.358 23.3641C111.054 24.0475 110.788 24.7973 110.56 25.6136C110.333 26.4251 110.155 27.2675 110.027 28.1407C109.898 29.0092 109.834 29.8658 109.834 30.7105C109.834 31.84 109.946 32.9838 110.169 34.1417C110.392 35.2997 110.693 36.3746 111.073 37.3664C111.453 38.3583 111.875 39.1675 112.34 39.7939H110.39C109.488 38.5268 108.802 37.1434 108.332 35.6437C107.862 34.1441 107.628 32.4997 107.628 30.7105ZM114.555 38V23.4211H123.695V25.3146H116.754V29.7566H123.218V31.6431H116.754V36.1064H123.78V38H114.555ZM126.433 38V23.4211H131.629C132.759 23.4211 133.696 23.6157 134.441 24.0048C135.191 24.394 135.751 24.9326 136.121 25.6207C136.491 26.3041 136.676 27.0943 136.676 27.9912C136.676 28.8834 136.489 29.6688 136.114 30.3475C135.744 31.0214 135.184 31.5458 134.434 31.9207C133.689 32.2956 132.752 32.4831 131.622 32.4831H127.686V30.5895H131.423C132.135 30.5895 132.714 30.4875 133.16 30.2834C133.611 30.0794 133.94 29.7827 134.149 29.3936C134.358 29.0044 134.462 28.537 134.462 27.9912C134.462 27.4407 134.356 26.9638 134.142 26.5604C133.933 26.157 133.603 25.8485 133.153 25.635C132.707 25.4167 132.12 25.3075 131.394 25.3075H128.632V38H126.433ZM133.63 31.4224L137.232 38H134.726L131.195 31.4224H133.63ZM151.261 28.1621H149.04C148.955 27.6875 148.796 27.2699 148.563 26.9092C148.331 26.5485 148.046 26.2424 147.709 25.9909C147.372 25.7394 146.995 25.5495 146.577 25.4214C146.164 25.2933 145.725 25.2292 145.26 25.2292C144.42 25.2292 143.668 25.4404 143.004 25.8628C142.344 26.2851 141.822 26.9045 141.438 27.7207C141.058 28.537 140.868 29.5336 140.868 30.7105C140.868 31.897 141.058 32.8983 141.438 33.7146C141.822 34.5309 142.346 35.1478 143.011 35.5654C143.675 35.9831 144.423 36.1919 145.253 36.1919C145.713 36.1919 146.15 36.1302 146.563 36.0068C146.981 35.8787 147.358 35.6912 147.695 35.4444C148.032 35.1976 148.316 34.8963 148.549 34.5404C148.786 34.1797 148.95 33.7668 149.04 33.3017L151.261 33.3088C151.143 34.0254 150.912 34.6851 150.571 35.2878C150.234 35.8858 149.8 36.4031 149.268 36.8397C148.741 37.2715 148.139 37.6061 147.46 37.8434C146.781 38.0807 146.041 38.1993 145.239 38.1993C143.977 38.1993 142.852 37.9003 141.865 37.3024C140.878 36.6997 140.099 35.8383 139.53 34.7183C138.965 33.5983 138.683 32.2624 138.683 30.7105C138.683 29.1539 138.967 27.818 139.537 26.7028C140.106 25.5828 140.885 24.7238 141.872 24.1258C142.859 23.5231 143.981 23.2218 145.239 23.2218C146.012 23.2218 146.734 23.3333 147.403 23.5563C148.077 23.7746 148.682 24.0973 149.218 24.5245C149.754 24.9468 150.198 25.4641 150.549 26.0763C150.901 26.6838 151.138 27.379 151.261 28.1621ZM153.494 38V36.4054L158.427 31.2943C158.954 30.739 159.388 30.2526 159.729 29.835C160.076 29.4126 160.335 29.0116 160.505 28.6319C160.676 28.2522 160.762 27.8489 160.762 27.4217C160.762 26.9377 160.648 26.52 160.42 26.1689C160.192 25.8129 159.881 25.5401 159.487 25.3502C159.094 25.1556 158.65 25.0584 158.156 25.0584C157.634 25.0584 157.179 25.1651 156.789 25.3787C156.4 25.5923 156.101 25.8936 155.893 26.2828C155.684 26.6719 155.579 27.1275 155.579 27.6495H153.479C153.479 26.7621 153.683 25.9862 154.092 25.3218C154.5 24.6573 155.06 24.1424 155.772 23.777C156.483 23.4068 157.293 23.2218 158.199 23.2218C159.115 23.2218 159.922 23.4045 160.619 23.7699C161.322 24.1306 161.87 24.6241 162.264 25.2506C162.658 25.8723 162.855 26.5746 162.855 27.3577C162.855 27.8987 162.752 28.4278 162.548 28.9451C162.349 29.4624 162 30.039 161.502 30.6749C161.004 31.3061 160.311 32.0726 159.423 32.9743L156.526 36.0068V36.1136H163.089V38H153.494ZM170.663 38.242C169.538 38.2373 168.577 37.9407 167.779 37.3522C166.982 36.7637 166.372 35.9071 165.95 34.7824C165.528 33.6576 165.316 32.3027 165.316 30.7177C165.316 29.1373 165.528 27.7872 165.95 26.6672C166.377 25.5472 166.989 24.6929 167.787 24.1045C168.589 23.516 169.547 23.2218 170.663 23.2218C171.778 23.2218 172.734 23.5184 173.531 24.1116C174.329 24.7001 174.938 25.5543 175.361 26.6743C175.788 27.7895 176.001 29.1373 176.001 30.7177C176.001 32.3075 175.79 33.6648 175.368 34.7895C174.946 35.9095 174.336 36.7661 173.538 37.3593C172.741 37.9478 171.782 38.242 170.663 38.242ZM170.663 36.3414C171.65 36.3414 172.421 35.8597 172.976 34.8963C173.536 33.9329 173.816 32.54 173.816 30.7177C173.816 29.5075 173.688 28.4848 173.432 27.6495C173.18 26.8095 172.817 26.1736 172.342 25.7417C171.873 25.3051 171.313 25.0868 170.663 25.0868C169.68 25.0868 168.909 25.5709 168.349 26.539C167.789 27.5072 167.507 28.9 167.502 30.7177C167.502 31.9326 167.628 32.96 167.879 33.8C168.135 34.6353 168.498 35.2688 168.968 35.7007C169.438 36.1278 170.003 36.3414 170.663 36.3414ZM182.448 30.7105C182.448 32.4997 182.213 34.1441 181.743 35.6437C181.273 37.1434 180.588 38.5268 179.686 39.7939H177.735C178.087 39.3241 178.414 38.7475 178.718 38.0641C179.022 37.3807 179.287 36.6332 179.515 35.8217C179.743 35.0054 179.921 34.1607 180.049 33.2875C180.177 32.4143 180.241 31.5553 180.241 30.7105C180.241 29.5858 180.13 28.4444 179.907 27.2865C179.684 26.1285 179.382 25.0536 179.003 24.0618C178.623 23.0699 178.201 22.2607 177.735 21.6343H179.686C180.588 22.9014 181.273 24.2848 181.743 25.7845C182.213 27.2841 182.448 28.9261 182.448 30.7105Z" fill="white"/>
<path d="M33.32 12.5359L46.64 20.2259C47.248 20.577 47.753 21.0819 48.1041 21.69C48.4551 22.2981 48.64 22.9878 48.64 23.6899V39.0719C48.64 39.7741 48.4551 40.4638 48.1041 41.0719C47.753 41.6799 47.248 42.1849 46.64 42.5359L33.32 50.2259C32.7119 50.577 32.0221 50.7618 31.32 50.7618C30.6178 50.7618 29.9281 50.577 29.32 50.2259L16 42.5359C15.3919 42.1849 14.887 41.6799 14.5359 41.0719C14.1848 40.4638 14 39.7741 14 39.0719V23.6899C14 22.9878 14.1848 22.2981 14.5359 21.69C14.887 21.0819 15.3919 20.577 16 20.2259L29.32 12.5359C29.9281 12.1849 30.6178 12 31.32 12C32.0221 12 32.7119 12.1849 33.32 12.5359Z" fill="url(#paint0_linear_128_119)"/>
<path d="M36.683 34.8055C37.3698 35.7283 38.078 36.6725 38.7862 37.6168C37.3698 39.2907 35.61 40.3638 33.4854 40.8144C31.1247 41.308 28.8928 40.9432 26.7253 39.7414C28.6568 38.3035 30.5453 36.8871 32.4553 35.4707C32.8845 35.8785 33.2922 36.2862 33.7 36.6725C34.1507 37.1017 33.979 37.1232 34.5584 36.8013C35.3525 36.3506 36.0177 35.7283 36.5328 34.9771C36.5543 34.9342 36.5972 34.8913 36.6186 34.8484C36.5972 34.8484 36.6186 34.8484 36.683 34.8055ZM28.249 36.694C27.7125 37.1018 27.2189 37.4666 26.7253 37.8529C26.3605 38.1319 25.9956 38.3894 25.6308 38.6684C25.4806 38.7971 25.3733 38.7971 25.2016 38.6469C23.5706 37.1876 22.5405 35.3849 22.1542 33.2388C21.7679 31.0713 22.1113 29.0111 23.1414 27.0582C23.1628 27.0153 23.2058 26.9509 23.2272 26.908C23.2272 26.8865 23.2487 26.8865 23.2916 26.865C24.708 28.7321 26.1459 30.5992 27.5623 32.4663C27.5193 32.5306 27.4979 32.5736 27.455 32.6165C27.0257 33.0672 26.5965 33.5178 26.1459 33.947C26.0171 34.0758 25.9956 34.1831 26.0815 34.3333C26.5322 35.1918 27.1545 35.9 27.9271 36.4794C28.0344 36.5438 28.1202 36.6082 28.249 36.694ZM36.2538 23.367C35.5671 23.8605 34.8803 24.3541 34.1936 24.8263C33.0133 25.6632 31.8329 26.5217 30.674 27.3586C30.5238 27.4659 30.4165 27.4874 30.2878 27.3372C29.9015 26.9294 29.4937 26.5646 29.1074 26.1568C29.0001 26.0495 28.8928 26.0281 28.7426 26.0925C27.8198 26.5646 27.0901 27.2299 26.4892 28.0668C26.4463 28.1097 26.4034 28.1741 26.3605 28.2385C26.0171 27.7878 25.6952 27.3801 25.3733 26.9509C25.0299 26.5002 24.708 26.0495 24.3861 25.6203C24.2788 25.4701 24.2573 25.3628 24.4076 25.2126C26.06 23.3884 28.0988 22.3154 30.5453 22.0579C32.4767 21.8432 34.3224 22.2295 36.0392 23.1523C36.1036 23.1953 36.168 23.2167 36.2323 23.2597C36.2323 23.324 36.2323 23.3455 36.2538 23.367ZM39.7519 36.2433C39.3012 35.6639 38.8935 35.1274 38.4857 34.5909C37.5414 33.3461 36.5972 32.08 35.6315 30.8352C35.5027 30.6636 35.5027 30.5563 35.6529 30.406C36.0607 29.9983 36.447 29.5905 36.8547 29.1828C36.962 29.0755 37.0049 28.9682 36.9191 28.818C36.447 27.9166 35.8031 27.1655 34.9662 26.5646C34.9018 26.5217 34.8374 26.4573 34.7516 26.4144C34.8159 26.35 34.8803 26.3071 34.9233 26.2641C35.7388 25.6418 36.5543 25.0409 37.3698 24.4185C37.4985 24.3112 37.6058 24.2683 37.7561 24.4185C39.7948 26.2641 40.8893 28.5604 40.9966 31.3288C41.0395 32.9384 40.6747 34.4621 39.945 35.9C39.8807 35.9858 39.8163 36.0931 39.7519 36.2433Z" fill="white"/>
</g>
<defs>
<linearGradient id="paint0_linear_128_119" x1="19.3203" y1="12.3809" x2="43.8203" y2="50.3809" gradientUnits="userSpaceOnUse">
<stop stop-color="#545453"/>
<stop offset="1" stop-color="#6B6B6B"/>
</linearGradient>
<clipPath id="clip0_128_119">
<rect width="197" height="63" fill="white"/>
</clipPath>
</defs>
</svg>
