<svg width="114" height="63" viewBox="0 0 114 63" fill="none" xmlns="http://www.w3.org/2000/svg">
<g clip-path="url(#clip0_129_177)">
<rect width="114" height="63" rx="10" fill="#3C3D3F" fill-opacity="0.12"/>
<path d="M62.6017 38V23.4211H67.9406C68.9752 23.4211 69.8318 23.5919 70.5105 23.9336C71.1891 24.2706 71.6969 24.7285 72.0339 25.3075C72.3708 25.8817 72.5393 26.5295 72.5393 27.2509C72.5393 27.8583 72.4277 28.3709 72.2047 28.7885C71.9816 29.2014 71.6827 29.5336 71.3078 29.7851C70.9376 30.0319 70.5295 30.2122 70.0834 30.3261V30.4685C70.5674 30.4922 71.0396 30.6488 71.5 30.9383C71.965 31.2231 72.3494 31.6288 72.6532 32.1556C72.9569 32.6824 73.1088 33.3231 73.1088 34.0776C73.1088 34.8227 72.9332 35.4919 72.582 36.0851C72.2355 36.6736 71.6993 37.141 70.9732 37.4875C70.2471 37.8292 69.3193 38 68.1898 38H62.6017ZM64.8013 36.1136H67.9762C69.0298 36.1136 69.7844 35.9095 70.24 35.5014C70.6956 35.0932 70.9233 34.5831 70.9233 33.9709C70.9233 33.5105 70.8071 33.0882 70.5745 32.7038C70.342 32.3193 70.0098 32.0132 69.5779 31.7855C69.1508 31.5577 68.643 31.4438 68.0545 31.4438H64.8013V36.1136ZM64.8013 29.7282H67.7484C68.242 29.7282 68.6857 29.6333 69.0796 29.4434C69.4783 29.2536 69.7939 28.9878 70.0264 28.6461C70.2637 28.2997 70.3823 27.8916 70.3823 27.4217C70.3823 26.819 70.1711 26.3136 69.7488 25.9055C69.3264 25.4973 68.6786 25.2933 67.8054 25.2933H64.8013V29.7282ZM87.626 28.1621H85.405C85.3196 27.6875 85.1606 27.2699 84.9281 26.9092C84.6955 26.5485 84.4108 26.2424 84.0738 25.9909C83.7369 25.7394 83.3596 25.5495 82.942 25.4214C82.5291 25.2933 82.0901 25.2292 81.625 25.2292C80.785 25.2292 80.0328 25.4404 79.3684 25.8628C78.7088 26.2851 78.1868 26.9045 77.8023 27.7207C77.4227 28.537 77.2329 29.5336 77.2329 30.7105C77.2329 31.897 77.4227 32.8983 77.8023 33.7146C78.1868 34.5309 78.7112 35.1478 79.3756 35.5654C80.04 35.9831 80.7874 36.1919 81.6179 36.1919C82.0783 36.1919 82.5149 36.1302 82.9277 36.0068C83.3454 35.8787 83.7227 35.6912 84.0596 35.4444C84.3966 35.1976 84.6813 34.8963 84.9138 34.5404C85.1511 34.1797 85.3149 33.7668 85.405 33.3017L87.626 33.3088C87.5074 34.0254 87.2772 34.6851 86.9355 35.2878C86.5986 35.8858 86.1643 36.4031 85.6328 36.8397C85.106 37.2715 84.5033 37.6061 83.8247 37.8434C83.1461 38.0807 82.4057 38.1993 81.6037 38.1993C80.3413 38.1993 79.2166 37.9003 78.2295 37.3024C77.2423 36.6997 76.464 35.8383 75.8946 34.7183C75.3298 33.5983 75.0474 32.2624 75.0474 30.7105C75.0474 29.1539 75.3322 27.818 75.9017 26.7028C76.4712 25.5828 77.2495 24.7238 78.2366 24.1258C79.2237 23.5231 80.3461 23.2218 81.6037 23.2218C82.3772 23.2218 83.0986 23.3333 83.7677 23.5563C84.4416 23.7746 85.0467 24.0973 85.583 24.5245C86.1193 24.9468 86.563 25.4641 86.9142 26.0763C87.2654 26.6838 87.5026 27.379 87.626 28.1621ZM90.0577 38V23.4211H92.2573V29.7566H99.5254V23.4211H101.732V38H99.5254V31.6431H92.2573V38H90.0577Z" fill="white"/>
<path fill-rule="evenodd" clip-rule="evenodd" d="M32.32 12.5359L45.64 20.2259C46.2481 20.577 46.753 21.0819 47.1041 21.69C47.4552 22.298 47.64 22.9878 47.64 23.6899V39.0719C47.64 39.774 47.4552 40.4638 47.1041 41.0718C46.753 41.6799 46.2481 42.1848 45.64 42.5359L32.32 50.2259C31.7119 50.577 31.0221 50.7618 30.32 50.7618C29.6179 50.7618 28.9281 50.577 28.32 50.2259L15 42.5359C14.3919 42.1848 13.887 41.6799 13.5359 41.0718C13.1848 40.4638 13 39.774 13 39.0719V23.6899C13 22.9878 13.1848 22.298 13.5359 21.69C13.887 21.0819 14.3919 20.577 15 20.2259L28.32 12.5359C28.9281 12.1848 29.6179 12 30.32 12C31.0221 12 31.7119 12.1848 32.32 12.5359Z" fill="url(#paint0_linear_129_177)"/>
<path d="M35.2994 26.5579C34.5368 24.8462 32.7861 24.4906 30.6388 24.8401L29.9495 22.2002L28.3207 22.6161L28.9979 25.25C28.5708 25.3585 28.1316 25.4489 27.6985 25.5694L27.0153 22.9536L25.3865 23.3695L26.0759 26.0094C25.7281 26.1059 22.8 26.8532 22.8 26.8532L23.2515 28.571C23.2515 28.571 24.4471 28.2395 24.4349 28.2696C25.0937 28.1009 25.4048 28.4263 25.5573 28.7337L27.4484 35.9664C27.4728 36.1773 27.4362 36.539 26.9787 36.6535C27.0031 36.6655 25.7952 36.9548 25.7952 36.9548L25.9722 38.9559C25.9722 38.9559 28.8697 38.2206 29.2541 38.1302L29.9556 40.8002L31.5782 40.3843L30.8828 37.6962C31.3342 37.5937 31.7612 37.4852 32.1883 37.3768L32.8837 40.0528L34.5124 39.637L33.817 36.9729C36.3181 36.3702 38.0871 34.8152 37.7211 32.4284C37.4893 30.9939 35.9033 29.8126 34.5795 29.68C35.3848 28.9567 35.7996 27.914 35.2994 26.5579ZM34.5124 32.8503C34.8357 35.213 31.5172 35.5023 30.4131 35.7856L29.4554 32.2536C30.5656 31.9643 33.9695 30.7649 34.5124 32.8503ZM32.5116 28.0406C32.8532 30.1381 30.0166 30.3852 29.0955 30.6202L28.2292 27.4138C29.1504 27.1787 31.8161 26.0998 32.5116 28.0406Z" fill="white"/>
</g>
<defs>
<linearGradient id="paint0_linear_129_177" x1="5.32" y1="12.3809" x2="58.5729" y2="41.4144" gradientUnits="userSpaceOnUse">
<stop stop-color="#57F5C9"/>
<stop offset="1" stop-color="#0AC18E"/>
</linearGradient>
<clipPath id="clip0_129_177">
<rect width="114" height="63" fill="white"/>
</clipPath>
</defs>
</svg>
