<svg width="1920" height="1295" viewBox="0 0 1920 1295" fill="none" xmlns="http://www.w3.org/2000/svg">
<g clip-path="url(#clip0_34_76)">
<path d="M1702.52 741.553L1701.64 748.499L1699.84 748.27L1700.72 741.324L1694.36 740.514L1694.58 738.712L1700.95 739.522L1701.81 732.765L1703.61 732.994L1702.75 739.751L1709.12 740.561L1708.89 742.363L1702.52 741.553Z" fill="white"/>
<path d="M1654.05 795.094C1651.49 794.768 1648.85 793.413 1646.44 791.176C1644.63 789.505 1643.58 787.943 1643.54 787.877C1643.36 787.608 1643.4 787.248 1643.64 787.032C1643.7 786.979 1645.11 785.729 1647.28 784.563C1650.18 783.003 1653.07 782.351 1655.63 782.677C1658.2 783.003 1660.83 784.358 1663.25 786.595C1665.05 788.266 1666.1 789.829 1666.15 789.894C1666.32 790.163 1666.28 790.523 1666.04 790.739C1665.98 790.792 1664.57 792.042 1662.41 793.208C1659.51 794.768 1656.62 795.42 1654.05 795.094ZM1644.96 787.629C1645.39 788.198 1646.22 789.206 1647.34 790.243C1648.88 791.665 1651.33 793.436 1654.22 793.804C1657.1 794.171 1659.91 793.068 1661.76 792.078C1663.11 791.355 1664.16 790.585 1664.72 790.142C1664.29 789.573 1663.46 788.565 1662.34 787.528C1660.8 786.107 1658.36 784.335 1655.47 783.967C1652.58 783.6 1649.77 784.703 1647.92 785.694C1646.57 786.416 1645.52 787.186 1644.96 787.629Z" fill="white"/>
<path d="M1654.43 792.144C1652.63 791.915 1651.35 790.267 1651.58 788.47C1651.81 786.673 1653.46 785.396 1655.26 785.625C1657.05 785.854 1658.33 787.502 1658.1 789.299C1657.87 791.096 1656.22 792.373 1654.43 792.144Z" fill="white"/>
<path d="M1352.41 702.533L1354.25 688.104L1363.3 689.254L1363.06 691.128L1356.19 690.255L1355.63 694.651L1362.03 695.465L1361.79 697.331L1355.39 696.518L1354.83 700.935L1361.78 701.82L1361.55 703.693L1352.41 702.533ZM1367.24 693.422L1369.09 697.939L1372.04 694.031L1374.34 694.325L1370.28 699.307L1372.99 705.15L1370.69 704.857L1368.77 700.503L1365.82 704.237L1363.51 703.943L1367.57 698.961L1364.93 693.128L1367.24 693.422ZM1379.23 706.166C1378.18 706.033 1377.31 705.68 1376.62 705.109C1375.93 704.535 1375.43 703.801 1375.14 702.909C1374.84 702.017 1374.76 701.028 1374.9 699.943C1375.04 698.844 1375.37 697.901 1375.89 697.112C1376.41 696.32 1377.07 695.735 1377.89 695.356C1378.7 694.977 1379.61 694.853 1380.63 694.982C1381.45 695.087 1382.17 695.332 1382.77 695.719C1383.38 696.101 1383.84 696.59 1384.17 697.185C1384.5 697.781 1384.65 698.447 1384.64 699.185L1382.59 698.924C1382.54 698.402 1382.34 697.934 1381.98 697.516C1381.63 697.099 1381.11 696.848 1380.44 696.762C1379.86 696.687 1379.32 696.777 1378.84 697.031C1378.36 697.281 1377.97 697.674 1377.65 698.211C1377.34 698.744 1377.13 699.395 1377.03 700.166C1376.93 700.955 1376.96 701.651 1377.13 702.255C1377.3 702.858 1377.58 703.345 1377.98 703.715C1378.38 704.086 1378.88 704.309 1379.47 704.385C1379.87 704.436 1380.24 704.409 1380.59 704.305C1380.93 704.196 1381.24 704.017 1381.49 703.768C1381.75 703.519 1381.95 703.207 1382.09 702.828L1384.14 703.089C1383.98 703.779 1383.67 704.374 1383.22 704.875C1382.77 705.376 1382.2 705.745 1381.53 705.978C1380.85 706.212 1380.09 706.275 1379.23 706.166ZM1388.88 700.642L1388.06 707.068L1385.96 706.799L1387.79 692.37L1389.87 692.635L1389.19 698.004L1389.32 698.021C1389.65 697.471 1390.1 697.057 1390.66 696.781C1391.23 696.504 1391.93 696.419 1392.77 696.526C1393.51 696.621 1394.14 696.856 1394.66 697.231C1395.18 697.608 1395.55 698.118 1395.78 698.763C1396.01 699.404 1396.07 700.175 1395.96 701.077L1395.08 707.96L1392.98 707.692L1393.82 701.062C1393.92 700.268 1393.79 699.627 1393.44 699.138C1393.09 698.644 1392.55 698.352 1391.82 698.26C1391.32 698.196 1390.86 698.245 1390.44 698.406C1390.02 698.568 1389.68 698.839 1389.4 699.219C1389.13 699.595 1388.95 700.069 1388.88 700.642ZM1401.01 708.958C1400.33 708.871 1399.72 708.665 1399.2 708.341C1398.68 708.012 1398.29 707.582 1398.03 707.052C1397.77 706.523 1397.68 705.904 1397.77 705.195C1397.85 704.584 1398.03 704.096 1398.32 703.732C1398.6 703.367 1398.96 703.096 1399.39 702.917C1399.82 702.737 1400.29 702.619 1400.79 702.565C1401.3 702.51 1401.82 702.486 1402.34 702.49C1402.99 702.497 1403.53 702.503 1403.94 702.507C1404.35 702.507 1404.65 702.461 1404.85 702.372C1405.05 702.282 1405.16 702.111 1405.19 701.857L1405.2 701.809C1405.28 701.193 1405.17 700.695 1404.86 700.312C1404.56 699.93 1404.07 699.695 1403.39 699.609C1402.68 699.518 1402.1 699.605 1401.65 699.867C1401.21 700.126 1400.89 700.437 1400.68 700.797L1398.76 700.094C1399.08 699.466 1399.49 698.98 1399.99 698.633C1400.5 698.282 1401.06 698.053 1401.68 697.945C1402.29 697.833 1402.93 697.818 1403.58 697.901C1404.01 697.956 1404.46 698.066 1404.93 698.231C1405.41 698.392 1405.84 698.632 1406.23 698.953C1406.62 699.275 1406.92 699.704 1407.13 700.236C1407.34 700.764 1407.4 701.421 1407.3 702.211L1406.38 709.398L1404.33 709.135L1404.51 707.656L1404.43 707.646C1404.26 707.901 1404.02 708.142 1403.71 708.37C1403.41 708.599 1403.03 708.773 1402.58 708.893C1402.13 709.012 1401.61 709.034 1401.01 708.958ZM1401.68 707.325C1402.27 707.4 1402.78 707.347 1403.22 707.169C1403.67 706.992 1404.03 706.732 1404.29 706.388C1404.56 706.041 1404.72 705.654 1404.77 705.227L1404.95 703.831C1404.87 703.896 1404.71 703.948 1404.49 703.987C1404.27 704.021 1404.02 704.045 1403.74 704.057C1403.46 704.065 1403.19 704.071 1402.93 704.076C1402.67 704.076 1402.45 704.076 1402.27 704.078C1401.85 704.078 1401.47 704.116 1401.12 704.195C1400.77 704.275 1400.48 704.418 1400.25 704.622C1400.02 704.823 1399.88 705.111 1399.84 705.486C1399.77 706.008 1399.91 706.427 1400.26 706.744C1400.61 707.056 1401.09 707.25 1401.68 707.325ZM1412.11 703.596L1411.3 710.023L1409.19 709.755L1410.57 698.932L1412.59 699.19L1412.36 700.952L1412.5 700.969C1412.82 700.427 1413.27 700.017 1413.84 699.736C1414.42 699.457 1415.12 699.368 1415.93 699.471C1416.67 699.565 1417.29 699.803 1417.81 700.184C1418.32 700.56 1418.7 701.07 1418.92 701.715C1419.15 702.359 1419.21 703.128 1419.1 704.02L1418.22 710.904L1416.11 710.635L1416.96 704.005C1417.06 703.221 1416.93 702.583 1416.58 702.089C1416.23 701.591 1415.69 701.296 1414.98 701.206C1414.49 701.144 1414.04 701.194 1413.64 701.357C1413.23 701.52 1412.9 701.792 1412.62 702.172C1412.36 702.549 1412.19 703.023 1412.11 703.596ZM1425.04 716.124C1424.18 716.015 1423.45 715.808 1422.86 715.504C1422.28 715.2 1421.81 714.838 1421.47 714.417C1421.13 713.996 1420.89 713.552 1420.75 713.086L1422.66 712.57C1422.76 712.793 1422.9 713.032 1423.08 713.289C1423.27 713.552 1423.53 713.789 1423.88 714C1424.23 714.212 1424.69 714.355 1425.28 714.429C1426.07 714.53 1426.76 714.419 1427.33 714.096C1427.9 713.777 1428.24 713.195 1428.35 712.349L1428.62 710.221L1428.48 710.205C1428.33 710.419 1428.11 710.651 1427.84 710.903C1427.57 711.155 1427.21 711.358 1426.77 711.512C1426.33 711.666 1425.78 711.701 1425.12 711.617C1424.26 711.508 1423.52 711.21 1422.88 710.724C1422.25 710.233 1421.79 709.569 1421.49 708.734C1421.2 707.895 1421.12 706.901 1421.27 705.75C1421.41 704.599 1421.73 703.638 1422.23 702.865C1422.73 702.093 1423.35 701.532 1424.09 701.182C1424.83 700.828 1425.64 700.707 1426.51 700.818C1427.18 700.903 1427.71 701.084 1428.09 701.362C1428.48 701.635 1428.76 701.934 1428.96 702.26C1429.15 702.585 1429.3 702.87 1429.4 703.112L1429.56 703.13L1429.78 701.377L1431.84 701.64L1430.44 712.701C1430.32 713.631 1430 714.367 1429.5 714.908C1428.99 715.45 1428.35 715.817 1427.57 716.01C1426.8 716.203 1425.96 716.241 1425.04 716.124ZM1425.81 709.927C1426.41 710.004 1426.94 709.93 1427.4 709.701C1427.85 709.468 1428.23 709.099 1428.51 708.596C1428.8 708.089 1428.99 707.463 1429.08 706.716C1429.18 705.988 1429.15 705.332 1429.01 704.75C1428.86 704.168 1428.6 703.696 1428.22 703.333C1427.84 702.965 1427.34 702.743 1426.73 702.664C1426.1 702.584 1425.55 702.681 1425.08 702.956C1424.62 703.226 1424.24 703.627 1423.95 704.159C1423.67 704.691 1423.49 705.302 1423.4 705.992C1423.31 706.702 1423.34 707.338 1423.49 707.901C1423.63 708.464 1423.9 708.921 1424.28 709.276C1424.67 709.631 1425.18 709.848 1425.81 709.927ZM1437.93 713.633C1436.86 713.497 1435.97 713.152 1435.26 712.599C1434.55 712.041 1434.04 711.32 1433.73 710.435C1433.42 709.547 1433.34 708.541 1433.48 707.419C1433.63 706.31 1433.96 705.358 1434.48 704.565C1435 703.773 1435.67 703.188 1436.48 702.809C1437.29 702.43 1438.2 702.304 1439.2 702.432C1439.81 702.509 1440.39 702.686 1440.94 702.961C1441.49 703.236 1441.96 703.619 1442.36 704.109C1442.76 704.599 1443.05 705.206 1443.22 705.93C1443.4 706.649 1443.43 707.499 1443.3 708.481L1443.21 709.228L1434.6 708.133L1434.8 706.555L1441.34 707.387C1441.41 706.833 1441.36 706.328 1441.19 705.872C1441.02 705.411 1440.75 705.03 1440.37 704.729C1440 704.429 1439.54 704.243 1438.99 704.174C1438.4 704.098 1437.87 704.179 1437.39 704.414C1436.92 704.645 1436.53 704.977 1436.23 705.411C1435.94 705.842 1435.76 706.327 1435.69 706.867L1435.53 708.101C1435.44 708.825 1435.49 709.455 1435.68 709.995C1435.87 710.535 1436.18 710.968 1436.61 711.294C1437.03 711.616 1437.55 711.817 1438.17 711.895C1438.57 711.946 1438.94 711.936 1439.28 711.865C1439.63 711.789 1439.93 711.652 1440.2 711.452C1440.47 711.252 1440.69 710.991 1440.86 710.669L1442.81 711.281C1442.57 711.848 1442.22 712.327 1441.75 712.716C1441.29 713.101 1440.73 713.376 1440.08 713.541C1439.43 713.703 1438.72 713.733 1437.93 713.633ZM1463.58 706.779L1461.38 706.5C1461.36 706.019 1461.25 705.585 1461.07 705.198C1460.88 704.812 1460.64 704.473 1460.34 704.182C1460.03 703.891 1459.68 703.656 1459.29 703.477C1458.9 703.298 1458.47 703.178 1458.01 703.12C1457.18 703.014 1456.41 703.129 1455.7 703.464C1454.99 703.799 1454.39 704.346 1453.91 705.106C1453.43 705.866 1453.12 706.827 1452.97 707.992C1452.82 709.166 1452.88 710.182 1453.16 711.038C1453.43 711.894 1453.88 712.571 1454.48 713.068C1455.09 713.565 1455.8 713.864 1456.62 713.969C1457.08 714.027 1457.52 714.022 1457.94 713.952C1458.37 713.878 1458.77 713.74 1459.13 713.538C1459.5 713.336 1459.82 713.073 1460.09 712.75C1460.37 712.423 1460.59 712.035 1460.73 711.586L1462.93 711.872C1462.72 712.566 1462.41 713.191 1462 713.745C1461.59 714.294 1461.09 714.751 1460.51 715.117C1459.94 715.478 1459.3 715.733 1458.6 715.882C1457.9 716.032 1457.15 716.056 1456.35 715.955C1455.1 715.796 1454.03 715.359 1453.13 714.643C1452.23 713.922 1451.56 712.971 1451.14 711.791C1450.72 710.611 1450.61 709.254 1450.81 707.718C1451 706.177 1451.45 704.891 1452.16 703.859C1452.86 702.822 1453.74 702.07 1454.79 701.602C1455.85 701.13 1457 700.972 1458.24 701.13C1459.01 701.228 1459.71 701.429 1460.34 701.734C1460.98 702.035 1461.54 702.431 1462.01 702.922C1462.49 703.407 1462.87 703.975 1463.14 704.625C1463.41 705.271 1463.56 705.989 1463.58 706.779ZM1464.78 716.826L1466.15 706.004L1468.19 706.263L1467.97 707.982L1468.08 707.995C1468.35 707.438 1468.76 707.025 1469.3 706.755C1469.85 706.481 1470.44 706.384 1471.07 706.465C1471.2 706.482 1471.36 706.506 1471.53 706.538C1471.71 706.571 1471.86 706.601 1471.96 706.628L1471.7 708.643C1471.62 708.609 1471.47 708.564 1471.26 708.508C1471.05 708.448 1470.84 708.403 1470.62 708.375C1470.12 708.312 1469.66 708.361 1469.25 708.523C1468.84 708.681 1468.49 708.931 1468.22 709.273C1467.95 709.611 1467.78 710.014 1467.72 710.484L1466.88 717.094L1464.78 716.826ZM1473.54 722.064C1473.22 722.024 1472.94 721.962 1472.69 721.877C1472.43 721.797 1472.25 721.72 1472.13 721.648L1472.85 719.987C1473.23 720.139 1473.56 720.228 1473.87 720.252C1474.17 720.276 1474.45 720.197 1474.71 720.015C1474.97 719.833 1475.22 719.513 1475.46 719.057L1475.81 718.372L1473.24 706.906L1475.5 707.193L1477.17 715.94L1477.28 715.953L1481.09 707.904L1483.35 708.192L1477.33 719.891C1477.06 720.428 1476.73 720.872 1476.36 721.221C1475.99 721.575 1475.58 721.822 1475.11 721.963C1474.64 722.105 1474.12 722.138 1473.54 722.064ZM1483.44 723.323L1485.33 708.443L1487.39 708.706L1487.17 710.46L1487.34 710.482C1487.49 710.273 1487.7 710.034 1487.97 709.768C1488.24 709.501 1488.59 709.283 1489.03 709.114C1489.47 708.941 1490.02 708.897 1490.69 708.982C1491.57 709.094 1492.32 709.414 1492.95 709.942C1493.58 710.471 1494.03 711.176 1494.32 712.057C1494.61 712.938 1494.68 713.964 1494.53 715.133C1494.38 716.303 1494.06 717.281 1493.56 718.068C1493.06 718.849 1492.45 719.421 1491.71 719.786C1490.97 720.145 1490.17 720.27 1489.29 720.159C1488.63 720.076 1488.11 719.896 1487.72 719.622C1487.34 719.349 1487.04 719.05 1486.85 718.724C1486.65 718.398 1486.5 718.112 1486.4 717.866L1486.28 717.849L1485.55 723.591L1483.44 723.323ZM1486.71 714.117C1486.61 714.877 1486.64 715.559 1486.79 716.161C1486.93 716.762 1487.2 717.251 1487.57 717.628C1487.95 718.001 1488.44 718.225 1489.05 718.302C1489.68 718.382 1490.23 718.283 1490.69 718.003C1491.16 717.719 1491.53 717.3 1491.82 716.75C1492.12 716.201 1492.31 715.564 1492.4 714.841C1492.49 714.127 1492.47 713.473 1492.32 712.877C1492.18 712.282 1491.92 711.793 1491.54 711.409C1491.16 711.027 1490.65 710.795 1490.01 710.715C1489.4 710.637 1488.87 710.729 1488.4 710.99C1487.95 711.251 1487.57 711.649 1487.28 712.185C1487 712.721 1486.81 713.365 1486.71 714.117ZM1502.63 710.643L1502.42 712.335L1496.5 711.583L1496.72 709.892L1502.63 710.643ZM1498.63 707.5L1500.74 707.768L1499.44 718.005C1499.39 718.414 1499.41 718.73 1499.5 718.953C1499.6 719.17 1499.74 719.328 1499.92 719.427C1500.11 719.523 1500.32 719.586 1500.55 719.616C1500.72 719.637 1500.87 719.644 1501 719.637C1501.13 719.629 1501.23 719.622 1501.3 719.617L1501.46 721.406C1501.33 721.437 1501.15 721.463 1500.92 721.481C1500.69 721.504 1500.41 721.497 1500.07 721.458C1499.51 721.397 1499.01 721.233 1498.55 720.965C1498.1 720.698 1497.75 720.329 1497.51 719.859C1497.27 719.389 1497.19 718.827 1497.28 718.174L1498.63 707.5ZM1508 722.546C1506.98 722.417 1506.13 722.071 1505.43 721.51C1504.73 720.948 1504.23 720.224 1503.92 719.335C1503.61 718.446 1503.52 717.441 1503.66 716.323C1503.81 715.201 1504.14 714.246 1504.67 713.458C1505.19 712.67 1505.86 712.093 1506.68 711.724C1507.49 711.356 1508.41 711.236 1509.42 711.365C1510.44 711.494 1511.29 711.839 1511.99 712.4C1512.69 712.961 1513.19 713.689 1513.5 714.583C1513.81 715.477 1513.9 716.484 1513.75 717.607C1513.61 718.725 1513.28 719.675 1512.75 720.458C1512.23 721.241 1511.56 721.817 1510.74 722.185C1509.93 722.554 1509.01 722.675 1508 722.546ZM1508.23 720.779C1508.89 720.862 1509.46 720.758 1509.93 720.465C1510.41 720.172 1510.79 719.749 1511.07 719.198C1511.35 718.647 1511.54 718.025 1511.63 717.33C1511.71 716.64 1511.69 715.992 1511.55 715.387C1511.42 714.779 1511.16 714.27 1510.77 713.862C1510.38 713.455 1509.86 713.211 1509.2 713.127C1508.54 713.043 1507.97 713.148 1507.49 713.445C1507.01 713.742 1506.63 714.169 1506.34 714.724C1506.06 715.276 1505.88 715.897 1505.79 716.588C1505.7 717.283 1505.73 717.932 1505.86 718.536C1506 719.14 1506.26 719.645 1506.65 720.047C1507.04 720.451 1507.57 720.694 1508.23 720.779Z" fill="white"/>
<path d="M1399.39 762.944L1397.08 762.65L1404.11 748.881L1406.63 749.201L1409.98 764.291L1407.67 763.997L1405.1 751.67L1404.98 751.656L1399.39 762.944ZM1400.5 757.343L1408 758.296L1407.76 760.128L1400.27 759.175L1400.5 757.343ZM1413.65 750.095L1416.17 762.358L1416.34 762.378L1421.85 751.137L1424.2 751.437L1417.17 765.205L1414.66 764.885L1411.3 749.796L1413.65 750.095ZM1424.2 766.099L1421.88 765.805L1428.91 752.036L1431.43 752.356L1434.78 767.446L1432.47 767.152L1429.9 754.825L1429.78 754.81L1424.2 766.099ZM1425.3 760.497L1432.8 761.451L1432.56 763.283L1425.07 762.329L1425.3 760.497ZM1440.22 753.474L1442.95 759.557L1443.07 759.571L1447.24 754.367L1449.76 754.688L1444.35 761.331L1447.95 769.121L1445.41 768.798L1442.66 762.791L1442.54 762.777L1438.37 767.902L1435.83 767.579L1441.35 760.95L1437.7 753.153L1440.22 753.474Z" fill="white"/>
<path d="M1489.02 775.717L1489.22 774.139L1494.74 769.702C1495.34 769.218 1495.83 768.792 1496.22 768.421C1496.61 768.047 1496.92 767.683 1497.14 767.328C1497.35 766.974 1497.49 766.586 1497.54 766.163C1497.6 765.684 1497.54 765.256 1497.36 764.88C1497.18 764.499 1496.91 764.19 1496.54 763.952C1496.18 763.71 1495.75 763.558 1495.26 763.496C1494.75 763.43 1494.28 763.478 1493.87 763.641C1493.46 763.803 1493.12 764.064 1492.87 764.423C1492.61 764.781 1492.45 765.219 1492.39 765.736L1490.31 765.471C1490.42 764.593 1490.72 763.851 1491.21 763.245C1491.69 762.638 1492.31 762.199 1493.06 761.927C1493.81 761.651 1494.64 761.569 1495.54 761.683C1496.44 761.799 1497.22 762.081 1497.86 762.531C1498.51 762.976 1498.99 763.533 1499.3 764.203C1499.61 764.868 1499.72 765.588 1499.62 766.363C1499.55 766.898 1499.39 767.409 1499.12 767.896C1498.86 768.382 1498.44 768.909 1497.87 769.476C1497.29 770.038 1496.51 770.709 1495.52 771.49L1492.27 774.126L1492.26 774.232L1498.75 775.058L1498.52 776.926L1489.02 775.717ZM1506.18 778.102C1505.22 777.978 1504.37 777.702 1503.65 777.271C1502.94 776.842 1502.4 776.303 1502.03 775.655C1501.67 775.003 1501.53 774.283 1501.59 773.494L1503.81 773.775C1503.78 774.206 1503.88 774.596 1504.09 774.943C1504.32 775.287 1504.63 775.57 1505.03 775.793C1505.43 776.016 1505.89 776.16 1506.41 776.226C1506.98 776.298 1507.49 776.263 1507.95 776.121C1508.42 775.98 1508.8 775.75 1509.09 775.429C1509.39 775.104 1509.57 774.708 1509.62 774.243C1509.69 773.76 1509.62 773.319 1509.41 772.921C1509.22 772.519 1508.89 772.182 1508.45 771.91C1508 771.639 1507.45 771.461 1506.78 771.376L1505.56 771.221L1505.79 769.446L1507.01 769.601C1507.54 769.669 1508.02 769.632 1508.45 769.491C1508.89 769.35 1509.24 769.123 1509.51 768.81C1509.79 768.491 1509.95 768.1 1510.01 767.635C1510.07 767.188 1510.02 766.788 1509.86 766.434C1509.7 766.075 1509.46 765.779 1509.11 765.544C1508.78 765.31 1508.36 765.162 1507.87 765.099C1507.4 765.039 1506.95 765.07 1506.52 765.192C1506.09 765.31 1505.73 765.512 1505.44 765.799C1505.14 766.082 1504.96 766.443 1504.88 766.882L1502.78 766.614C1502.9 765.837 1503.22 765.181 1503.73 764.644C1504.25 764.109 1504.89 763.72 1505.65 763.479C1506.42 763.237 1507.24 763.173 1508.13 763.285C1509.05 763.403 1509.83 763.685 1510.45 764.132C1511.08 764.575 1511.54 765.118 1511.83 765.761C1512.13 766.405 1512.23 767.081 1512.13 767.79C1512.04 768.598 1511.72 769.255 1511.2 769.761C1510.67 770.267 1510.02 770.569 1509.25 770.666L1509.23 770.779C1510.17 771.046 1510.87 771.521 1511.32 772.203C1511.77 772.886 1511.93 773.683 1511.81 774.594C1511.72 775.388 1511.41 776.071 1510.88 776.644C1510.36 777.217 1509.69 777.636 1508.88 777.9C1508.07 778.16 1507.17 778.227 1506.18 778.102ZM1514.95 779.152C1514.56 779.103 1514.25 778.924 1514 778.617C1513.76 778.304 1513.67 777.953 1513.72 777.563C1513.76 777.178 1513.95 776.867 1514.26 776.63C1514.57 776.388 1514.92 776.292 1515.3 776.341C1515.69 776.39 1516 776.57 1516.24 776.883C1516.49 777.19 1516.58 777.537 1516.53 777.922C1516.5 778.18 1516.41 778.409 1516.25 778.608C1516.09 778.804 1515.9 778.951 1515.67 779.051C1515.45 779.151 1515.2 779.185 1514.95 779.152ZM1523.53 780.308C1522.52 780.18 1521.65 779.892 1520.92 779.446C1520.19 779.001 1519.65 778.445 1519.29 777.779C1518.93 777.113 1518.81 776.39 1518.91 775.611C1518.98 775 1519.18 774.454 1519.5 773.974C1519.82 773.491 1520.23 773.105 1520.71 772.819C1521.2 772.527 1521.72 772.369 1522.28 772.345L1522.29 772.26C1521.59 771.995 1521.06 771.536 1520.71 770.885C1520.35 770.233 1520.22 769.521 1520.33 768.746C1520.42 768.008 1520.69 767.375 1521.16 766.848C1521.64 766.316 1522.24 765.928 1522.98 765.683C1523.72 765.438 1524.53 765.372 1525.42 765.485C1526.3 765.596 1527.06 765.865 1527.71 766.291C1528.36 766.713 1528.85 767.241 1529.17 767.874C1529.5 768.502 1529.62 769.183 1529.53 769.917C1529.43 770.691 1529.12 771.349 1528.6 771.89C1528.09 772.431 1527.47 772.743 1526.75 772.828L1526.74 772.913C1527.27 773.075 1527.73 773.358 1528.12 773.761C1528.51 774.159 1528.8 774.633 1528.99 775.183C1529.19 775.728 1529.26 776.306 1529.18 776.917C1529.08 777.697 1528.77 778.364 1528.25 778.919C1527.74 779.474 1527.07 779.876 1526.25 780.125C1525.44 780.374 1524.53 780.436 1523.53 780.308ZM1523.76 778.526C1524.35 778.602 1524.88 778.569 1525.35 778.427C1525.81 778.281 1526.18 778.044 1526.47 777.718C1526.75 777.386 1526.93 776.979 1526.99 776.496C1527.05 775.993 1526.98 775.532 1526.77 775.114C1526.57 774.697 1526.26 774.35 1525.85 774.074C1525.44 773.797 1524.95 773.623 1524.39 773.552C1523.82 773.479 1523.3 773.525 1522.83 773.69C1522.36 773.855 1521.98 774.113 1521.68 774.466C1521.37 774.819 1521.19 775.247 1521.13 775.75C1521.07 776.234 1521.13 776.671 1521.32 777.062C1521.51 777.45 1521.82 777.773 1522.23 778.031C1522.65 778.284 1523.16 778.449 1523.76 778.526ZM1524.61 771.811C1525.09 771.872 1525.53 771.83 1525.92 771.685C1526.32 771.539 1526.65 771.309 1526.9 770.993C1527.16 770.677 1527.32 770.29 1527.38 769.83C1527.44 769.379 1527.38 768.97 1527.21 768.605C1527.05 768.241 1526.79 767.943 1526.44 767.713C1526.1 767.478 1525.68 767.329 1525.19 767.267C1524.69 767.204 1524.24 767.242 1523.84 767.382C1523.45 767.518 1523.13 767.742 1522.88 768.054C1522.63 768.366 1522.48 768.748 1522.42 769.199C1522.36 769.659 1522.41 770.074 1522.58 770.443C1522.75 770.813 1523.01 771.118 1523.35 771.358C1523.7 771.598 1524.12 771.749 1524.61 771.811ZM1535.95 781.889C1535.07 781.776 1534.3 781.506 1533.64 781.078C1532.98 780.646 1532.48 780.106 1532.14 779.456C1531.8 778.806 1531.66 778.097 1531.73 777.328L1533.84 777.596C1533.82 778.223 1534.03 778.768 1534.47 779.23C1534.92 779.693 1535.49 779.968 1536.19 780.057C1536.74 780.127 1537.25 780.063 1537.71 779.864C1538.17 779.66 1538.56 779.349 1538.86 778.929C1539.16 778.509 1539.35 778.011 1539.43 777.433C1539.5 776.846 1539.44 776.306 1539.25 775.814C1539.05 775.321 1538.75 774.915 1538.34 774.595C1537.93 774.276 1537.44 774.078 1536.86 774C1536.43 773.944 1535.98 773.964 1535.52 774.058C1535.06 774.152 1534.68 774.304 1534.37 774.513L1532.42 773.964L1534.15 766.796L1542.08 767.805L1541.85 769.672L1535.72 768.893L1534.75 772.872L1534.84 772.883C1535.15 772.646 1535.56 772.466 1536.04 772.342C1536.54 772.219 1537.05 772.191 1537.59 772.259C1538.47 772.371 1539.22 772.679 1539.85 773.185C1540.49 773.69 1540.96 774.33 1541.26 775.104C1541.57 775.873 1541.66 776.725 1541.54 777.659C1541.43 778.594 1541.11 779.401 1540.59 780.079C1540.07 780.758 1539.41 781.261 1538.61 781.589C1537.81 781.912 1536.92 782.012 1535.95 781.889ZM1547.74 785.021L1550.04 766.984L1551.19 767.131L1548.9 785.167L1547.74 785.021ZM1552.94 773.038C1552.95 772.361 1552.71 771.805 1552.21 771.37C1551.71 770.929 1551.05 770.656 1550.22 770.551C1549.63 770.476 1549.11 770.505 1548.65 770.638C1548.19 770.766 1547.83 770.977 1547.55 771.271C1547.27 771.56 1547.11 771.909 1547.05 772.318C1547.01 772.661 1547.05 772.967 1547.18 773.236C1547.31 773.506 1547.5 773.742 1547.74 773.945C1547.99 774.143 1548.26 774.318 1548.55 774.47C1548.84 774.616 1549.12 774.743 1549.4 774.849L1550.76 775.395C1551.2 775.566 1551.66 775.779 1552.12 776.033C1552.57 776.287 1552.99 776.598 1553.36 776.965C1553.74 777.332 1554.02 777.765 1554.22 778.262C1554.42 778.76 1554.47 779.333 1554.39 779.981C1554.29 780.798 1553.98 781.497 1553.48 782.077C1552.98 782.658 1552.31 783.081 1551.46 783.346C1550.62 783.611 1549.64 783.672 1548.51 783.529C1547.43 783.392 1546.52 783.101 1545.77 782.658C1545.03 782.215 1544.47 781.65 1544.11 780.964C1543.74 780.273 1543.59 779.49 1543.65 778.615L1545.84 778.893C1545.81 779.42 1545.93 779.876 1546.18 780.261C1546.44 780.642 1546.79 780.947 1547.23 781.175C1547.68 781.399 1548.18 781.547 1548.74 781.618C1549.36 781.696 1549.92 781.669 1550.42 781.538C1550.93 781.402 1551.34 781.178 1551.67 780.866C1551.99 780.549 1552.18 780.155 1552.24 779.686C1552.29 779.258 1552.21 778.893 1552.01 778.589C1551.8 778.286 1551.5 778.019 1551.11 777.788C1550.73 777.558 1550.28 777.342 1549.78 777.14L1548.14 776.458C1547.02 775.996 1546.17 775.417 1545.57 774.72C1544.97 774.024 1544.74 773.174 1544.87 772.169C1544.97 771.337 1545.29 770.64 1545.82 770.078C1546.35 769.515 1547.02 769.111 1547.84 768.866C1548.65 768.617 1549.54 768.553 1550.51 768.676C1551.49 768.801 1552.33 769.082 1553.03 769.52C1553.74 769.958 1554.27 770.505 1554.63 771.162C1554.98 771.813 1555.12 772.528 1555.04 773.305L1552.94 773.038Z" fill="white"/>
<path d="M1701.41 794.688L1689.13 793.126L1689.43 790.805L1701.7 792.367L1701.41 794.688Z" fill="white"/>
<path d="M1659.14 734.231C1660.71 734.431 1662.15 733.319 1662.35 731.746C1662.55 730.174 1661.43 728.737 1659.86 728.537C1658.29 728.337 1656.85 729.449 1656.65 731.022C1656.45 732.594 1657.57 734.031 1659.14 734.231Z" fill="white"/>
<path d="M1667.34 735.274C1668.91 735.474 1670.35 734.362 1670.55 732.789C1670.75 731.217 1669.63 729.78 1668.06 729.58C1666.49 729.38 1665.05 730.492 1664.85 732.065C1664.65 733.637 1665.77 735.074 1667.34 735.274Z" fill="white"/>
<path d="M1658.1 742.425C1659.67 742.625 1661.11 741.513 1661.31 739.941C1661.51 738.368 1660.39 736.931 1658.82 736.731C1657.25 736.531 1655.81 737.644 1655.61 739.216C1655.41 740.789 1656.53 742.225 1658.1 742.425Z" fill="white"/>
<path d="M1666.29 743.468C1667.86 743.668 1669.3 742.556 1669.5 740.983C1669.7 739.411 1668.58 737.974 1667.01 737.774C1665.44 737.574 1664 738.687 1663.8 740.259C1663.6 741.832 1664.72 743.268 1666.29 743.468Z" fill="white"/>
<path d="M1381.15 733.406L1354.36 729.999C1350.53 729.511 1347.02 732.224 1346.54 736.059L1343.13 762.843C1342.64 766.679 1345.36 770.183 1349.19 770.671L1375.97 774.078C1379.81 774.566 1383.31 771.852 1383.8 768.017L1387.21 741.233C1387.7 737.398 1384.98 733.894 1381.15 733.406Z" fill="white"/>
<path d="M1373.34 744.809L1358.64 742.939L1356.94 756.308L1371.64 758.178L1373.34 744.809Z" fill="white"/>
<path fill-rule="evenodd" clip-rule="evenodd" d="M1376.9 753.214C1376.06 759.784 1370.06 764.432 1363.49 763.596C1356.92 762.761 1352.27 756.757 1353.1 750.187C1353.94 743.617 1359.94 738.968 1366.51 739.804C1373.08 740.64 1377.73 746.644 1376.9 753.214ZM1361.03 756.006L1358.72 755.712C1358.23 755.65 1357.99 755.62 1357.86 755.508C1357.71 755.385 1357.64 755.203 1357.65 755.015C1357.66 754.841 1357.81 754.646 1358.1 754.256L1365.08 744.933C1365.38 744.537 1365.53 744.34 1365.69 744.28C1365.87 744.217 1366.07 744.242 1366.23 744.348C1366.37 744.447 1366.47 744.676 1366.66 745.133L1367.57 747.328V747.339C1367.78 747.83 1367.88 748.079 1367.91 748.33C1367.94 748.604 1367.9 748.885 1367.8 749.143C1367.71 749.381 1367.55 749.598 1367.23 750.029L1363.56 754.941L1363.55 754.953C1363.23 755.381 1363.06 755.598 1362.86 755.751C1362.63 755.918 1362.37 756.028 1362.09 756.073C1361.84 756.109 1361.57 756.075 1361.03 756.006ZM1366.86 756.747L1370.17 757.168C1370.65 757.23 1370.9 757.261 1371.06 757.184C1371.23 757.101 1371.35 756.942 1371.38 756.756C1371.41 756.59 1371.32 756.373 1371.14 755.947C1371.13 755.933 1371.13 755.918 1371.12 755.903L1369.83 752.857L1369.81 752.823C1369.63 752.4 1369.54 752.186 1369.39 752.09C1369.24 751.984 1369.04 751.959 1368.87 752.023C1368.7 752.082 1368.55 752.274 1368.26 752.661L1366.25 755.286L1366.24 755.295C1365.95 755.681 1365.8 755.874 1365.79 756.047C1365.77 756.235 1365.85 756.42 1365.99 756.542C1366.12 756.654 1366.37 756.685 1366.86 756.747Z" fill="#E84142"/>
<path d="M1381.08 733.901L1354.3 730.494C1350.74 730.041 1347.48 732.561 1347.03 736.122L1343.62 762.906C1343.17 766.467 1345.69 769.721 1349.25 770.174L1376.03 773.581C1379.6 774.034 1382.85 771.515 1383.3 767.954L1386.71 741.169C1387.16 737.608 1384.64 734.354 1381.08 733.901Z" stroke="black" stroke-opacity="0.08"/>
<path d="M1156.25 695.214C1156.25 695.214 1193.5 709 1238.5 718.5C1283.5 728 1321.93 723.711 1321.93 723.711" stroke="url(#paint0_linear_34_76)" stroke-width="3" stroke-dasharray="2 2"/>
<path d="M1537.64 673.583C1537.64 673.583 1588.48 509 1619 324C1649.52 139 1649.52 -31.2354 1649.52 -31.2354" stroke="url(#paint1_linear_34_76)" stroke-width="3" stroke-dasharray="2 2"/>
<path d="M1742.52 699.798L1332.03 649.396L1313.28 802.088L1723.77 852.489L1742.52 699.798Z" stroke="#0090FF" stroke-width="2"/>
<path d="M1337.58 645.347L1328.65 644.25L1327.55 653.183L1336.49 654.28L1337.58 645.347Z" fill="white" stroke="#0090FF"/>
<path d="M1748.58 694.347L1739.65 693.25L1738.55 702.183L1747.49 703.28L1748.58 694.347Z" fill="white" stroke="#0090FF"/>
<path d="M1728.58 848.347L1719.65 847.25L1718.55 856.183L1727.49 857.28L1728.58 848.347Z" fill="white" stroke="#0090FF"/>
<g filter="url(#filter0_d_34_76)">
<path d="M1700.39 740.062L1716.83 750.992L1707.93 752.812L1702.04 759.732L1700.39 740.062Z" fill="black"/>
<path d="M1702.64 757.856L1701.27 741.561L1714.89 750.616L1707.77 752.071L1707.52 752.124L1707.35 752.323L1702.64 757.856Z" stroke="white" stroke-width="1.51416"/>
</g>
<path d="M1318.58 798.346L1309.65 797.249L1308.55 806.182L1317.49 807.279L1318.58 798.346Z" fill="white" stroke="#0090FF"/>
<path d="M534.19 637.402L534.904 644.367L533.099 644.551L532.384 637.586L526.006 638.236L525.813 636.431L532.201 635.779L531.51 629.002L533.315 628.818L534.006 635.594L540.394 634.943L540.578 636.75L534.19 637.402Z" fill="white"/>
<path d="M499.088 700.519C496.52 700.781 493.642 700.058 490.789 698.424C488.648 697.206 487.271 695.922 487.218 695.867C486.981 695.645 486.939 695.286 487.124 695.021C487.17 694.956 488.261 693.419 490.111 691.793C492.583 689.617 495.25 688.328 497.818 688.067C500.395 687.803 503.263 688.528 506.127 690.159C508.258 691.38 509.634 692.665 509.698 692.717C509.924 692.94 509.967 693.3 509.782 693.565C509.735 693.63 508.645 695.167 506.804 696.791C504.332 698.966 501.665 700.255 499.088 700.519ZM488.545 695.304C489.092 695.761 490.129 696.555 491.454 697.312C493.276 698.349 496.063 699.519 498.961 699.224C501.85 698.93 504.337 697.22 505.916 695.837C507.067 694.828 507.916 693.84 508.361 693.282C507.813 692.825 506.777 692.031 505.451 691.274C503.63 690.238 500.852 689.064 497.954 689.359C495.056 689.656 492.568 691.366 490.99 692.749C489.839 693.758 488.99 694.746 488.545 695.304Z" fill="white"/>
<path d="M498.791 697.561C496.986 697.745 495.366 696.429 495.183 694.627C495.001 692.825 496.319 691.207 498.125 691.023C499.92 690.841 501.54 692.157 501.722 693.96C501.904 695.762 500.586 697.379 498.791 697.561Z" fill="white"/>
<path d="M184.328 678.591L182.857 664.12L191.932 663.193L192.122 665.073L185.233 665.776L185.682 670.185L192.1 669.53L192.289 671.403L185.871 672.058L186.324 676.488L193.294 675.777L193.494 677.654L184.328 678.591ZM196.713 666.362L199.537 670.343L201.527 665.87L203.833 665.635L201.005 671.406L204.967 676.485L202.66 676.72L199.805 672.913L197.776 677.218L195.46 677.455L198.288 671.683L194.396 666.598L196.713 666.362ZM211.275 676.063C210.222 676.171 209.295 676.025 208.494 675.625C207.692 675.222 207.039 674.62 206.555 673.817C206.061 673.016 205.759 672.07 205.65 670.982C205.538 669.88 205.646 668.886 205.974 668C206.301 667.111 206.811 666.391 207.524 665.836C208.228 665.284 209.086 664.957 210.109 664.852C210.931 664.769 211.688 664.846 212.36 665.087C213.041 665.321 213.6 665.693 214.056 666.198C214.512 666.704 214.809 667.319 214.966 668.04L212.91 668.25C212.743 667.752 212.442 667.341 211.997 667.015C211.562 666.688 210.998 666.561 210.326 666.629C209.744 666.687 209.239 666.897 208.829 667.253C208.418 667.605 208.127 668.076 207.936 668.672C207.755 669.261 207.698 669.943 207.775 670.716C207.856 671.507 208.043 672.179 208.345 672.728C208.647 673.277 209.03 673.688 209.503 673.958C209.977 674.229 210.514 674.333 211.106 674.274C211.507 674.233 211.861 674.123 212.179 673.943C212.485 673.759 212.747 673.516 212.934 673.217C213.131 672.915 213.255 672.565 213.306 672.165L215.362 671.955C215.362 672.663 215.195 673.314 214.87 673.904C214.545 674.494 214.073 674.981 213.473 675.36C212.863 675.741 212.137 675.975 211.275 676.063ZM219.425 668.499L220.08 674.944L217.974 675.158L216.493 660.689L218.578 660.476L219.13 665.86L219.261 665.847C219.458 665.236 219.803 664.731 220.286 664.336C220.778 663.937 221.441 663.696 222.283 663.61C223.026 663.535 223.693 663.622 224.284 663.869C224.876 664.119 225.351 664.532 225.721 665.108C226.09 665.68 226.323 666.418 226.42 667.321L227.12 674.225L225.014 674.439L224.332 667.792C224.25 666.996 223.979 666.401 223.527 666.004C223.074 665.602 222.482 665.438 221.75 665.514C221.249 665.565 220.812 665.716 220.439 665.968C220.067 666.221 219.797 666.562 219.61 666.995C219.432 667.423 219.364 667.925 219.425 668.499ZM233.122 673.856C232.44 673.925 231.799 673.862 231.219 673.664C230.638 673.461 230.162 673.132 229.788 672.674C229.415 672.218 229.188 671.635 229.115 670.924C229.055 670.311 229.12 669.795 229.32 669.375C229.51 668.956 229.799 668.609 230.177 668.338C230.556 668.065 230.987 667.845 231.462 667.679C231.946 667.51 232.447 667.368 232.954 667.255C233.589 667.114 234.116 666.998 234.517 666.909C234.916 666.816 235.198 666.705 235.373 666.573C235.547 666.44 235.616 666.248 235.588 665.994L235.586 665.944C235.525 665.326 235.305 664.866 234.916 664.563C234.538 664.259 234.008 664.142 233.326 664.212C232.614 664.284 232.068 664.5 231.689 664.857C231.319 665.208 231.078 665.583 230.955 665.981L228.925 665.731C229.095 665.047 229.384 664.48 229.793 664.029C230.21 663.572 230.704 663.222 231.283 662.977C231.852 662.73 232.472 662.57 233.124 662.504C233.555 662.46 234.019 662.466 234.514 662.52C235.018 662.568 235.491 662.706 235.944 662.93C236.396 663.156 236.785 663.505 237.11 663.975C237.434 664.442 237.642 665.07 237.723 665.862L238.452 673.07L236.396 673.278L236.237 671.797L236.157 671.804C236.049 672.091 235.87 672.381 235.619 672.673C235.379 672.964 235.048 673.219 234.637 673.437C234.225 673.655 233.724 673.794 233.122 673.856ZM233.405 672.113C233.997 672.053 234.482 671.887 234.87 671.614C235.269 671.34 235.56 671.005 235.736 670.611C235.92 670.212 235.988 669.798 235.941 669.371L235.8 667.971C235.737 668.053 235.593 668.14 235.388 668.227C235.181 668.31 234.943 668.389 234.673 668.464C234.402 668.535 234.14 668.602 233.888 668.666C233.635 668.725 233.42 668.775 233.245 668.817C232.836 668.912 232.475 669.036 232.152 669.192C231.829 669.349 231.579 669.553 231.401 669.804C231.222 670.052 231.151 670.364 231.197 670.738C231.247 671.263 231.478 671.639 231.891 671.869C232.302 672.094 232.814 672.174 233.405 672.113ZM242.722 666.123L243.386 672.565L241.27 672.782L240.166 661.928L242.192 661.721L242.367 663.49L242.507 663.475C242.696 662.874 243.042 662.373 243.533 661.971C244.035 661.568 244.697 661.323 245.509 661.241C246.252 661.165 246.909 661.255 247.502 661.509C248.084 661.76 248.569 662.171 248.929 662.749C249.299 663.324 249.531 664.06 249.626 664.954L250.326 671.858L248.21 672.074L247.538 665.424C247.458 664.638 247.187 664.045 246.735 663.643C246.281 663.237 245.688 663.072 244.976 663.145C244.485 663.195 244.058 663.345 243.705 663.595C243.343 663.846 243.083 664.187 242.896 664.62C242.728 665.046 242.67 665.546 242.722 666.123ZM258.15 675.4C257.288 675.489 256.53 675.452 255.886 675.289C255.253 675.124 254.713 674.878 254.287 674.545C253.86 674.212 253.526 673.835 253.284 673.412L255.028 672.477C255.176 672.671 255.366 672.873 255.6 673.083C255.844 673.296 256.151 673.467 256.54 673.594C256.929 673.721 257.409 673.756 258.001 673.695C258.793 673.614 259.44 673.35 259.922 672.907C260.405 672.467 260.605 671.823 260.52 670.974L260.302 668.841L260.162 668.856C260.064 669.099 259.902 669.375 259.696 669.681C259.491 669.988 259.186 670.267 258.792 670.516C258.398 670.766 257.87 670.924 257.209 670.992C256.346 671.08 255.558 670.957 254.825 670.629C254.1 670.293 253.502 669.751 253.021 669.006C252.548 668.254 252.245 667.303 252.131 666.148C252.007 664.995 252.101 663.987 252.414 663.12C252.726 662.255 253.203 661.57 253.845 661.061C254.486 660.549 255.247 660.247 256.12 660.158C256.792 660.09 257.349 660.147 257.782 660.332C258.224 660.509 258.564 660.737 258.833 661.01C259.091 661.283 259.302 661.526 259.454 661.739L259.614 661.721L259.431 659.963L261.497 659.753L262.636 670.844C262.729 671.777 262.584 672.567 262.219 673.207C261.845 673.85 261.305 674.352 260.589 674.717C259.882 675.079 259.073 675.306 258.15 675.4ZM257.499 669.191C258.101 669.13 258.6 668.937 258.996 668.61C259.382 668.281 259.669 667.837 259.828 667.283C259.995 666.724 260.039 666.07 259.957 665.322C259.89 664.59 259.713 663.959 259.445 663.424C259.167 662.891 258.807 662.49 258.354 662.222C257.901 661.95 257.364 661.846 256.752 661.907C256.12 661.971 255.606 662.19 255.21 662.564C254.823 662.931 254.544 663.408 254.382 663.992C254.229 664.573 254.192 665.209 254.261 665.902C254.334 666.614 254.507 667.226 254.78 667.741C255.044 668.258 255.411 668.643 255.861 668.902C256.321 669.16 256.867 669.256 257.499 669.191ZM270.143 670.058C269.07 670.167 268.125 670.033 267.308 669.655C266.49 669.272 265.83 668.685 265.328 667.893C264.825 667.098 264.52 666.136 264.402 665.012C264.297 663.897 264.404 662.896 264.731 662.006C265.058 661.117 265.578 660.395 266.282 659.842C266.985 659.29 267.843 658.962 268.846 658.861C269.458 658.798 270.062 658.838 270.66 658.982C271.258 659.125 271.803 659.392 272.303 659.779C272.804 660.165 273.224 660.691 273.553 661.358C273.891 662.017 274.112 662.839 274.208 663.825L274.289 664.573L265.655 665.455L265.493 663.871L272.051 663.202C271.994 662.647 271.831 662.166 271.562 661.761C271.292 661.35 270.943 661.04 270.505 660.833C270.077 660.624 269.587 660.548 269.036 660.605C268.444 660.665 267.946 660.862 267.531 661.2C267.126 661.531 266.821 661.944 266.627 662.434C266.442 662.92 266.376 663.433 266.43 663.975L266.553 665.212C266.629 665.938 266.821 666.541 267.128 667.024C267.435 667.507 267.835 667.859 268.328 668.079C268.81 668.298 269.362 668.375 269.983 668.311C270.384 668.27 270.743 668.176 271.058 668.03C271.381 667.877 271.643 667.676 271.86 667.42C272.078 667.164 272.233 666.86 272.326 666.508L274.364 666.664C274.259 667.27 274.026 667.815 273.656 668.3C273.295 668.78 272.812 669.174 272.216 669.482C271.619 669.787 270.935 669.977 270.143 670.058ZM293.577 657.579L291.371 657.805C291.243 657.341 291.038 656.944 290.775 656.608C290.502 656.275 290.192 655.999 289.834 655.783C289.466 655.57 289.072 655.419 288.651 655.333C288.231 655.247 287.785 655.228 287.324 655.276C286.492 655.36 285.767 655.646 285.152 656.133C284.536 656.62 284.075 657.288 283.779 658.137C283.484 658.986 283.399 659.993 283.517 661.162C283.636 662.339 283.924 663.314 284.391 664.085C284.847 664.858 285.439 665.415 286.136 665.764C286.842 666.11 287.602 666.241 288.424 666.158C288.885 666.111 289.313 666.005 289.706 665.842C290.108 665.673 290.467 665.448 290.772 665.17C291.086 664.889 291.338 664.561 291.528 664.185C291.727 663.803 291.854 663.375 291.888 662.906L294.096 662.688C294.049 663.412 293.888 664.09 293.614 664.722C293.339 665.35 292.955 665.908 292.473 666.396C291.999 666.876 291.434 667.269 290.785 667.573C290.138 667.877 289.412 668.07 288.61 668.153C287.357 668.281 286.216 668.097 285.177 667.603C284.137 667.105 283.269 666.33 282.593 665.275C281.917 664.221 281.503 662.924 281.351 661.383C281.187 659.839 281.335 658.484 281.793 657.318C282.24 656.15 282.927 655.218 283.844 654.525C284.77 653.825 285.854 653.412 287.098 653.286C287.87 653.207 288.597 653.244 289.28 653.399C289.972 653.547 290.607 653.805 291.175 654.177C291.753 654.541 292.251 655.008 292.661 655.581C293.07 656.149 293.379 656.814 293.577 657.579ZM297.019 667.094L295.905 656.243L297.951 656.034L298.126 657.758L298.236 657.747C298.373 657.143 298.679 656.647 299.144 656.262C299.617 655.871 300.17 655.643 300.802 655.579C300.932 655.566 301.094 655.553 301.267 655.546C301.449 655.538 301.602 655.533 301.706 655.536L301.908 657.558C301.823 657.543 301.666 657.533 301.449 657.526C301.231 657.515 301.017 657.52 300.796 657.542C300.295 657.594 299.858 657.746 299.495 657.996C299.131 658.243 298.847 658.566 298.661 658.96C298.475 659.35 298.4 659.781 298.448 660.253L299.125 666.88L297.019 667.094ZM306.737 670.215C306.416 670.248 306.129 670.251 305.866 670.225C305.595 670.206 305.402 670.173 305.269 670.13L305.595 668.348C305.999 668.41 306.341 668.422 306.648 668.375C306.946 668.331 307.201 668.19 307.413 667.954C307.625 667.718 307.796 667.351 307.927 666.853L308.113 666.106L303.016 655.518L305.282 655.286L308.887 663.429L308.998 663.417L310.888 654.714L313.154 654.483L309.937 667.241C309.795 667.825 309.574 668.332 309.293 668.756C309.013 669.184 308.669 669.518 308.243 669.761C307.817 670.006 307.318 670.156 306.737 670.215ZM316.665 669.203L315.14 654.281L317.206 654.07L317.388 655.828L317.559 655.811C317.658 655.574 317.808 655.294 318.011 654.973C318.214 654.652 318.505 654.361 318.896 654.097C319.285 653.829 319.811 653.661 320.483 653.593C321.365 653.503 322.168 653.645 322.901 654.016C323.635 654.389 324.232 654.974 324.714 655.767C325.196 656.559 325.496 657.543 325.615 658.715C325.733 659.889 325.643 660.914 325.334 661.794C325.023 662.668 324.559 663.364 323.921 663.887C323.281 664.404 322.53 664.706 321.647 664.796C320.986 664.865 320.439 664.808 319.997 664.63C319.565 664.45 319.205 664.225 318.946 663.951C318.678 663.678 318.467 663.434 318.314 663.217L318.193 663.228L318.781 668.986L316.665 669.203ZM317.768 659.496C317.842 660.259 318.026 660.915 318.308 661.468C318.58 662.021 318.954 662.437 319.399 662.72C319.854 662.998 320.382 663.106 320.994 663.043C321.626 662.978 322.139 662.756 322.523 662.38C322.917 661.997 323.183 661.506 323.341 660.905C323.509 660.302 323.55 659.638 323.474 658.914C323.4 658.198 323.233 657.564 322.952 657.018C322.681 656.47 322.317 656.052 321.86 655.764C321.403 655.478 320.854 655.368 320.212 655.434C319.601 655.496 319.105 655.706 318.706 656.066C318.327 656.423 318.047 656.897 317.886 657.485C317.735 658.07 317.695 658.741 317.768 659.496ZM332.489 652.51L332.667 654.205L326.731 654.812L326.562 653.115L332.489 652.51ZM327.882 650.354L329.998 650.138L331.047 660.403C331.091 660.813 331.182 661.115 331.32 661.312C331.466 661.501 331.639 661.624 331.837 661.68C332.043 661.73 332.262 661.743 332.493 661.72C332.663 661.702 332.811 661.675 332.936 661.639C333.061 661.602 333.157 661.573 333.224 661.553L333.784 663.259C333.665 663.319 333.495 663.384 333.275 663.453C333.056 663.528 332.782 663.584 332.442 663.623C331.883 663.691 331.358 663.644 330.85 663.487C330.351 663.329 329.927 663.048 329.587 662.645C329.246 662.241 329.042 661.713 328.982 661.056L327.882 650.354ZM340.412 662.889C339.39 662.994 338.484 662.85 337.675 662.462C336.866 662.073 336.215 661.48 335.712 660.684C335.209 659.889 334.894 658.931 334.777 657.81C334.67 656.683 334.775 655.678 335.113 654.791C335.441 653.906 335.963 653.191 336.679 652.646C337.384 652.105 338.253 651.78 339.266 651.677C340.289 651.572 341.195 651.716 342.004 652.104C342.813 652.492 343.464 653.088 343.969 653.888C344.473 654.689 344.788 655.651 344.896 656.778C345.013 657.899 344.906 658.899 344.567 659.782C344.238 660.662 343.715 661.375 343 661.919C342.294 662.461 341.425 662.786 340.412 662.889ZM340.237 661.116C340.898 661.048 341.43 660.817 341.822 660.426C342.223 660.032 342.498 659.535 342.646 658.934C342.794 658.334 342.838 657.685 342.768 656.987C342.69 656.297 342.524 655.67 342.251 655.113C341.987 654.55 341.619 654.114 341.146 653.805C340.674 653.496 340.112 653.375 339.451 653.443C338.789 653.51 338.257 653.743 337.857 654.14C337.457 654.538 337.183 655.04 337.026 655.646C336.878 656.247 336.843 656.892 336.912 657.586C336.982 658.283 337.158 658.909 337.421 659.468C337.694 660.025 338.061 660.457 338.532 660.76C339.003 661.066 339.575 661.182 340.237 661.116Z" fill="white"/>
<path d="M545.128 689.411L532.813 690.667L532.58 688.338L544.886 687.084L545.128 689.411Z" fill="white"/>
<path d="M490.276 640.083C491.853 639.922 493.001 638.514 492.84 636.937C492.679 635.36 491.27 634.212 489.693 634.373C488.116 634.534 486.969 635.942 487.129 637.519C487.29 639.096 488.699 640.244 490.276 640.083Z" fill="white"/>
<path d="M498.499 639.244C500.076 639.083 501.224 637.675 501.063 636.098C500.902 634.521 499.494 633.373 497.917 633.534C496.34 633.695 495.192 635.103 495.353 636.68C495.514 638.257 496.922 639.405 498.499 639.244Z" fill="white"/>
<path d="M491.116 648.301C492.693 648.14 493.841 646.731 493.68 645.154C493.519 643.578 492.111 642.43 490.534 642.591C488.957 642.751 487.809 644.16 487.97 645.737C488.131 647.314 489.54 648.462 491.116 648.301Z" fill="white"/>
<path d="M499.33 647.464C500.907 647.303 502.055 645.894 501.894 644.318C501.733 642.741 500.324 641.593 498.748 641.754C497.171 641.915 496.023 643.323 496.184 644.9C496.344 646.477 497.753 647.625 499.33 647.464Z" fill="white"/>
<path d="M219.305 702.164L192.445 704.904C188.599 705.296 185.799 708.732 186.191 712.578L188.931 739.439C189.324 743.285 192.76 746.085 196.606 745.692L223.466 742.952C227.312 742.56 230.112 739.124 229.72 735.278L226.98 708.417C226.587 704.571 223.151 701.771 219.305 702.164Z" fill="white"/>
<path d="M219.353 702.661L192.493 705.401C188.921 705.765 186.322 708.956 186.686 712.527L189.426 739.388C189.79 742.959 192.981 745.559 196.552 745.194L223.413 742.454C226.984 742.09 229.584 738.9 229.22 735.328L226.48 708.468C226.115 704.896 222.925 702.297 219.353 702.661Z" stroke="black" stroke-opacity="0.08"/>
<path d="M563.703 587.682L152.457 631.443L168.735 784.418L579.981 740.656L563.703 587.682Z" stroke="#0090FF" stroke-width="2"/>
<path d="M156.949 626.242L148 627.194L148.952 636.144L157.902 635.191L156.949 626.242Z" fill="white" stroke="#0090FF"/>
<path d="M568.38 581L559.431 581.952L560.383 590.902L569.332 589.949L568.38 581Z" fill="white" stroke="#0090FF"/>
<path d="M583.735 735.532L574.785 736.484L575.738 745.434L584.687 744.482L583.735 735.532Z" fill="white" stroke="#0090FF"/>
<g filter="url(#filter1_d_34_76)">
<path d="M531.778 636.432L550.264 643.359L542.007 647.146L537.835 655.218L531.778 636.432Z" fill="black"/>
<path d="M537.995 653.254L532.974 637.691L548.289 643.431L541.683 646.459L541.452 646.567L541.331 646.799L537.995 653.254Z" stroke="white" stroke-width="1.51416"/>
</g>
<path d="M173.052 779.573L164.103 780.525L165.055 789.475L174.004 788.523L173.052 779.573Z" fill="white" stroke="#0090FF"/>
<path d="M343.081 610.312C343.081 610.312 276.5 459 241 300C205.5 141 194.542 -8.65039 194.542 -8.65039" stroke="url(#paint2_linear_34_76)" stroke-width="3" stroke-dasharray="2 2"/>
<path d="M717 621C717 621 696 636.5 655.5 650C615 663.5 574 666.923 574 666.923" stroke="url(#paint3_linear_34_76)" stroke-width="3" stroke-dasharray="2 2"/>
<path d="M240.017 713.274L242.674 713.018L248.378 723.855L248.549 723.839L252.085 712.114L254.742 711.859L256.136 726.371L254.053 726.571L253.044 716.069L252.909 716.082L249.636 726.974L247.907 727.14L242.62 717.064L242.485 717.077L243.495 727.585L241.412 727.786L240.017 713.274Z" fill="white"/>
<path d="M260.346 725.966L258.022 726.19L261.85 711.176L264.379 710.933L270.996 724.943L268.672 725.166L263.428 713.684L263.315 713.695L260.346 725.966ZM260.19 720.246L267.729 719.521L267.906 721.364L260.367 722.088L260.19 720.246Z" fill="white"/>
<path d="M269.248 712.367L269.067 710.482L280.299 709.403L280.48 711.288L275.952 711.723L277.165 724.35L274.983 724.56L273.769 711.932L269.248 712.367Z" fill="white"/>
<path d="M284.77 708.973L286.165 723.485L283.975 723.696L282.581 709.183L284.77 708.973Z" fill="white"/>
<path d="M300.266 712.247L298.056 712.459C297.925 711.995 297.727 711.595 297.461 711.258C297.195 710.921 296.882 710.643 296.523 710.425C296.163 710.207 295.77 710.054 295.342 709.967C294.918 709.879 294.475 709.857 294.012 709.901C293.176 709.982 292.448 710.264 291.827 710.748C291.21 711.231 290.75 711.898 290.446 712.747C290.146 713.596 290.052 714.606 290.165 715.778C290.278 716.959 290.563 717.937 291.019 718.714C291.48 719.489 292.061 720.053 292.762 720.405C293.463 720.758 294.227 720.894 295.054 720.814C295.512 720.77 295.941 720.667 296.34 720.505C296.743 720.337 297.101 720.115 297.413 719.837C297.725 719.559 297.979 719.232 298.177 718.855C298.378 718.474 298.502 718.047 298.547 717.575L300.759 717.37C300.709 718.095 300.543 718.773 300.261 719.406C299.982 720.033 299.6 720.59 299.112 721.075C298.629 721.556 298.061 721.946 297.409 722.247C296.756 722.548 296.03 722.737 295.232 722.814C293.975 722.935 292.827 722.745 291.787 722.244C290.747 721.738 289.89 720.956 289.216 719.895C288.547 718.834 288.138 717.532 287.989 715.987C287.84 714.437 287.996 713.08 288.456 711.916C288.916 710.746 289.608 709.817 290.534 709.127C291.459 708.433 292.547 708.025 293.799 707.905C294.569 707.831 295.298 707.873 295.985 708.031C296.677 708.184 297.31 708.447 297.885 708.821C298.459 709.19 298.95 709.663 299.358 710.239C299.766 710.81 300.069 711.479 300.266 712.247Z" fill="white"/>
<path d="M339.289 718.561C338.169 718.663 337.184 718.46 336.334 717.951C335.484 717.441 334.795 716.647 334.267 715.568C333.739 714.488 333.399 713.16 333.248 711.582C333.096 710.009 333.177 708.645 333.491 707.489C333.809 706.334 334.336 705.425 335.074 704.763C335.816 704.1 336.742 703.716 337.852 703.609C338.962 703.502 339.942 703.706 340.793 704.22C341.643 704.73 342.331 705.522 342.859 706.596C343.391 707.666 343.732 708.987 343.884 710.56C344.036 712.142 343.955 713.514 343.642 714.674C343.329 715.829 342.804 716.74 342.067 717.407C341.33 718.069 340.404 718.453 339.289 718.561ZM339.107 716.669C340.09 716.574 340.811 716.021 341.272 715.009C341.737 713.996 341.882 712.583 341.708 710.769C341.592 709.564 341.367 708.559 341.032 707.752C340.701 706.94 340.279 706.341 339.765 705.957C339.256 705.567 338.678 705.403 338.03 705.466C337.053 705.56 336.331 706.115 335.866 707.132C335.402 708.15 335.254 709.563 335.423 711.373C335.539 712.582 335.763 713.593 336.093 714.405C336.428 715.212 336.85 715.808 337.359 716.193C337.868 716.573 338.45 716.732 339.107 716.669Z" fill="white"/>
<path d="M347.805 717.635C347.418 717.672 347.072 717.567 346.767 717.32C346.461 717.068 346.29 716.746 346.252 716.354C346.215 715.966 346.322 715.622 346.575 715.322C346.827 715.016 347.146 714.845 347.534 714.808C347.921 714.77 348.268 714.878 348.573 715.13C348.878 715.377 349.049 715.694 349.086 716.081C349.111 716.341 349.068 716.586 348.957 716.816C348.85 717.041 348.696 717.227 348.496 717.375C348.295 717.523 348.065 717.61 347.805 717.635Z" fill="white"/>
<path d="M355.056 701.956C355.704 701.898 356.353 701.955 357.004 702.126C357.654 702.297 358.257 702.621 358.813 703.097C359.374 703.572 359.848 704.242 360.236 705.105C360.629 705.964 360.891 707.054 361.023 708.377C361.145 709.647 361.126 710.791 360.966 711.808C360.806 712.819 360.52 713.688 360.108 714.414C359.701 715.14 359.177 715.713 358.535 716.132C357.894 716.551 357.15 716.801 356.305 716.882C355.44 716.966 354.656 716.869 353.953 716.594C353.249 716.318 352.658 715.9 352.18 715.341C351.702 714.776 351.373 714.107 351.194 713.333L353.355 713.125C353.557 713.735 353.893 714.213 354.365 714.559C354.841 714.899 355.426 715.036 356.121 714.969C357.184 714.867 357.968 714.324 358.475 713.341C358.98 712.354 359.156 711.026 359 709.358L358.887 709.369C358.68 709.798 358.407 710.177 358.066 710.506C357.731 710.834 357.344 711.1 356.906 711.304C356.468 711.508 355.991 711.635 355.476 711.684C354.64 711.765 353.86 711.632 353.135 711.287C352.411 710.942 351.811 710.43 351.336 709.751C350.86 709.072 350.579 708.272 350.49 707.351C350.402 706.434 350.53 705.583 350.874 704.796C351.223 704.01 351.752 703.363 352.461 702.856C353.175 702.344 354.04 702.044 355.056 701.956ZM355.24 703.798C354.688 703.851 354.203 704.036 353.785 704.352C353.371 704.664 353.059 705.063 352.849 705.551C352.638 706.033 352.559 706.556 352.613 707.118C352.667 707.68 352.839 708.179 353.129 708.613C353.423 709.043 353.797 709.371 354.253 709.599C354.713 709.822 355.222 709.907 355.779 709.853C356.195 709.813 356.575 709.696 356.918 709.5C357.262 709.305 357.555 709.053 357.797 708.744C358.038 708.43 358.217 708.084 358.333 707.705C358.45 707.327 358.489 706.937 358.45 706.536C358.399 706.002 358.223 705.518 357.924 705.084C357.63 704.65 357.25 704.315 356.784 704.078C356.317 703.837 355.803 703.744 355.24 703.798Z" fill="white"/>
<path d="M369.202 715.643C368.229 715.737 367.343 715.652 366.546 715.391C365.753 715.128 365.106 714.721 364.605 714.168C364.108 713.611 363.805 712.939 363.696 712.153L365.921 711.939C365.991 712.366 366.171 712.726 366.461 713.017C366.755 713.304 367.123 713.511 367.565 713.641C368.006 713.77 368.487 713.81 369.007 713.76C369.578 713.705 370.074 713.557 370.494 713.316C370.919 713.075 371.24 712.765 371.456 712.387C371.672 712.004 371.758 711.579 371.713 711.111C371.666 710.624 371.5 710.209 371.214 709.865C370.932 709.515 370.543 709.257 370.045 709.09C369.552 708.923 368.971 708.871 368.3 708.936L367.074 709.054L366.902 707.268L368.128 707.15C368.667 707.099 369.13 706.956 369.518 706.724C369.91 706.49 370.205 706.19 370.404 705.823C370.602 705.451 370.678 705.032 370.633 704.564C370.59 704.115 370.451 703.735 370.216 703.424C369.985 703.108 369.677 702.873 369.29 702.719C368.908 702.565 368.469 702.512 367.973 702.56C367.501 702.605 367.068 702.735 366.673 702.949C366.283 703.158 365.976 703.436 365.752 703.781C365.527 704.122 365.427 704.516 365.451 704.962L363.332 705.165C363.28 704.379 363.445 703.667 363.828 703.03C364.214 702.392 364.756 701.87 365.451 701.465C366.146 701.059 366.938 700.814 367.826 700.729C368.756 700.639 369.577 700.744 370.288 701.043C371.002 701.337 371.573 701.766 371.999 702.33C372.43 702.894 372.677 703.533 372.741 704.247C372.824 705.059 372.663 705.771 372.259 706.381C371.86 706.992 371.292 707.43 370.555 707.697L370.566 707.81C371.544 707.864 372.327 708.175 372.915 708.743C373.509 709.31 373.847 710.052 373.93 710.969C374.012 711.767 373.859 712.504 373.471 713.18C373.087 713.856 372.528 714.413 371.793 714.851C371.058 715.284 370.194 715.548 369.202 715.643Z" fill="white"/>
<path d="M381.878 714.425C381.229 714.478 380.58 714.421 379.93 714.255C379.285 714.088 378.682 713.764 378.121 713.284C377.56 712.804 377.083 712.133 376.69 711.269C376.302 710.405 376.043 709.305 375.915 707.968C375.793 706.702 375.81 705.566 375.966 704.559C376.127 703.552 376.413 702.688 376.826 701.966C377.237 701.24 377.764 700.668 378.406 700.248C379.047 699.829 379.788 699.579 380.629 699.498C381.494 699.415 382.278 699.512 382.981 699.787C383.685 700.063 384.273 700.481 384.746 701.041C385.224 701.6 385.557 702.257 385.744 703.012L383.583 703.219C383.378 702.629 383.04 702.163 382.569 701.822C382.097 701.481 381.512 701.344 380.813 701.412C379.75 701.514 378.965 702.056 378.459 703.04C377.958 704.022 377.784 705.338 377.937 706.987L378.044 706.977C378.255 706.542 378.528 706.163 378.864 705.84C379.205 705.511 379.594 705.248 380.032 705.048C380.475 704.843 380.949 704.717 381.455 704.668C382.296 704.587 383.076 704.72 383.796 705.065C384.52 705.406 385.119 705.916 385.595 706.595C386.07 707.274 386.352 708.076 386.441 709.002C386.53 709.928 386.4 710.787 386.052 711.578C385.709 712.369 385.18 713.021 384.466 713.533C383.752 714.04 382.889 714.337 381.878 714.425ZM381.693 712.583C382.251 712.53 382.736 712.345 383.149 712.029C383.562 711.712 383.874 711.311 384.084 710.823C384.295 710.336 384.373 709.806 384.318 709.235C384.264 708.677 384.09 708.181 383.796 707.747C383.506 707.313 383.131 706.982 382.671 706.754C382.215 706.526 381.711 706.439 381.158 706.492C380.738 706.532 380.356 706.65 380.012 706.845C379.673 707.04 379.383 707.292 379.141 707.601C378.899 707.91 378.717 708.257 378.597 708.64C378.481 709.018 378.442 709.411 378.481 709.817C378.533 710.36 378.707 710.851 379.002 711.29C379.301 711.729 379.684 712.068 380.151 712.31C380.622 712.546 381.136 712.637 381.693 712.583Z" fill="white"/>
<path d="M389.278 713.514L389.126 711.926L393.547 706.367C394.018 705.764 394.404 705.238 394.704 704.79C395.009 704.336 395.228 703.912 395.362 703.518C395.495 703.124 395.542 702.714 395.501 702.289C395.455 701.807 395.301 701.402 395.041 701.074C394.78 700.742 394.445 700.5 394.034 700.349C393.624 700.193 393.173 700.138 392.681 700.185C392.162 700.235 391.719 700.385 391.352 700.635C390.985 700.885 390.716 701.213 390.545 701.621C390.375 702.028 390.314 702.491 390.364 703.011L388.274 703.212C388.189 702.329 388.318 701.537 388.661 700.836C389.003 700.136 389.511 699.57 390.185 699.138C390.858 698.701 391.646 698.44 392.548 698.353C393.46 698.265 394.281 698.37 395.01 698.667C395.744 698.959 396.336 699.398 396.788 699.984C397.24 700.565 397.503 701.245 397.578 702.025C397.63 702.563 397.579 703.1 397.425 703.634C397.276 704.168 396.984 704.775 396.549 705.456C396.114 706.132 395.497 706.961 394.7 707.944L392.106 711.239L392.116 711.346L398.65 710.718L398.83 712.596L389.278 713.514Z" fill="white"/>
<path d="M406.402 712.068C405.753 712.121 405.104 712.064 404.454 711.898C403.809 711.731 403.206 711.408 402.645 710.928C402.084 710.448 401.607 709.776 401.214 708.913C400.826 708.049 400.567 706.948 400.439 705.612C400.317 704.346 400.334 703.209 400.49 702.203C400.651 701.195 400.938 700.331 401.35 699.61C401.762 698.884 402.288 698.311 402.93 697.892C403.571 697.473 404.312 697.223 405.153 697.142C406.018 697.059 406.802 697.155 407.505 697.431C408.209 697.706 408.797 698.124 409.27 698.684C409.748 699.244 410.081 699.901 410.268 700.655L408.107 700.863C407.902 700.272 407.564 699.806 407.093 699.466C406.621 699.125 406.036 698.988 405.337 699.055C404.274 699.157 403.49 699.7 402.983 700.683C402.482 701.666 402.308 702.981 402.462 704.631L402.568 704.62C402.779 704.185 403.052 703.806 403.388 703.483C403.729 703.155 404.118 702.891 404.557 702.691C404.999 702.487 405.473 702.36 405.979 702.312C406.82 702.231 407.6 702.363 408.32 702.709C409.044 703.049 409.643 703.559 410.119 704.238C410.594 704.917 410.876 705.719 410.965 706.645C411.054 707.571 410.924 708.43 410.576 709.221C410.233 710.013 409.704 710.664 408.99 711.176C408.276 711.683 407.413 711.981 406.402 712.068ZM406.217 710.227C406.775 710.173 407.26 709.988 407.673 709.672C408.086 709.356 408.398 708.954 408.609 708.467C408.819 707.979 408.897 707.45 408.842 706.878C408.788 706.321 408.614 705.825 408.32 705.391C408.03 704.956 407.655 704.625 407.195 704.397C406.739 704.169 406.235 704.082 405.682 704.135C405.262 704.176 404.88 704.293 404.536 704.488C404.197 704.683 403.907 704.935 403.665 705.244C403.423 705.554 403.241 705.9 403.121 706.283C403.005 706.662 402.966 707.054 403.005 707.46C403.057 708.004 403.231 708.495 403.526 708.934C403.825 709.372 404.208 709.712 404.675 709.953C405.146 710.189 405.66 710.28 406.217 710.227Z" fill="white"/>
<path d="M423.536 712.052L421.793 693.912L422.955 693.801L424.698 711.941L423.536 712.052ZM425.969 699.189C425.829 698.526 425.467 698.036 424.884 697.72C424.3 697.4 423.592 697.279 422.761 697.359C422.165 697.416 421.66 697.56 421.243 697.791C420.826 698.017 420.513 698.305 420.303 698.654C420.098 698.998 420.015 699.375 420.055 699.786C420.088 700.131 420.197 700.421 420.381 700.656C420.571 700.89 420.806 701.08 421.087 701.225C421.372 701.364 421.673 701.476 421.991 701.56C422.309 701.639 422.613 701.7 422.903 701.744L424.356 701.976C424.829 702.045 425.319 702.153 425.824 702.3C426.329 702.447 426.805 702.658 427.251 702.935C427.697 703.211 428.07 703.571 428.37 704.014C428.675 704.457 428.859 705.004 428.921 705.656C429 706.478 428.858 707.229 428.494 707.907C428.135 708.585 427.572 709.147 426.804 709.593C426.041 710.038 425.093 710.315 423.959 710.424C422.872 710.529 421.916 710.446 421.089 710.178C420.262 709.909 419.594 709.48 419.084 708.89C418.574 708.296 418.254 707.564 418.122 706.694L420.319 706.483C420.412 707.003 420.624 707.424 420.955 707.745C421.291 708.061 421.701 708.281 422.185 708.406C422.673 708.526 423.198 708.559 423.76 708.505C424.379 708.446 424.92 708.296 425.383 708.056C425.851 707.811 426.207 707.5 426.452 707.124C426.697 706.743 426.797 706.316 426.751 705.844C426.71 705.414 426.553 705.073 426.281 704.823C426.014 704.572 425.664 704.377 425.231 704.238C424.803 704.097 424.322 703.984 423.789 703.897L422.03 703.594C420.837 703.389 419.871 703.012 419.132 702.464C418.397 701.914 417.982 701.134 417.884 700.123C417.804 699.287 417.961 698.536 418.354 697.868C418.748 697.201 419.315 696.658 420.057 696.239C420.798 695.815 421.655 695.556 422.628 695.463C423.611 695.368 424.494 695.457 425.279 695.73C426.068 696.002 426.708 696.42 427.201 696.983C427.693 697.541 427.986 698.209 428.08 698.986L425.969 699.189Z" fill="white"/>
<path d="M211.111 720.667C210.769 720.564 210.379 720.653 210.073 720.906L207.978 722.889L206.542 724.175L204.49 726.148C204.227 726.391 203.838 726.48 203.452 726.387L201.334 725.689C200.991 725.585 200.695 725.289 200.606 724.899L200.11 722.736C200.03 722.39 200.124 722.004 200.421 721.708L202.033 720.2C202.296 719.958 202.685 719.868 203.071 719.962L205.189 720.66C205.532 720.763 205.828 721.06 205.917 721.449L206.244 722.877L207.67 721.548L207.333 720.077C207.253 719.731 207.001 719.425 206.605 719.288L202.677 718.048C202.335 717.945 201.946 718.034 201.639 718.287L198.568 721.177C198.262 721.43 198.168 721.815 198.247 722.161L199.181 726.228C199.26 726.574 199.512 726.881 199.908 727.018L203.879 728.247C204.221 728.35 204.611 728.261 204.917 728.009L206.979 726.078L208.405 724.749L210.466 722.819C210.729 722.577 211.119 722.487 211.505 722.581L213.613 723.236C213.956 723.339 214.251 723.636 214.341 724.025L214.837 726.188C214.916 726.534 214.823 726.92 214.526 727.216L212.957 728.714C212.694 728.957 212.305 729.046 211.919 728.952L209.811 728.298C209.468 728.194 209.172 727.898 209.083 727.508L208.765 726.124L207.34 727.453L207.667 728.88C207.747 729.227 207.999 729.533 208.395 729.67L212.366 730.899C212.708 731.003 213.098 730.913 213.404 730.661L216.442 727.824C216.705 727.581 216.842 727.185 216.753 726.796L215.81 722.686C215.73 722.34 215.478 722.034 215.082 721.897L211.111 720.667Z" fill="#8247E5"/>
</g>
<defs>
<filter id="filter0_d_34_76" x="1696.45" y="739.154" width="23.7138" height="26.9379" filterUnits="userSpaceOnUse" color-interpolation-filters="sRGB">
<feFlood flood-opacity="0" result="BackgroundImageFix"/>
<feColorMatrix in="SourceAlpha" type="matrix" values="0 0 0 0 0 0 0 0 0 0 0 0 0 0 0 0 0 0 127 0" result="hardAlpha"/>
<feOffset dx="-0.302833" dy="2.7255"/>
<feGaussianBlur stdDeviation="1.817"/>
<feComposite in2="hardAlpha" operator="out"/>
<feColorMatrix type="matrix" values="0 0 0 0 0 0 0 0 0 0 0 0 0 0 0 0 0 0 0.15 0"/>
<feBlend mode="normal" in2="BackgroundImageFix" result="effect1_dropShadow_34_76"/>
<feBlend mode="normal" in="SourceGraphic" in2="effect1_dropShadow_34_76" result="shape"/>
</filter>
<filter id="filter1_d_34_76" x="527.836" y="635.523" width="25.7599" height="26.0551" filterUnits="userSpaceOnUse" color-interpolation-filters="sRGB">
<feFlood flood-opacity="0" result="BackgroundImageFix"/>
<feColorMatrix in="SourceAlpha" type="matrix" values="0 0 0 0 0 0 0 0 0 0 0 0 0 0 0 0 0 0 127 0" result="hardAlpha"/>
<feOffset dx="-0.302833" dy="2.7255"/>
<feGaussianBlur stdDeviation="1.817"/>
<feComposite in2="hardAlpha" operator="out"/>
<feColorMatrix type="matrix" values="0 0 0 0 0 0 0 0 0 0 0 0 0 0 0 0 0 0 0.15 0"/>
<feBlend mode="normal" in2="BackgroundImageFix" result="effect1_dropShadow_34_76"/>
<feBlend mode="normal" in="SourceGraphic" in2="effect1_dropShadow_34_76" result="shape"/>
</filter>
<linearGradient id="paint0_linear_34_76" x1="1332.5" y1="724" x2="1178.5" y2="677.693" gradientUnits="userSpaceOnUse">
<stop stop-color="#0085FF"/>
<stop offset="1" stop-color="#0085FF" stop-opacity="0"/>
</linearGradient>
<linearGradient id="paint1_linear_34_76" x1="1496" y1="674" x2="1667" y2="-31" gradientUnits="userSpaceOnUse">
<stop stop-color="#0090FF"/>
<stop offset="1" stop-color="#0090FF" stop-opacity="0"/>
</linearGradient>
<linearGradient id="paint2_linear_34_76" x1="343" y1="610" x2="228.5" y2="-19.5" gradientUnits="userSpaceOnUse">
<stop stop-color="#0085FF"/>
<stop offset="1" stop-color="#0085FF" stop-opacity="0"/>
</linearGradient>
<linearGradient id="paint3_linear_34_76" x1="602.443" y1="651.307" x2="722.677" y2="642.719" gradientUnits="userSpaceOnUse">
<stop stop-color="#0085FF"/>
<stop offset="1" stop-color="#0085FF" stop-opacity="0"/>
</linearGradient>
<clipPath id="clip0_34_76">
<rect width="1920" height="1295" fill="white"/>
</clipPath>
</defs>
</svg>
