<svg width="126" height="63" viewBox="0 0 126 63" fill="none" xmlns="http://www.w3.org/2000/svg">
<g clip-path="url(#clip0_128_83)">
<rect width="126" height="63" rx="10" fill="#3C3D3F" fill-opacity="0.12"/>
<path fill-rule="evenodd" clip-rule="evenodd" d="M36.9997 12.155L50.3197 19.845C50.9277 20.1961 51.4327 20.701 51.7838 21.3091C52.1348 21.9172 52.3197 22.6069 52.3197 23.309V38.691C52.3197 39.3932 52.1348 40.0829 51.7838 40.691C51.4327 41.299 50.9277 41.804 50.3197 42.155L36.9997 49.845C36.3916 50.1961 35.7018 50.3809 34.9997 50.3809C34.2975 50.3809 33.6078 50.1961 32.9997 49.845L19.6797 42.155C19.0716 41.804 18.5667 41.299 18.2156 40.691C17.8645 40.0829 17.6797 39.3932 17.6797 38.691V23.309C17.6797 22.6069 17.8645 21.9172 18.2156 21.3091C18.5667 20.701 19.0716 20.1961 19.6797 19.845L32.9997 12.155C33.6078 11.804 34.2975 11.6191 34.9997 11.6191C35.7018 11.6191 36.3916 11.804 36.9997 12.155Z" fill="white"/>
<path d="M73.3213 38H68.6017V23.4211H73.4708C74.8993 23.4211 76.1261 23.7129 77.1511 24.2967C78.1762 24.8756 78.9616 25.7085 79.5074 26.7953C80.0579 27.8773 80.3332 29.1753 80.3332 30.6892C80.3332 32.2078 80.0555 33.5129 79.5003 34.6044C78.9498 35.6959 78.1525 36.5359 77.1084 37.1244C76.0644 37.7081 74.802 38 73.3213 38ZM70.8013 36.078H73.2003C74.3108 36.078 75.2339 35.8692 75.9695 35.4515C76.705 35.0292 77.2555 34.4193 77.621 33.6221C77.9864 32.82 78.1691 31.8424 78.1691 30.6892C78.1691 29.5455 77.9864 28.575 77.621 27.7777C77.2603 26.9804 76.7217 26.3753 76.005 25.9624C75.2884 25.5495 74.3986 25.3431 73.3356 25.3431H70.8013V36.078ZM95.532 30.7105C95.532 32.2671 95.2473 33.6054 94.6778 34.7254C94.1083 35.8407 93.3276 36.6997 92.3358 37.3024C91.3487 37.9003 90.2263 38.1993 88.9687 38.1993C87.7063 38.1993 86.5792 37.9003 85.5873 37.3024C84.6002 36.6997 83.8219 35.8383 83.2524 34.7183C82.6829 33.5983 82.3982 32.2624 82.3982 30.7105C82.3982 29.1539 82.6829 27.818 83.2524 26.7028C83.8219 25.5828 84.6002 24.7238 85.5873 24.1258C86.5792 23.5231 87.7063 23.2218 88.9687 23.2218C90.2263 23.2218 91.3487 23.5231 92.3358 24.1258C93.3276 24.7238 94.1083 25.5828 94.6778 26.7028C95.2473 27.818 95.532 29.1539 95.532 30.7105ZM93.3537 30.7105C93.3537 29.5241 93.1615 28.5251 92.7771 27.7136C92.3975 26.8973 91.8754 26.2804 91.211 25.8628C90.5514 25.4404 89.8039 25.2292 88.9687 25.2292C88.1287 25.2292 87.3789 25.4404 86.7192 25.8628C86.0595 26.2804 85.5375 26.8973 85.1531 27.7136C84.7734 28.5251 84.5836 29.5241 84.5836 30.7105C84.5836 31.897 84.7734 32.8983 85.1531 33.7146C85.5375 34.5261 86.0595 35.1431 86.7192 35.5654C87.3789 35.9831 88.1287 36.1919 88.9687 36.1919C89.8039 36.1919 90.5514 35.9831 91.211 35.5654C91.8754 35.1431 92.3975 34.5261 92.7771 33.7146C93.1615 32.8983 93.3537 31.897 93.3537 30.7105ZM96.7286 25.3146V23.4211H108.012V25.3146H103.463V38H101.27V25.3146H96.7286Z" fill="white"/>
<g clip-path="url(#clip1_128_83)">
<path d="M34.4995 25.2381C36.5118 25.2381 38.143 24.2894 38.143 23.1191C38.143 21.9487 36.5118 21 34.4995 21C32.4872 21 30.856 21.9487 30.856 23.1191C30.856 24.2894 32.4872 25.2381 34.4995 25.2381Z" fill="#E6007A"/>
<path d="M34.4995 41.204C36.5118 41.204 38.143 40.2552 38.143 39.0849C38.143 37.9146 36.5118 36.9658 34.4995 36.9658C32.4872 36.9658 30.856 37.9146 30.856 39.0849C30.856 40.2552 32.4872 41.204 34.4995 41.204Z" fill="#E6007A"/>
<path d="M29.4217 28.1713C30.4279 26.4286 30.4213 24.5413 29.4071 23.9557C28.393 23.3701 26.7552 24.3081 25.749 26.0507C24.7429 27.7934 24.7494 29.6807 25.7636 30.2663C26.7778 30.8519 28.4156 29.9139 29.4217 28.1713Z" fill="#E6007A"/>
<path d="M43.2479 36.1532C44.254 34.4106 44.248 32.5235 43.2345 31.9384C42.221 31.3532 40.5838 32.2915 39.5776 34.0341C38.5715 35.7768 38.5775 37.6638 39.591 38.249C40.6045 38.8342 42.2417 37.8958 43.2479 36.1532Z" fill="#E6007A"/>
<path d="M29.4076 38.2484C30.4218 37.6628 30.4284 35.7755 29.4222 34.0328C28.4161 32.2902 26.7783 31.3522 25.7641 31.9378C24.7499 32.5234 24.7434 34.4107 25.7495 36.1534C26.7556 37.896 28.3934 38.834 29.4076 38.2484Z" fill="#E6007A"/>
<path d="M43.2355 30.2657C44.249 29.6806 44.255 27.7935 43.2488 26.0509C42.2427 24.3083 40.6055 23.3699 39.592 23.9551C38.5784 24.5403 38.5725 26.4273 39.5786 28.17C40.5847 29.9126 42.222 30.8509 43.2355 30.2657Z" fill="#E6007A"/>
</g>
</g>
<defs>
<clipPath id="clip0_128_83">
<rect width="126" height="63" fill="white"/>
</clipPath>
<clipPath id="clip1_128_83">
<rect width="19" height="20.2064" fill="white" transform="translate(25 21)"/>
</clipPath>
</defs>
</svg>
