<svg width="213" height="63" viewBox="0 0 213 63" fill="none" xmlns="http://www.w3.org/2000/svg">
<g clip-path="url(#clip0_128_83)">
<rect width="213" height="63" rx="10" fill="#3C3D3F" fill-opacity="0.12"/>
<path fill-rule="evenodd" clip-rule="evenodd" d="M36.9997 12.155L50.3197 19.845C50.9277 20.1961 51.4327 20.701 51.7838 21.3091C52.1348 21.9172 52.3197 22.6069 52.3197 23.309V38.691C52.3197 39.3932 52.1348 40.0829 51.7838 40.691C51.4327 41.299 50.9277 41.804 50.3197 42.155L36.9997 49.845C36.3916 50.1961 35.7018 50.3809 34.9997 50.3809C34.2975 50.3809 33.6078 50.1961 32.9997 49.845L19.6797 42.155C19.0716 41.804 18.5667 41.299 18.2156 40.691C17.8645 40.0829 17.6797 39.3932 17.6797 38.691V23.309C17.6797 22.6069 17.8645 21.9172 18.2156 21.3091C18.5667 20.701 19.0716 20.1961 19.6797 19.845L32.9997 12.155C33.6078 11.804 34.2975 11.6191 34.9997 11.6191C35.7018 11.6191 36.3916 11.804 36.9997 12.155Z" fill="url(#paint0_linear_128_83)"/>
<mask id="mask0_128_83" style="mask-type:alpha" maskUnits="userSpaceOnUse" x="27" y="23" width="16" height="17">
<path d="M27.0039 23.7061H42.9989V39.4281H27.0039V23.7061Z" fill="white"/>
</mask>
<g mask="url(#mask0_128_83)">
<path fill-rule="evenodd" clip-rule="evenodd" d="M37.6069 32.0961C37.6559 32.0961 37.6759 32.1031 37.6509 32.1101C37.6221 32.1175 37.5918 32.1175 37.5629 32.1101C37.5389 32.1031 37.5589 32.0971 37.6069 32.0971V32.0961ZM39.8569 30.0981C39.9169 30.0981 39.9419 30.1031 39.9119 30.1101C39.8756 30.1169 39.8383 30.1169 39.8019 30.1101C39.7719 30.1031 39.7959 30.0981 39.8569 30.0981ZM27.6729 27.3261L27.7329 27.5461C27.7899 27.7731 27.9059 28.1281 28.0639 28.5561C28.2129 28.9581 28.2119 28.9761 28.0569 29.3111L27.8739 29.7071C27.7394 30.0146 27.6193 30.3283 27.5139 30.6471C27.4869 30.7141 27.3799 31.0711 27.2719 31.4571C27.2099 31.6771 27.0849 32.4121 27.0519 32.7471C26.9399 33.9031 27.0149 34.4221 27.3709 34.9371C27.3909 34.9651 27.4119 35.0031 27.4179 35.0211C27.4249 35.0391 27.4709 35.1141 27.5219 35.1871C27.5719 35.2611 27.6129 35.3251 27.6129 35.3301C27.6129 35.3461 27.8369 35.6431 27.9229 35.7401C28.4099 36.2971 28.6309 36.5101 29.2329 37.0011C29.5429 37.2531 30.2199 37.7391 30.2629 37.7391C30.2659 37.7391 30.3369 37.7841 30.4199 37.8391C30.5039 37.8941 30.5769 37.9391 30.5829 37.9391C30.5899 37.9391 30.6279 37.9611 30.6689 37.9881C31.0649 38.2451 32.2489 38.7981 32.7649 38.9681C33.0119 39.0566 33.2621 39.1359 33.5149 39.2061C34.2779 39.4091 35.0779 39.4781 35.6449 39.3911C35.7344 39.3763 35.8245 39.3659 35.9149 39.3601C35.9519 39.3601 36.0379 39.3471 36.1049 39.3311C36.1709 39.3161 36.2929 39.2881 36.3749 39.2711C36.7369 39.1911 36.8879 39.1551 36.9199 39.1381C36.9391 39.1277 36.9602 39.1212 36.9819 39.1191C37.0189 39.1191 37.2709 39.0431 37.3489 39.0081C37.3741 38.9954 37.4006 38.9857 37.4279 38.9791C37.4669 38.9791 38.0579 38.7531 38.3149 38.6391C39.0808 38.2991 39.8089 37.8794 40.4869 37.3871C40.7299 37.2131 41.3359 36.6941 41.4629 36.5501L41.6649 36.3291C41.9899 35.9761 42.0809 35.8611 42.3469 35.4691C42.5069 35.2321 42.7509 34.7771 42.7969 34.6291C42.8069 34.5951 42.8369 34.5031 42.8669 34.4241C42.9149 34.2881 42.9299 34.2341 42.9799 33.9881C42.9919 33.9331 42.9999 33.7081 42.9999 33.4881C42.9969 32.7621 42.9069 31.9451 42.7759 31.4581L42.7059 31.1731C42.5799 30.6401 42.3439 30.0351 42.0229 29.4171C41.9523 29.2824 41.8823 29.1474 41.8129 29.0121L41.7759 28.9371L41.9039 28.5521C42.1001 27.9708 42.2719 27.3816 42.4189 26.7861C42.4449 26.6791 42.4729 26.5721 42.4929 26.4951C41.6908 25.3368 40.6293 24.3817 39.3929 23.7061C39.3759 23.7241 39.3559 23.7461 39.3339 23.7661C39.0697 24.0347 38.8168 24.3142 38.5759 24.6041C38.5359 24.6491 38.4159 24.7911 38.3089 24.9211C38.2009 25.0511 38.1109 25.1561 38.1089 25.1561L37.8859 25.0861C37.7471 25.0418 37.607 25.0015 37.4659 24.9651L37.1959 24.8951C37.054 24.8586 36.9105 24.8283 36.7659 24.8041C36.2509 24.7041 35.3319 24.6241 34.8839 24.6421C34.0709 24.6731 33.6379 24.7221 33.0039 24.8541C32.8349 24.8891 32.1559 25.0881 32.0369 25.1371C31.9769 25.1621 31.9749 25.1611 31.7539 24.9271C31.6489 24.8171 31.4059 24.5641 31.2129 24.3661C30.8959 24.0411 30.7289 23.8701 30.6459 23.7781C29.3846 24.4944 28.3138 25.5034 27.5239 26.7201C27.5639 26.9101 27.6139 27.1131 27.6739 27.3261" fill="white"/>
</g>
<mask id="mask1_128_83" style="mask-type:alpha" maskUnits="userSpaceOnUse" x="27" y="22" width="16" height="13">
<path d="M27 22H43V34.849H27V22Z" fill="white"/>
</mask>
<g mask="url(#mask1_128_83)">
<path fill-rule="evenodd" clip-rule="evenodd" d="M30.5753 30.1501C30.7433 30.1861 30.8633 30.2231 30.9953 30.2821C31.2203 30.3821 31.5453 30.5481 31.7753 30.6791C31.9123 30.7571 32.0733 30.8481 32.1323 30.8801C32.8333 31.2661 33.2543 31.6681 33.2553 31.9541C33.2563 32.4121 30.9533 31.8821 30.2453 31.2611C30.0273 31.0701 29.9853 30.6211 30.1493 30.2271C30.2103 30.0801 30.2233 30.0771 30.5753 30.1511V30.1501ZM39.9923 30.1871C40.0483 30.3901 40.0553 30.4541 40.0563 30.7711L40.0573 31.0941L39.9223 31.2171C39.6473 31.4671 39.3693 31.6201 38.8773 31.7931C38.6043 31.8901 38.5253 31.9121 38.0673 32.0191C37.7693 32.0891 37.2633 32.1191 37.0073 32.0851L36.9113 32.0721L36.9243 31.9521C36.9523 31.6811 37.1953 31.4051 37.6973 31.0751C38.2433 30.7151 38.5573 30.5411 39.1573 30.2631C39.3703 30.1631 39.7073 30.0791 39.8663 30.0841L39.9653 30.0871L39.9923 30.1871ZM38.7803 28.2271C39.4203 28.3941 39.7503 29.1251 39.3653 29.5231C39.1373 29.7571 37.8553 29.7031 37.6213 29.4501C37.5313 29.3531 37.4813 29.1621 37.5173 29.0651C37.5273 29.0371 37.5373 28.9951 37.5373 28.9731C37.5373 28.8981 37.6423 28.7131 37.7543 28.5931C38.0653 28.2561 38.4133 28.1331 38.7803 28.2281V28.2271ZM31.6303 28.2251C32.2283 28.3851 32.6563 29.2051 32.2863 29.4871C32.0813 29.6441 31.3513 29.7171 30.8053 29.6371C30.3353 29.5671 30.2693 28.8831 30.6953 28.4921C30.9703 28.2391 31.3143 28.1411 31.6303 28.2251ZM27.6703 22.0311C27.3203 22.2611 27.0873 23.4331 27.1943 24.4221L27.2343 24.8561C27.2673 25.2841 27.3213 25.7051 27.3843 26.0261C27.4016 26.1155 27.4156 26.2056 27.4263 26.2961C27.4333 26.3681 27.4463 26.4311 27.4543 26.4361C27.4623 26.4421 27.4783 26.4961 27.4903 26.5561C27.5433 26.8201 27.6003 27.0581 27.6743 27.3261L27.7343 27.5461C27.7903 27.7731 27.9073 28.1291 28.0653 28.5561C28.2133 28.9581 28.2133 28.9761 28.0573 29.3111L27.8743 29.7071C27.7398 30.0147 27.6197 30.3283 27.5143 30.6471C27.4265 30.9149 27.3458 31.185 27.2723 31.4571C27.2393 31.5781 27.1553 32.0211 27.1023 32.3571C27.0593 32.6391 26.9863 33.4171 27.0023 33.4331C27.0543 33.4332 27.1062 33.4281 27.1573 33.4181C27.4583 33.3721 27.6353 33.3611 28.0643 33.3601C28.5563 33.3601 28.7923 33.3841 29.2183 33.4761C29.9553 33.6361 30.8233 34.1401 31.4243 34.7561C31.5473 34.8821 31.5363 34.8841 31.6043 34.7331C32.1773 33.4691 32.8513 32.7331 33.8053 32.3291C34.4123 32.0731 35.2613 32.0311 35.9963 32.2211C36.9803 32.4761 37.8133 33.2491 38.2563 34.3181L38.3373 34.5081C38.3473 34.5301 38.3793 34.6111 38.4073 34.6881C38.4373 34.7641 38.4643 34.8351 38.4703 34.8441C38.4763 34.8541 38.5403 34.8041 38.6143 34.7341C39.0823 34.2881 39.5103 34.0091 40.1833 33.7121C40.2141 33.6969 40.2467 33.6855 40.2803 33.6781C40.2923 33.6781 40.3303 33.6661 40.3643 33.6501C40.5503 33.5681 40.9043 33.4821 41.3073 33.4231C41.6873 33.3671 42.7993 33.3901 42.9673 33.4571C43.0213 33.4781 43.0053 33.0001 42.9303 32.3271C42.8989 32.0339 42.8478 31.7433 42.7773 31.4571L42.7073 31.1741C42.5803 30.6411 42.3453 30.0341 42.0233 29.4171C41.953 29.2824 41.8833 29.1474 41.8143 29.0121L41.7773 28.9371L41.9053 28.5521C42.1011 27.9708 42.2726 27.3816 42.4193 26.7861C42.4633 26.6101 42.5113 26.4261 42.5273 26.3761C42.5553 26.2861 42.5773 26.1901 42.6313 25.9261C42.7243 25.4651 42.7743 25.1761 42.8083 24.8961L42.8583 24.4761C42.8883 24.2341 42.8893 23.3271 42.8613 23.1561C42.8083 22.8321 42.7953 22.7711 42.7463 22.6231C42.6193 22.2341 42.4813 22.0081 42.3793 22.0231L42.2083 22.0471C42.1183 22.0581 41.9803 22.0911 41.7183 22.1651C41.1073 22.3371 40.1083 22.9731 39.5683 23.5331C39.5243 23.5791 39.4783 23.6161 39.4633 23.6161C39.4565 23.616 39.4501 23.6187 39.4452 23.6233C39.4404 23.628 39.4375 23.6343 39.4373 23.6411C39.4112 23.6887 39.3767 23.731 39.3353 23.7661C39.0707 24.0347 38.8174 24.3142 38.5763 24.6041L38.3093 24.9211C38.2439 25.0005 38.1772 25.0788 38.1093 25.1561L37.8863 25.0861C37.7474 25.0419 37.6073 25.0015 37.4663 24.9651L37.1963 24.8951C37.0543 24.8587 36.9108 24.8283 36.7663 24.8041C36.2513 24.7041 35.3323 24.6241 34.8863 24.6421C34.0733 24.6741 33.6403 24.7221 33.0063 24.8541C32.8363 24.8891 32.1573 25.0881 32.0383 25.1371C31.9783 25.1621 31.9773 25.1621 31.7553 24.9271C31.6513 24.8171 31.4073 24.5641 31.2153 24.3661C30.6383 23.7761 30.5543 23.6831 30.5693 23.6641C30.5783 23.6541 30.5763 23.6521 30.5663 23.6611C30.5563 23.6691 30.4883 23.6191 30.4163 23.5511C29.6803 22.8581 29.1433 22.4561 28.6233 22.2131C28.2463 22.0361 27.7943 21.9491 27.6703 22.0311Z" fill="#FBA10B"/>
</g>
<path fill-rule="evenodd" clip-rule="evenodd" d="M34.4049 36.6837C34.4239 36.7717 34.4589 36.8067 34.5799 36.8587L34.6829 36.9037L34.7489 36.8307C34.8639 36.7047 34.9559 36.7407 35.0839 36.9637C35.1649 37.1057 35.2649 37.0787 35.4599 36.8617C35.5499 36.7617 35.5429 36.7627 35.6539 36.8477L35.7439 36.9147L35.8179 36.8617C35.9039 36.7997 35.9249 36.7707 35.9439 36.6827L35.9579 36.6187H34.3909L34.4049 36.6837ZM34.3549 33.3287C34.0899 33.4117 33.9749 33.7627 34.0539 34.2487C34.1139 34.6207 34.5639 35.0327 35.0999 35.2057C35.1309 35.2157 35.1349 35.2487 35.1349 35.5157V35.8147L35.0669 35.8547C35.0147 35.8921 34.9697 35.9385 34.9339 35.9917L34.8619 36.0967C34.8309 36.1357 34.0959 36.1037 33.8039 36.0497C33.6439 36.0197 33.1719 36.0077 33.1479 36.0317C33.1409 36.0387 33.1619 36.0747 33.1949 36.1117C33.2799 36.2087 33.3249 36.3067 33.3629 36.4837L33.3969 36.6387H33.4769C33.5639 36.6387 33.5639 36.6397 33.6239 36.8387C33.6649 36.9727 33.7809 37.2257 33.8319 37.2897L33.8689 37.3377L33.9069 37.2537C33.9399 37.1787 33.9439 37.1227 33.9409 36.7667L33.9379 36.3647L34.0409 36.3727C34.0979 36.3777 34.2259 36.3897 34.3249 36.4007C34.9334 36.4627 35.5465 36.4627 36.1549 36.4007C36.2379 36.3907 36.3749 36.3767 36.4589 36.3707L36.6129 36.3567L36.6089 36.7427C36.6049 37.1077 36.6079 37.1327 36.6489 37.2127C36.6959 37.2987 36.7349 37.3387 36.7349 37.2977C36.7349 37.2857 36.7479 37.2467 36.7649 37.2117C36.7799 37.1767 36.8329 37.0457 36.8819 36.9187L36.9719 36.6887L37.0769 36.6567L37.1829 36.6247L37.2459 36.3947C37.2809 36.2697 37.3159 36.1337 37.3229 36.0927L37.3369 36.0187H37.0409C36.7969 36.0187 36.7309 36.0257 36.6639 36.0557C36.5459 36.1097 36.3839 36.1237 36.0629 36.1077L35.7779 36.0937L35.6869 35.9767C35.6339 35.9087 35.5739 35.8537 35.5449 35.8467L35.4939 35.8337L35.4989 35.5317L35.5049 35.2287L35.5849 35.1917C36.1989 34.9087 36.3819 34.6367 36.3839 34.0077C36.3849 33.5297 36.3249 33.4197 36.0119 33.3297C35.8559 33.2857 34.4959 33.2847 34.3549 33.3287ZM39.6459 30.1097C39.2699 30.1877 38.7589 30.4227 38.1059 30.8167C37.2619 31.3267 36.9559 31.6227 36.9209 31.9667L36.9099 32.0727L37.1419 32.0877C38.0479 32.1447 39.3599 31.7307 39.9319 31.2077L40.0559 31.0937V30.7707C40.0539 30.4607 40.0489 30.4057 39.9939 30.1917L39.9689 30.0967L39.8279 30.0997C39.7499 30.0997 39.6679 30.1057 39.6459 30.1097ZM30.1989 30.1227C30.0919 30.2677 30.0189 30.7497 30.0729 30.9547L30.1029 31.0797C30.1249 31.1897 30.4239 31.4207 30.7719 31.5967C31.4649 31.9467 32.8299 32.2207 33.1649 32.0767L33.2599 32.0367L33.2489 31.9297C33.2219 31.6697 32.9839 31.4167 32.4309 31.0617C32.3646 31.0169 32.2962 30.9752 32.2259 30.9367C32.1485 30.8976 32.0728 30.8552 31.9989 30.8097C31.5469 30.5427 31.0629 30.2997 30.8219 30.2197C30.5689 30.1367 30.2289 30.0827 30.1989 30.1227Z" fill="#060505"/>
<path d="M76.5532 27.2509C76.4772 26.577 76.164 26.055 75.6135 25.6848C75.063 25.3099 74.3701 25.1224 73.5349 25.1224C72.9369 25.1224 72.4196 25.2173 71.983 25.4072C71.5464 25.5923 71.2071 25.8485 70.9651 26.176C70.7278 26.4987 70.6091 26.8665 70.6091 27.2794C70.6091 27.6258 70.6898 27.9248 70.8512 28.1763C71.0173 28.4278 71.2332 28.639 71.499 28.8099C71.7695 28.976 72.059 29.116 72.3674 29.2299C72.6759 29.339 72.9725 29.4292 73.2573 29.5004L74.681 29.8705C75.1461 29.9844 75.623 30.1387 76.1118 30.3333C76.6006 30.5278 77.0539 30.7841 77.4715 31.1021C77.8891 31.42 78.2261 31.8139 78.4823 32.2838C78.7433 32.7536 78.8738 33.316 78.8738 33.9709C78.8738 34.7966 78.6603 35.5298 78.2332 36.1705C77.8108 36.8112 77.1962 37.3166 76.3895 37.6868C75.5874 38.0569 74.6169 38.242 73.4779 38.242C72.3864 38.242 71.442 38.0688 70.6447 37.7224C69.8474 37.3759 69.2234 36.8848 68.7725 36.2488C68.3217 35.6081 68.0725 34.8488 68.0251 33.9709H70.2319C70.2746 34.4976 70.4454 34.9366 70.7444 35.2878C71.0481 35.6342 71.4349 35.8929 71.9047 36.0637C72.3793 36.2298 72.899 36.3129 73.4637 36.3129C74.0854 36.3129 74.6383 36.2156 75.1223 36.021C75.6111 35.8217 75.9956 35.5465 76.2756 35.1953C76.5556 34.8393 76.6956 34.4241 76.6956 33.9495C76.6956 33.5176 76.5722 33.1641 76.3254 32.8888C76.0834 32.6136 75.7535 32.3858 75.3359 32.2054C74.923 32.0251 74.4556 31.8661 73.9335 31.7285L72.2108 31.2587C71.0434 30.9407 70.118 30.4733 69.4346 29.8563C68.7559 29.2394 68.4166 28.4231 68.4166 27.4075C68.4166 26.5675 68.6444 25.8343 69.1 25.2079C69.5556 24.5814 70.1725 24.095 70.9508 23.7485C71.7291 23.3974 72.6071 23.2218 73.5847 23.2218C74.5718 23.2218 75.4427 23.395 76.1972 23.7414C76.9566 24.0879 77.5545 24.5648 77.9911 25.1723C78.4277 25.775 78.6555 26.4678 78.6745 27.2509H76.5532ZM81.3019 38V23.4211H83.5016V29.7566H90.7697V23.4211H92.9765V38H90.7697V31.6431H83.5016V38H81.3019ZM98.179 23.4211V38H95.9794V23.4211H98.179ZM101.182 38V23.4211H106.521C107.555 23.4211 108.412 23.5919 109.091 23.9336C109.769 24.2706 110.277 24.7285 110.614 25.3075C110.951 25.8817 111.12 26.5295 111.12 27.2509C111.12 27.8583 111.008 28.3709 110.785 28.7885C110.562 29.2014 110.263 29.5336 109.888 29.7851C109.518 30.0319 109.11 30.2122 108.664 30.3261V30.4685C109.148 30.4922 109.62 30.6488 110.08 30.9383C110.545 31.2231 110.93 31.6288 111.233 32.1556C111.537 32.6824 111.689 33.3231 111.689 34.0776C111.689 34.8227 111.513 35.4919 111.162 36.0851C110.816 36.6736 110.28 37.141 109.553 37.4875C108.827 37.8292 107.9 38 106.77 38H101.182ZM103.382 36.1136H106.556C107.61 36.1136 108.365 35.9095 108.82 35.5014C109.276 35.0932 109.504 34.5831 109.504 33.9709C109.504 33.5105 109.387 33.0882 109.155 32.7038C108.922 32.3193 108.59 32.0132 108.158 31.7855C107.731 31.5577 107.223 31.4438 106.635 31.4438H103.382V36.1136ZM103.382 29.7282H106.329C106.822 29.7282 107.266 29.6333 107.66 29.4434C108.059 29.2536 108.374 28.9878 108.607 28.6461C108.844 28.2997 108.963 27.8916 108.963 27.4217C108.963 26.819 108.751 26.3136 108.329 25.9055C107.907 25.4973 107.259 25.2933 106.386 25.2933H103.382V29.7282ZM119.651 30.7105C119.651 28.9261 119.886 27.2841 120.355 25.7845C120.825 24.2848 121.511 22.9014 122.413 21.6343H124.363C124.012 22.1041 123.685 22.6807 123.381 23.3641C123.077 24.0475 122.811 24.7973 122.584 25.6136C122.356 26.4251 122.178 27.2675 122.05 28.1407C121.922 29.0092 121.857 29.8658 121.857 30.7105C121.857 31.84 121.969 32.9838 122.192 34.1417C122.415 35.2997 122.716 36.3746 123.096 37.3664C123.476 38.3583 123.898 39.1675 124.363 39.7939H122.413C121.511 38.5268 120.825 37.1434 120.355 35.6437C119.886 34.1441 119.651 32.4997 119.651 30.7105ZM126.578 38V23.4211H135.718V25.3146H128.777V29.7566H135.241V31.6431H128.777V36.1064H135.803V38H126.578ZM138.456 38V23.4211H143.652C144.782 23.4211 145.719 23.6157 146.464 24.0048C147.214 24.394 147.774 24.9326 148.144 25.6207C148.514 26.3041 148.699 27.0943 148.699 27.9912C148.699 28.8834 148.512 29.6688 148.137 30.3475C147.767 31.0214 147.207 31.5458 146.457 31.9207C145.712 32.2956 144.775 32.4831 143.645 32.4831H139.709V30.5895H143.446C144.158 30.5895 144.737 30.4875 145.183 30.2834C145.634 30.0794 145.964 29.7827 146.172 29.3936C146.381 29.0044 146.486 28.537 146.486 27.9912C146.486 27.4407 146.379 26.9638 146.165 26.5604C145.956 26.157 145.627 25.8485 145.176 25.635C144.73 25.4167 144.144 25.3075 143.417 25.3075H140.655V38H138.456ZM145.653 31.4224L149.255 38H146.749L143.218 31.4224H145.653ZM163.284 28.1621H161.063C160.978 27.6875 160.819 27.2699 160.586 26.9092C160.354 26.5485 160.069 26.2424 159.732 25.9909C159.395 25.7394 159.018 25.5495 158.6 25.4214C158.187 25.2933 157.748 25.2292 157.283 25.2292C156.443 25.2292 155.691 25.4404 155.027 25.8628C154.367 26.2851 153.845 26.9045 153.461 27.7207C153.081 28.537 152.891 29.5336 152.891 30.7105C152.891 31.897 153.081 32.8983 153.461 33.7146C153.845 34.5309 154.369 35.1478 155.034 35.5654C155.698 35.9831 156.446 36.1919 157.276 36.1919C157.737 36.1919 158.173 36.1302 158.586 36.0068C159.004 35.8787 159.381 35.6912 159.718 35.4444C160.055 35.1976 160.34 34.8963 160.572 34.5404C160.809 34.1797 160.973 33.7668 161.063 33.3017L163.284 33.3088C163.166 34.0254 162.936 34.6851 162.594 35.2878C162.257 35.8858 161.823 36.4031 161.291 36.8397C160.764 37.2715 160.162 37.6061 159.483 37.8434C158.804 38.0807 158.064 38.1993 157.262 38.1993C156 38.1993 154.875 37.9003 153.888 37.3024C152.901 36.6997 152.122 35.8383 151.553 34.7183C150.988 33.5983 150.706 32.2624 150.706 30.7105C150.706 29.1539 150.991 27.818 151.56 26.7028C152.13 25.5828 152.908 24.7238 153.895 24.1258C154.882 23.5231 156.004 23.2218 157.262 23.2218C158.036 23.2218 158.757 23.3333 159.426 23.5563C160.1 23.7746 160.705 24.0973 161.241 24.5245C161.778 24.9468 162.221 25.4641 162.573 26.0763C162.924 26.6838 163.161 27.379 163.284 28.1621ZM165.517 38V36.4054L170.45 31.2943C170.977 30.739 171.411 30.2526 171.753 29.835C172.099 29.4126 172.358 29.0116 172.529 28.6319C172.699 28.2522 172.785 27.8489 172.785 27.4217C172.785 26.9377 172.671 26.52 172.443 26.1689C172.215 25.8129 171.904 25.5401 171.511 25.3502C171.117 25.1556 170.673 25.0584 170.179 25.0584C169.657 25.0584 169.202 25.1651 168.813 25.3787C168.423 25.5923 168.124 25.8936 167.916 26.2828C167.707 26.6719 167.602 27.1275 167.602 27.6495H165.502C165.502 26.7621 165.707 25.9862 166.115 25.3218C166.523 24.6573 167.083 24.1424 167.795 23.777C168.507 23.4068 169.316 23.2218 170.222 23.2218C171.138 23.2218 171.945 23.4045 172.642 23.7699C173.345 24.1306 173.893 24.6241 174.287 25.2506C174.681 25.8723 174.878 26.5746 174.878 27.3577C174.878 27.8987 174.776 28.4278 174.572 28.9451C174.372 29.4624 174.023 30.039 173.525 30.6749C173.027 31.3061 172.334 32.0726 171.447 32.9743L168.549 36.0068V36.1136H175.113V38H165.517ZM182.686 38.242C181.561 38.2373 180.6 37.9407 179.803 37.3522C179.005 36.7637 178.396 35.9071 177.973 34.7824C177.551 33.6576 177.34 32.3027 177.34 30.7177C177.34 29.1373 177.551 27.7872 177.973 26.6672C178.4 25.5472 179.012 24.6929 179.81 24.1045C180.612 23.516 181.57 23.2218 182.686 23.2218C183.801 23.2218 184.757 23.5184 185.554 24.1116C186.352 24.7001 186.962 25.5543 187.384 26.6743C187.811 27.7895 188.025 29.1373 188.025 30.7177C188.025 32.3075 187.813 33.6648 187.391 34.7895C186.969 35.9095 186.359 36.7661 185.562 37.3593C184.764 37.9478 183.806 38.242 182.686 38.242ZM182.686 36.3414C183.673 36.3414 184.444 35.8597 184.999 34.8963C185.559 33.9329 185.839 32.54 185.839 30.7177C185.839 29.5075 185.711 28.4848 185.455 27.6495C185.203 26.8095 184.84 26.1736 184.366 25.7417C183.896 25.3051 183.336 25.0868 182.686 25.0868C181.703 25.0868 180.932 25.5709 180.372 26.539C179.812 27.5072 179.53 28.9 179.525 30.7177C179.525 31.9326 179.651 32.96 179.902 33.8C180.159 34.6353 180.522 35.2688 180.991 35.7007C181.461 36.1278 182.026 36.3414 182.686 36.3414ZM194.471 30.7105C194.471 32.4997 194.236 34.1441 193.766 35.6437C193.297 37.1434 192.611 38.5268 191.709 39.7939H189.759C190.11 39.3241 190.437 38.7475 190.741 38.0641C191.045 37.3807 191.31 36.6332 191.538 35.8217C191.766 35.0054 191.944 34.1607 192.072 33.2875C192.2 32.4143 192.264 31.5553 192.264 30.7105C192.264 29.5858 192.153 28.4444 191.93 27.2865C191.707 26.1285 191.405 25.0536 191.026 24.0618C190.646 23.0699 190.224 22.2607 189.759 21.6343H191.709C192.611 22.9014 193.297 24.2848 193.766 25.7845C194.236 27.2841 194.471 28.9261 194.471 30.7105Z" fill="white"/>
</g>
<defs>
<linearGradient id="paint0_linear_128_83" x1="59.1178" y1="55.4459" x2="13.3292" y2="16.7696" gradientUnits="userSpaceOnUse">
<stop stop-color="#7A0100"/>
<stop offset="1" stop-color="#F30504"/>
</linearGradient>
<clipPath id="clip0_128_83">
<rect width="213" height="63" fill="white"/>
</clipPath>
</defs>
</svg>
