<svg width="114" height="63" viewBox="0 0 114 63" fill="none" xmlns="http://www.w3.org/2000/svg">
<g clip-path="url(#clip0_34_60)">
<path d="M103.911 0H10.0885C4.51677 0 0 4.47715 0 10V53C0 58.5228 4.51677 63 10.0885 63H103.911C109.483 63 114 58.5228 114 53V10C114 4.47715 109.483 0 103.911 0Z" fill="#3C3D3F" fill-opacity="0.12"/>
<path d="M32.9997 12.155L46.3197 19.845C46.9277 20.1961 47.4327 20.701 47.7838 21.3091C48.1348 21.9172 48.3197 22.6069 48.3197 23.309V38.691C48.3197 39.3932 48.1348 40.0829 47.7838 40.691C47.4327 41.299 46.9277 41.804 46.3197 42.155L32.9997 49.845C32.3916 50.1961 31.7018 50.3809 30.9997 50.3809C30.2975 50.3809 29.6078 50.1961 28.9997 49.845L15.6797 42.155C15.0716 41.804 14.5667 41.299 14.2156 40.691C13.8645 40.0829 13.6797 39.3932 13.6797 38.691V23.309C13.6797 22.6069 13.8645 21.9172 14.2156 21.3091C14.5667 20.701 15.0716 20.1961 15.6797 19.845L28.9997 12.155C29.6078 11.804 30.2975 11.6191 30.9997 11.6191C31.7018 11.6191 32.3916 11.804 32.9997 12.155Z" fill="#F4F7FB"/>
<path d="M65.1322 23.4211L68.6203 29.1231H68.7342L72.2223 23.4211H74.7708L70.2291 30.7105L74.7993 38H72.2366L68.7342 32.3763H68.6203L65.118 38H62.5553L67.2037 30.7105L62.5837 23.4211H65.1322ZM76.0332 25.3146V23.4211H87.3162V25.3146H82.7674V38H80.5749V25.3146H76.0332ZM89.2318 38V36.5336L96.8985 25.3146H89.1677V23.4211H99.5893V24.8875L91.9226 36.1064H99.6534V38H89.2318Z" fill="white"/>
<g clip-path="url(#clip1_34_60)">
<path d="M32.6893 40.4244C31.2318 40.4244 30.1679 40.0733 29.4978 39.3712C28.877 38.7768 28.5167 37.9609 28.4957 37.1017C28.4882 36.8407 28.5487 36.5822 28.6713 36.3516C28.7856 36.1524 28.9508 35.9871 29.1499 35.8726C29.3814 35.7571 29.6365 35.6971 29.8951 35.6971C30.1538 35.6971 30.4089 35.7571 30.6403 35.8726C30.8391 35.9866 31.0035 36.1521 31.1163 36.3516C31.2424 36.5811 31.3052 36.84 31.2981 37.1017C31.3111 37.4143 31.2215 37.7225 31.0428 37.9794C30.8939 38.189 30.6811 38.3447 30.4362 38.4233C30.6757 38.7281 31.0145 38.9393 31.3936 39.0201C31.8178 39.1433 32.2572 39.2067 32.6989 39.2083C33.2837 39.2134 33.8565 39.0422 34.3425 38.7169C34.8467 38.3607 35.2228 37.8515 35.4148 37.2648C35.6583 36.5665 35.7772 35.8309 35.7659 35.0915C35.7855 34.3206 35.6555 33.5532 35.3829 32.8319C35.1779 32.2549 34.7887 31.7615 34.2755 31.4276C33.7984 31.1257 33.2446 30.9673 32.6801 30.9713C32.1881 31.0129 31.7137 31.174 31.2981 31.4404L30.2734 31.9542V31.4404L34.8786 25.2624H28.4957V31.6734C28.4777 32.136 28.6001 32.5933 28.8468 32.9851C28.9662 33.1558 29.1276 33.2928 29.3155 33.3828C29.5033 33.4728 29.7113 33.5128 29.9191 33.4989C30.3031 33.4911 30.6745 33.3602 30.9786 33.1255C31.3232 32.8729 31.6231 32.5644 31.8659 32.2127C31.8877 32.151 31.928 32.0976 31.9813 32.0596C32.024 32.0226 32.0786 32.0023 32.1351 32.0022C32.246 32.0123 32.3509 32.0569 32.4352 32.1297C32.5418 32.2489 32.5999 32.4038 32.5979 32.5638C32.5855 32.6712 32.5664 32.7778 32.5404 32.8829C32.3137 33.4317 31.9336 33.9036 31.4457 34.242C30.9925 34.5487 30.4573 34.7113 29.9101 34.7085C28.5282 34.7085 27.5708 34.4361 27.038 33.8915C26.7642 33.5904 26.5531 33.2378 26.4172 32.8542C26.2813 32.4705 26.2233 32.0637 26.2465 31.6574V25.2624H23V24.0713H26.2616V21.3553L25.5149 20.6081V19.999H27.6818L28.4957 20.4204V24.0713L36.9274 24.0456L37.7669 24.8882L32.5967 30.0835C32.9091 29.9579 33.238 29.8783 33.5732 29.8473C34.2367 29.8764 34.8841 30.0611 35.4629 30.3867C36.1332 30.7053 36.6981 31.2094 37.0907 31.8393C37.4424 32.3725 37.6913 32.9668 37.8247 33.5914C37.9344 34.0842 37.9932 34.5869 38.0003 35.0916C38.0037 36.0549 37.7853 37.006 37.362 37.8713C36.9605 38.7092 36.2849 39.3848 35.447 39.7862C34.5893 40.2089 33.6455 40.4273 32.6893 40.4244V40.4244Z" fill="#2C7DF7"/>
</g>
</g>
<defs>
<clipPath id="clip0_34_60">
<rect width="114" height="63" fill="white"/>
</clipPath>
<clipPath id="clip1_34_60">
<rect width="15" height="20.4253" fill="white" transform="translate(23 20)"/>
</clipPath>
</defs>
</svg>
