<svg width="114" height="63" viewBox="0 0 114 63" fill="none" xmlns="http://www.w3.org/2000/svg">
<g clip-path="url(#clip0_129_177)">
<rect width="114" height="63" rx="10" fill="#3C3D3F" fill-opacity="0.12"/>
<path d="M62.2244 38V36.5336L69.8911 25.3146H62.1603V23.4211H72.582V24.8875L64.9152 36.1064H72.6461V38H62.2244ZM75.2041 38V23.4211H84.3444V25.3146H77.4037V29.7566H83.8674V31.6431H77.4037V36.1064H84.4298V38H75.2041ZM99.1909 28.1621H96.9699C96.8844 27.6875 96.7254 27.2699 96.4929 26.9092C96.2604 26.5485 95.9756 26.2424 95.6387 25.9909C95.3017 25.7394 94.9244 25.5495 94.5068 25.4214C94.0939 25.2933 93.655 25.2292 93.1899 25.2292C92.3499 25.2292 91.5977 25.4404 90.9333 25.8628C90.2736 26.2851 89.7516 26.9045 89.3672 27.7207C88.9875 28.537 88.7977 29.5336 88.7977 30.7105C88.7977 31.897 88.9875 32.8983 89.3672 33.7146C89.7516 34.5309 90.276 35.1478 90.9404 35.5654C91.6048 35.9831 92.3522 36.1919 93.1828 36.1919C93.6431 36.1919 94.0797 36.1302 94.4926 36.0068C94.9102 35.8787 95.2875 35.6912 95.6244 35.4444C95.9614 35.1976 96.2461 34.8963 96.4787 34.5404C96.716 34.1797 96.8797 33.7668 96.9699 33.3017L99.1909 33.3088C99.0722 34.0254 98.8421 34.6851 98.5004 35.2878C98.1634 35.8858 97.7292 36.4031 97.1977 36.8397C96.6709 37.2715 96.0682 37.6061 95.3895 37.8434C94.7109 38.0807 93.9705 38.1993 93.1685 38.1993C91.9061 38.1993 90.7814 37.9003 89.7943 37.3024C88.8072 36.6997 88.0289 35.8383 87.4594 34.7183C86.8946 33.5983 86.6123 32.2624 86.6123 30.7105C86.6123 29.1539 86.897 27.818 87.4665 26.7028C88.036 25.5828 88.8143 24.7238 89.8014 24.1258C90.7885 23.5231 91.9109 23.2218 93.1685 23.2218C93.9421 23.2218 94.6634 23.3333 95.3326 23.5563C96.0065 23.7746 96.6116 24.0973 97.1478 24.5245C97.6841 24.9468 98.1278 25.4641 98.479 26.0763C98.8302 26.6838 99.0675 27.379 99.1909 28.1621Z" fill="white"/>
<g clip-path="url(#clip1_129_177)">
<path fill-rule="evenodd" clip-rule="evenodd" d="M31.9999 12.155L45.3199 19.845C45.928 20.1961 46.4329 20.701 46.784 21.3091C47.1351 21.9172 47.3199 22.6069 47.3199 23.309V38.691C47.3199 39.3932 47.1351 40.0829 46.784 40.691C46.4329 41.299 45.928 41.804 45.3199 42.155L31.9999 49.845C31.3919 50.1961 30.7021 50.3809 29.9999 50.3809C29.2978 50.3809 28.608 50.1961 27.9999 49.845L14.6799 42.155C14.0719 41.804 13.5669 41.299 13.2159 40.691C12.8648 40.0829 12.68 39.3932 12.6799 38.691V23.309C12.68 22.6069 12.8648 21.9172 13.2159 21.3091C13.5669 20.701 14.0719 20.1961 14.6799 19.845L27.9999 12.155C28.608 11.804 29.2978 11.6191 29.9999 11.6191C30.7021 11.6191 31.3919 11.804 31.9999 12.155Z" fill="url(#paint0_linear_129_177)"/>
<path d="M31.1737 24.3915H35.0622V26.5639L29.0378 34.7424H35.0622V37.6207H31.1737V40H28.7883V37.6207H24.8999V35.4483L30.9242 27.2698H24.8999V24.3915H28.7883V22H31.1737V24.3915Z" fill="white"/>
</g>
</g>
<defs>
<linearGradient id="paint0_linear_129_177" x1="4.99993" y1="12" x2="58.2529" y2="41.0335" gradientUnits="userSpaceOnUse">
<stop stop-color="#F4B728"/>
<stop offset="1" stop-color="#E2A30F"/>
</linearGradient>
<clipPath id="clip0_129_177">
<rect width="114" height="63" fill="white"/>
</clipPath>
<clipPath id="clip1_129_177">
<rect width="40" height="40" fill="white" transform="translate(10 11)"/>
</clipPath>
</defs>
</svg>
