<?xml version="1.0" encoding="utf-8"?>
<!-- Generator: Adobe Illustrator 24.0.2, SVG Export Plug-In . SVG Version: 6.00 Build 0)  -->
<svg version="1.1" id="Слой_1" xmlns="http://www.w3.org/2000/svg" xmlns:xlink="http://www.w3.org/1999/xlink" x="0px" y="0px"
	 viewBox="0 0 1920 1295" style="enable-background:new 0 0 1920 1295;" xml:space="preserve">
<style type="text/css">
	.st0{clip-path:url(#SVGID_2_);}
	.st1{fill:#FFFFFF;}
	.st2{fill-rule:evenodd;clip-rule:evenodd;fill:#E84142;}
	.st3{fill:none;stroke:#000000;stroke-opacity:8.000000e-02;}
	.st4{fill:none;stroke:url(#SVGID_3_);stroke-width:3;stroke-dasharray:2,2;}
	.st5{fill:none;stroke:url(#SVGID_4_);stroke-width:3;stroke-dasharray:2,2;}
	.st6{fill:none;stroke:#9500DA;stroke-width:2;}
	.st7{fill:#FFFFFF;stroke:#9500DA;}
	.st8{fill:none;stroke:#FFFFFF;stroke-width:1.5142;}
	.st9{fill:none;stroke:url(#SVGID_5_);stroke-width:3;stroke-dasharray:2,2;}
	.st10{fill:none;stroke:url(#SVGID_6_);stroke-width:3;stroke-dasharray:2,2;}
	.st11{fill:#8247E5;}
</style>
<g>
	<defs>
		<rect id="SVGID_1_" width="1920" height="1295"/>
	</defs>
	<clipPath id="SVGID_2_">
		<use xlink:href="#SVGID_1_"  style="overflow:visible;"/>
	</clipPath>
	<g class="st0">
		<path class="st1" d="M1702.5,741.6l-0.9,6.9l-1.8-0.2l0.9-6.9l-6.4-0.8l0.2-1.8l6.4,0.8l0.9-6.8l1.8,0.2l-0.9,6.8l6.4,0.8
			l-0.2,1.8L1702.5,741.6z"/>
		<path class="st1" d="M1654.1,795.1c-2.6-0.3-5.2-1.7-7.6-3.9c-1.8-1.7-2.9-3.2-2.9-3.3c-0.2-0.3-0.1-0.6,0.1-0.8
			c0.1-0.1,1.5-1.3,3.6-2.5c2.9-1.6,5.8-2.2,8.3-1.9c2.6,0.3,5.2,1.7,7.6,3.9c1.8,1.7,2.8,3.2,2.9,3.3c0.2,0.3,0.1,0.6-0.1,0.8
			c-0.1,0.1-1.5,1.3-3.6,2.5C1659.5,794.8,1656.6,795.4,1654.1,795.1z M1645,787.6c0.4,0.6,1.3,1.6,2.4,2.6c1.5,1.4,4,3.2,6.9,3.6
			c2.9,0.4,5.7-0.7,7.5-1.7c1.3-0.7,2.4-1.5,3-1.9c-0.4-0.6-1.3-1.6-2.4-2.6c-1.5-1.4-4-3.2-6.9-3.6c-2.9-0.4-5.7,0.7-7.5,1.7
			C1646.6,786.4,1645.5,787.2,1645,787.6z"/>
		<path class="st1" d="M1654.4,792.1c-1.8-0.2-3.1-1.9-2.9-3.7c0.2-1.8,1.9-3.1,3.7-2.8c1.8,0.2,3.1,1.9,2.8,3.7
			S1656.2,792.4,1654.4,792.1z"/>
		<path class="st1" d="M1352.4,702.5l1.8-14.4l9.1,1.2l-0.2,1.9l-6.9-0.9l-0.6,4.4l6.4,0.8l-0.2,1.9l-6.4-0.8l-0.6,4.4l7,0.9
			l-0.2,1.9L1352.4,702.5z M1367.2,693.4l1.8,4.5l3-3.9l2.3,0.3l-4.1,5l2.7,5.8l-2.3-0.3l-1.9-4.4l-3,3.7l-2.3-0.3l4.1-5l-2.6-5.8
			L1367.2,693.4z M1379.2,706.2c-1-0.1-1.9-0.5-2.6-1.1c-0.7-0.6-1.2-1.3-1.5-2.2c-0.3-0.9-0.4-1.9-0.2-3c0.1-1.1,0.5-2,1-2.8
			c0.5-0.8,1.2-1.4,2-1.8c0.8-0.4,1.7-0.5,2.7-0.4c0.8,0.1,1.5,0.3,2.1,0.7c0.6,0.4,1.1,0.9,1.4,1.5c0.3,0.6,0.5,1.3,0.5,2l-2.1-0.3
			c0-0.5-0.3-1-0.6-1.4c-0.3-0.4-0.9-0.7-1.5-0.8c-0.6-0.1-1.1,0-1.6,0.3c-0.5,0.3-0.9,0.6-1.2,1.2c-0.3,0.5-0.5,1.2-0.6,2
			c-0.1,0.8-0.1,1.5,0.1,2.1c0.2,0.6,0.4,1.1,0.8,1.5c0.4,0.4,0.9,0.6,1.5,0.7c0.4,0.1,0.8,0,1.1-0.1c0.3-0.1,0.7-0.3,0.9-0.5
			c0.3-0.2,0.5-0.6,0.6-0.9l2.1,0.3c-0.2,0.7-0.5,1.3-0.9,1.8c-0.4,0.5-1,0.9-1.7,1.1C1380.8,706.2,1380.1,706.3,1379.2,706.2z
			 M1388.9,700.6l-0.8,6.4l-2.1-0.3l1.8-14.4l2.1,0.3l-0.7,5.4l0.1,0c0.3-0.5,0.8-1,1.3-1.2c0.6-0.3,1.3-0.4,2.1-0.3
			c0.7,0.1,1.4,0.3,1.9,0.7c0.5,0.4,0.9,0.9,1.1,1.5c0.2,0.6,0.3,1.4,0.2,2.3l-0.9,6.9l-2.1-0.3l0.8-6.6c0.1-0.8,0-1.4-0.4-1.9
			c-0.3-0.5-0.9-0.8-1.6-0.9c-0.5-0.1-1,0-1.4,0.1c-0.4,0.2-0.8,0.4-1,0.8C1389.1,699.6,1388.9,700.1,1388.9,700.6z M1401,709
			c-0.7-0.1-1.3-0.3-1.8-0.6c-0.5-0.3-0.9-0.8-1.2-1.3c-0.3-0.5-0.3-1.1-0.3-1.9c0.1-0.6,0.3-1.1,0.5-1.5c0.3-0.4,0.6-0.6,1.1-0.8
			c0.4-0.2,0.9-0.3,1.4-0.4c0.5-0.1,1-0.1,1.5-0.1c0.7,0,1.2,0,1.6,0c0.4,0,0.7,0,0.9-0.1c0.2-0.1,0.3-0.3,0.3-0.5l0,0
			c0.1-0.6,0-1.1-0.3-1.5c-0.3-0.4-0.8-0.6-1.5-0.7c-0.7-0.1-1.3,0-1.7,0.3c-0.4,0.3-0.8,0.6-1,0.9l-1.9-0.7
			c0.3-0.6,0.7-1.1,1.2-1.5c0.5-0.4,1.1-0.6,1.7-0.7c0.6-0.1,1.3-0.1,1.9,0c0.4,0.1,0.9,0.2,1.4,0.3c0.5,0.2,0.9,0.4,1.3,0.7
			c0.4,0.3,0.7,0.8,0.9,1.3c0.2,0.5,0.3,1.2,0.2,2l-0.9,7.2l-2.1-0.3l0.2-1.5l-0.1,0c-0.2,0.3-0.4,0.5-0.7,0.7
			c-0.3,0.2-0.7,0.4-1.1,0.5C1402.1,709,1401.6,709,1401,709z M1401.7,707.3c0.6,0.1,1.1,0,1.5-0.2c0.5-0.2,0.8-0.4,1.1-0.8
			c0.3-0.3,0.4-0.7,0.5-1.2l0.2-1.4c-0.1,0.1-0.2,0.1-0.5,0.2c-0.2,0-0.5,0.1-0.8,0.1c-0.3,0-0.6,0-0.8,0c-0.3,0-0.5,0-0.7,0
			c-0.4,0-0.8,0-1.2,0.1c-0.3,0.1-0.6,0.2-0.9,0.4c-0.2,0.2-0.4,0.5-0.4,0.9c-0.1,0.5,0.1,0.9,0.4,1.3
			C1400.6,707.1,1401.1,707.3,1401.7,707.3z M1412.1,703.6l-0.8,6.4l-2.1-0.3l1.4-10.8l2,0.3l-0.2,1.8l0.1,0c0.3-0.5,0.8-1,1.3-1.2
			c0.6-0.3,1.3-0.4,2.1-0.3c0.7,0.1,1.4,0.3,1.9,0.7c0.5,0.4,0.9,0.9,1.1,1.5c0.2,0.6,0.3,1.4,0.2,2.3l-0.9,6.9l-2.1-0.3l0.8-6.6
			c0.1-0.8,0-1.4-0.4-1.9c-0.3-0.5-0.9-0.8-1.6-0.9c-0.5-0.1-0.9,0-1.3,0.2c-0.4,0.2-0.7,0.4-1,0.8
			C1412.4,702.5,1412.2,703,1412.1,703.6z M1425,716.1c-0.9-0.1-1.6-0.3-2.2-0.6c-0.6-0.3-1-0.7-1.4-1.1c-0.3-0.4-0.6-0.9-0.7-1.3
			l1.9-0.5c0.1,0.2,0.2,0.5,0.4,0.7c0.2,0.3,0.5,0.5,0.8,0.7c0.3,0.2,0.8,0.4,1.4,0.4c0.8,0.1,1.5,0,2-0.3c0.6-0.3,0.9-0.9,1-1.7
			l0.3-2.1l-0.1,0c-0.2,0.2-0.4,0.4-0.6,0.7s-0.6,0.5-1.1,0.6c-0.4,0.2-1,0.2-1.7,0.1c-0.9-0.1-1.6-0.4-2.2-0.9
			c-0.6-0.5-1.1-1.2-1.4-2c-0.3-0.8-0.4-1.8-0.2-3c0.1-1.2,0.5-2.1,1-2.9c0.5-0.8,1.1-1.3,1.9-1.7c0.7-0.4,1.6-0.5,2.4-0.4
			c0.7,0.1,1.2,0.3,1.6,0.5c0.4,0.3,0.7,0.6,0.9,0.9c0.2,0.3,0.3,0.6,0.4,0.9l0.2,0l0.2-1.8l2.1,0.3l-1.4,11.1
			c-0.1,0.9-0.4,1.7-0.9,2.2c-0.5,0.5-1.2,0.9-1.9,1.1C1426.8,716.2,1426,716.2,1425,716.1z M1425.8,709.9c0.6,0.1,1.1,0,1.6-0.2
			c0.4-0.2,0.8-0.6,1.1-1.1c0.3-0.5,0.5-1.1,0.6-1.9c0.1-0.7,0.1-1.4-0.1-2c-0.2-0.6-0.4-1.1-0.8-1.4c-0.4-0.4-0.9-0.6-1.5-0.7
			c-0.6-0.1-1.2,0-1.7,0.3c-0.5,0.3-0.8,0.7-1.1,1.2c-0.3,0.5-0.5,1.1-0.5,1.8c-0.1,0.7-0.1,1.3,0.1,1.9c0.1,0.6,0.4,1,0.8,1.4
			C1424.7,709.6,1425.2,709.8,1425.8,709.9z M1437.9,713.6c-1.1-0.1-2-0.5-2.7-1c-0.7-0.6-1.2-1.3-1.5-2.2c-0.3-0.9-0.4-1.9-0.3-3
			c0.2-1.1,0.5-2.1,1-2.9c0.5-0.8,1.2-1.4,2-1.8c0.8-0.4,1.7-0.5,2.7-0.4c0.6,0.1,1.2,0.3,1.7,0.5c0.6,0.3,1,0.7,1.4,1.1
			s0.7,1.1,0.9,1.8c0.2,0.7,0.2,1.6,0.1,2.6l-0.1,0.7l-8.6-1.1l0.2-1.6l6.5,0.8c0.1-0.6,0-1.1-0.2-1.5c-0.2-0.5-0.4-0.8-0.8-1.1
			c-0.4-0.3-0.8-0.5-1.4-0.6c-0.6-0.1-1.1,0-1.6,0.2c-0.5,0.2-0.9,0.6-1.2,1c-0.3,0.4-0.5,0.9-0.5,1.5l-0.2,1.2
			c-0.1,0.7,0,1.4,0.2,1.9c0.2,0.5,0.5,1,0.9,1.3c0.4,0.3,0.9,0.5,1.6,0.6c0.4,0.1,0.8,0,1.1,0c0.3-0.1,0.7-0.2,0.9-0.4
			c0.3-0.2,0.5-0.5,0.7-0.8l2,0.6c-0.2,0.6-0.6,1-1.1,1.4c-0.5,0.4-1,0.7-1.7,0.8C1439.4,713.7,1438.7,713.7,1437.9,713.6z
			 M1463.6,706.8l-2.2-0.3c0-0.5-0.1-0.9-0.3-1.3c-0.2-0.4-0.4-0.7-0.7-1c-0.3-0.3-0.7-0.5-1-0.7s-0.8-0.3-1.3-0.4
			c-0.8-0.1-1.6,0-2.3,0.3c-0.7,0.3-1.3,0.9-1.8,1.6s-0.8,1.7-0.9,2.9c-0.2,1.2-0.1,2.2,0.2,3c0.3,0.9,0.7,1.5,1.3,2
			c0.6,0.5,1.3,0.8,2.1,0.9c0.5,0.1,0.9,0.1,1.3,0c0.4-0.1,0.8-0.2,1.2-0.4c0.4-0.2,0.7-0.5,1-0.8c0.3-0.3,0.5-0.7,0.6-1.2l2.2,0.3
			c-0.2,0.7-0.5,1.3-0.9,1.9c-0.4,0.5-0.9,1-1.5,1.4c-0.6,0.4-1.2,0.6-1.9,0.8c-0.7,0.1-1.4,0.2-2.3,0.1c-1.3-0.2-2.3-0.6-3.2-1.3
			c-0.9-0.7-1.6-1.7-2-2.9s-0.5-2.5-0.3-4.1c0.2-1.5,0.6-2.8,1.3-3.9c0.7-1,1.6-1.8,2.6-2.3c1.1-0.5,2.2-0.6,3.4-0.5
			c0.8,0.1,1.5,0.3,2.1,0.6c0.6,0.3,1.2,0.7,1.7,1.2c0.5,0.5,0.9,1.1,1.1,1.7C1463.4,705.3,1463.6,706,1463.6,706.8z M1464.8,716.8
			l1.4-10.8l2,0.3l-0.2,1.7l0.1,0c0.3-0.6,0.7-1,1.2-1.2c0.5-0.3,1.1-0.4,1.8-0.3c0.1,0,0.3,0,0.5,0.1c0.2,0,0.3,0.1,0.4,0.1l-0.3,2
			c-0.1,0-0.2-0.1-0.4-0.1c-0.2-0.1-0.4-0.1-0.6-0.1c-0.5-0.1-1,0-1.4,0.1c-0.4,0.2-0.8,0.4-1,0.8c-0.3,0.3-0.4,0.7-0.5,1.2
			l-0.8,6.6L1464.8,716.8z M1473.5,722.1c-0.3,0-0.6-0.1-0.9-0.2c-0.3-0.1-0.4-0.2-0.6-0.2l0.7-1.7c0.4,0.2,0.7,0.2,1,0.3
			c0.3,0,0.6-0.1,0.8-0.2s0.5-0.5,0.8-1l0.4-0.7l-2.6-11.5l2.3,0.3l1.7,8.7l0.1,0l3.8-8l2.3,0.3l-6,11.7c-0.3,0.5-0.6,1-1,1.3
			c-0.4,0.4-0.8,0.6-1.3,0.7C1474.6,722.1,1474.1,722.1,1473.5,722.1z M1483.4,723.3l1.9-14.9l2.1,0.3l-0.2,1.8l0.2,0
			c0.2-0.2,0.4-0.4,0.6-0.7c0.3-0.3,0.6-0.5,1.1-0.7c0.4-0.2,1-0.2,1.7-0.1c0.9,0.1,1.6,0.4,2.3,1c0.6,0.5,1.1,1.2,1.4,2.1
			c0.3,0.9,0.4,1.9,0.2,3.1c-0.2,1.2-0.5,2.1-1,2.9c-0.5,0.8-1.1,1.4-1.9,1.7c-0.7,0.4-1.5,0.5-2.4,0.4c-0.7-0.1-1.2-0.3-1.6-0.5
			c-0.4-0.3-0.7-0.6-0.9-0.9c-0.2-0.3-0.3-0.6-0.4-0.9l-0.1,0l-0.7,5.7L1483.4,723.3z M1486.7,714.1c-0.1,0.8-0.1,1.4,0.1,2
			c0.1,0.6,0.4,1.1,0.8,1.5c0.4,0.4,0.9,0.6,1.5,0.7c0.6,0.1,1.2,0,1.6-0.3c0.5-0.3,0.8-0.7,1.1-1.3c0.3-0.5,0.5-1.2,0.6-1.9
			c0.1-0.7,0.1-1.4-0.1-2c-0.1-0.6-0.4-1.1-0.8-1.5c-0.4-0.4-0.9-0.6-1.5-0.7c-0.6-0.1-1.1,0-1.6,0.3c-0.5,0.3-0.8,0.7-1.1,1.2
			C1487,712.7,1486.8,713.4,1486.7,714.1z M1502.6,710.6l-0.2,1.7l-5.9-0.8l0.2-1.7L1502.6,710.6z M1498.6,707.5l2.1,0.3l-1.3,10.2
			c0,0.4,0,0.7,0.1,0.9c0.1,0.2,0.2,0.4,0.4,0.5c0.2,0.1,0.4,0.2,0.6,0.2c0.2,0,0.3,0,0.4,0c0.1,0,0.2,0,0.3,0l0.2,1.8
			c-0.1,0-0.3,0.1-0.5,0.1c-0.2,0-0.5,0-0.9,0c-0.6-0.1-1.1-0.2-1.5-0.5c-0.5-0.3-0.8-0.6-1-1.1c-0.2-0.5-0.3-1-0.2-1.7
			L1498.6,707.5z M1508,722.5c-1-0.1-1.9-0.5-2.6-1c-0.7-0.6-1.2-1.3-1.5-2.2c-0.3-0.9-0.4-1.9-0.3-3c0.2-1.1,0.5-2.1,1-2.9
			c0.5-0.8,1.2-1.4,2-1.7c0.8-0.4,1.7-0.5,2.7-0.4c1,0.1,1.9,0.5,2.6,1c0.7,0.6,1.2,1.3,1.5,2.2s0.4,1.9,0.3,3
			c-0.1,1.1-0.5,2.1-1,2.9c-0.5,0.8-1.2,1.4-2,1.7C1509.9,722.6,1509,722.7,1508,722.5z M1508.2,720.8c0.7,0.1,1.2,0,1.7-0.3
			c0.5-0.3,0.9-0.7,1.1-1.3c0.3-0.6,0.5-1.2,0.6-1.9c0.1-0.7,0.1-1.3-0.1-1.9c-0.1-0.6-0.4-1.1-0.8-1.5c-0.4-0.4-0.9-0.7-1.6-0.7
			c-0.7-0.1-1.2,0-1.7,0.3s-0.9,0.7-1.2,1.3c-0.3,0.6-0.5,1.2-0.5,1.9c-0.1,0.7-0.1,1.3,0.1,1.9c0.1,0.6,0.4,1.1,0.8,1.5
			C1507,720.5,1507.6,720.7,1508.2,720.8z"/>
		<path class="st1" d="M1399.4,762.9l-2.3-0.3l7-13.8l2.5,0.3l3.3,15.1l-2.3-0.3l-2.6-12.3l-0.1,0L1399.4,762.9z M1400.5,757.3
			l7.5,1l-0.2,1.8l-7.5-1L1400.5,757.3z M1413.7,750.1l2.5,12.3l0.2,0l5.5-11.2l2.3,0.3l-7,13.8l-2.5-0.3l-3.4-15.1L1413.7,750.1z
			 M1424.2,766.1l-2.3-0.3l7-13.8l2.5,0.3l3.3,15.1l-2.3-0.3l-2.6-12.3l-0.1,0L1424.2,766.1z M1425.3,760.5l7.5,1l-0.2,1.8l-7.5-1
			L1425.3,760.5z M1440.2,753.5l2.7,6.1l0.1,0l4.2-5.2l2.5,0.3l-5.4,6.6l3.6,7.8l-2.5-0.3l-2.8-6l-0.1,0l-4.2,5.1l-2.5-0.3l5.5-6.6
			l-3.7-7.8L1440.2,753.5z"/>
		<path class="st1" d="M1489,775.7l0.2-1.6l5.5-4.4c0.6-0.5,1.1-0.9,1.5-1.3c0.4-0.4,0.7-0.7,0.9-1.1c0.2-0.4,0.3-0.7,0.4-1.2
			c0.1-0.5,0-0.9-0.2-1.3c-0.2-0.4-0.4-0.7-0.8-0.9c-0.4-0.2-0.8-0.4-1.3-0.5c-0.5-0.1-1,0-1.4,0.1c-0.4,0.2-0.8,0.4-1,0.8
			c-0.3,0.4-0.4,0.8-0.5,1.3l-2.1-0.3c0.1-0.9,0.4-1.6,0.9-2.2c0.5-0.6,1.1-1,1.9-1.3c0.8-0.3,1.6-0.4,2.5-0.2
			c0.9,0.1,1.7,0.4,2.3,0.8c0.7,0.4,1.1,1,1.4,1.7c0.3,0.7,0.4,1.4,0.3,2.2c-0.1,0.5-0.2,1-0.5,1.5c-0.3,0.5-0.7,1-1.3,1.6
			c-0.6,0.6-1.4,1.2-2.3,2l-3.3,2.6l0,0.1l6.5,0.8l-0.2,1.9L1489,775.7z M1506.2,778.1c-1-0.1-1.8-0.4-2.5-0.8
			c-0.7-0.4-1.3-1-1.6-1.6c-0.4-0.7-0.5-1.4-0.4-2.2l2.2,0.3c0,0.4,0.1,0.8,0.3,1.2c0.2,0.3,0.5,0.6,0.9,0.9
			c0.4,0.2,0.9,0.4,1.4,0.4c0.6,0.1,1.1,0,1.5-0.1c0.5-0.1,0.9-0.4,1.1-0.7c0.3-0.3,0.5-0.7,0.5-1.2c0.1-0.5,0-0.9-0.2-1.3
			c-0.2-0.4-0.5-0.7-1-1c-0.4-0.3-1-0.4-1.7-0.5l-1.2-0.2l0.2-1.8l1.2,0.2c0.5,0.1,1,0,1.4-0.1c0.4-0.1,0.8-0.4,1.1-0.7
			c0.3-0.3,0.4-0.7,0.5-1.2c0.1-0.4,0-0.8-0.2-1.2c-0.2-0.4-0.4-0.7-0.8-0.9c-0.3-0.2-0.8-0.4-1.2-0.4c-0.5-0.1-0.9,0-1.3,0.1
			c-0.4,0.1-0.8,0.3-1.1,0.6c-0.3,0.3-0.5,0.6-0.6,1.1l-2.1-0.3c0.1-0.8,0.4-1.4,0.9-2c0.5-0.5,1.2-0.9,1.9-1.2
			c0.8-0.2,1.6-0.3,2.5-0.2c0.9,0.1,1.7,0.4,2.3,0.8c0.6,0.4,1.1,1,1.4,1.6c0.3,0.6,0.4,1.3,0.3,2c-0.1,0.8-0.4,1.5-0.9,2
			c-0.5,0.5-1.2,0.8-1.9,0.9l0,0.1c0.9,0.3,1.6,0.7,2.1,1.4c0.5,0.7,0.6,1.5,0.5,2.4c-0.1,0.8-0.4,1.5-0.9,2c-0.5,0.6-1.2,1-2,1.3
			C1508.1,778.2,1507.2,778.2,1506.2,778.1z M1514.9,779.2c-0.4,0-0.7-0.2-0.9-0.5c-0.2-0.3-0.3-0.7-0.3-1.1c0-0.4,0.2-0.7,0.5-0.9
			c0.3-0.2,0.7-0.3,1-0.3c0.4,0,0.7,0.2,0.9,0.5c0.3,0.3,0.3,0.7,0.3,1c0,0.3-0.1,0.5-0.3,0.7c-0.2,0.2-0.3,0.3-0.6,0.4
			C1515.4,779.2,1515.2,779.2,1514.9,779.2z M1523.5,780.3c-1-0.1-1.9-0.4-2.6-0.9c-0.7-0.4-1.3-1-1.6-1.7s-0.5-1.4-0.4-2.2
			c0.1-0.6,0.3-1.2,0.6-1.6c0.3-0.5,0.7-0.9,1.2-1.2c0.5-0.3,1-0.4,1.6-0.5l0-0.1c-0.7-0.3-1.2-0.7-1.6-1.4
			c-0.4-0.7-0.5-1.4-0.4-2.1c0.1-0.7,0.4-1.4,0.8-1.9c0.5-0.5,1.1-0.9,1.8-1.2s1.6-0.3,2.4-0.2c0.9,0.1,1.6,0.4,2.3,0.8
			c0.7,0.4,1.1,1,1.5,1.6c0.3,0.6,0.4,1.3,0.4,2c-0.1,0.8-0.4,1.4-0.9,2c-0.5,0.5-1.1,0.9-1.8,0.9l0,0.1c0.5,0.2,1,0.4,1.4,0.8
			c0.4,0.4,0.7,0.9,0.9,1.4c0.2,0.5,0.3,1.1,0.2,1.7c-0.1,0.8-0.4,1.4-0.9,2c-0.5,0.6-1.2,1-2,1.2
			C1525.4,780.4,1524.5,780.4,1523.5,780.3z M1523.8,778.5c0.6,0.1,1.1,0,1.6-0.1c0.5-0.1,0.8-0.4,1.1-0.7c0.3-0.3,0.5-0.7,0.5-1.2
			c0.1-0.5,0-1-0.2-1.4c-0.2-0.4-0.5-0.8-0.9-1c-0.4-0.3-0.9-0.5-1.5-0.5c-0.6-0.1-1.1,0-1.6,0.1c-0.5,0.2-0.8,0.4-1.1,0.8
			c-0.3,0.4-0.5,0.8-0.6,1.3c-0.1,0.5,0,0.9,0.2,1.3c0.2,0.4,0.5,0.7,0.9,1C1522.7,778.3,1523.2,778.4,1523.8,778.5z M1524.6,771.8
			c0.5,0.1,0.9,0,1.3-0.1c0.4-0.1,0.7-0.4,1-0.7c0.3-0.3,0.4-0.7,0.5-1.2c0.1-0.5,0-0.9-0.2-1.2c-0.2-0.4-0.4-0.7-0.8-0.9
			c-0.3-0.2-0.8-0.4-1.3-0.4c-0.5-0.1-0.9,0-1.3,0.1c-0.4,0.1-0.7,0.4-1,0.7s-0.4,0.7-0.5,1.1c-0.1,0.5,0,0.9,0.2,1.2
			c0.2,0.4,0.4,0.7,0.8,0.9C1523.7,771.6,1524.1,771.7,1524.6,771.8z M1535.9,781.9c-0.9-0.1-1.6-0.4-2.3-0.8
			c-0.7-0.4-1.2-1-1.5-1.6c-0.3-0.6-0.5-1.4-0.4-2.1l2.1,0.3c0,0.6,0.2,1.2,0.6,1.6c0.5,0.5,1,0.7,1.7,0.8c0.6,0.1,1.1,0,1.5-0.2
			c0.5-0.2,0.9-0.5,1.2-0.9c0.3-0.4,0.5-0.9,0.6-1.5c0.1-0.6,0-1.1-0.2-1.6c-0.2-0.5-0.5-0.9-0.9-1.2c-0.4-0.3-0.9-0.5-1.5-0.6
			c-0.4-0.1-0.9,0-1.3,0.1s-0.8,0.2-1.2,0.5l-1.9-0.5l1.7-7.2l7.9,1l-0.2,1.9l-6.1-0.8l-1,4l0.1,0c0.3-0.2,0.7-0.4,1.2-0.5
			c0.5-0.1,1-0.2,1.5-0.1c0.9,0.1,1.6,0.4,2.3,0.9c0.6,0.5,1.1,1.1,1.4,1.9c0.3,0.8,0.4,1.6,0.3,2.6c-0.1,0.9-0.4,1.7-1,2.4
			c-0.5,0.7-1.2,1.2-2,1.5C1537.8,781.9,1536.9,782,1535.9,781.9z M1547.7,785l2.3-18l1.1,0.1l-2.3,18L1547.7,785z M1552.9,773
			c0-0.7-0.2-1.2-0.7-1.7c-0.5-0.4-1.2-0.7-2-0.8c-0.6-0.1-1.1,0-1.6,0.1c-0.5,0.1-0.8,0.3-1.1,0.6c-0.3,0.3-0.4,0.6-0.5,1
			c0,0.3,0,0.6,0.1,0.9c0.1,0.3,0.3,0.5,0.6,0.7c0.3,0.2,0.5,0.4,0.8,0.5c0.3,0.1,0.6,0.3,0.8,0.4l1.4,0.5c0.4,0.2,0.9,0.4,1.4,0.6
			c0.4,0.3,0.9,0.6,1.2,0.9c0.4,0.4,0.7,0.8,0.9,1.3c0.2,0.5,0.3,1.1,0.2,1.7c-0.1,0.8-0.4,1.5-0.9,2.1c-0.5,0.6-1.2,1-2,1.3
			c-0.8,0.3-1.8,0.3-2.9,0.2c-1.1-0.1-2-0.4-2.7-0.9c-0.7-0.4-1.3-1-1.7-1.7c-0.4-0.7-0.5-1.5-0.5-2.3l2.2,0.3c0,0.5,0.1,1,0.3,1.4
			c0.3,0.4,0.6,0.7,1,0.9c0.5,0.2,1,0.4,1.5,0.4c0.6,0.1,1.2,0.1,1.7-0.1c0.5-0.1,0.9-0.4,1.3-0.7c0.3-0.3,0.5-0.7,0.6-1.2
			c0.1-0.4,0-0.8-0.2-1.1c-0.2-0.3-0.5-0.6-0.9-0.8c-0.4-0.2-0.8-0.4-1.3-0.6l-1.6-0.7c-1.1-0.5-2-1-2.6-1.7
			c-0.6-0.7-0.8-1.5-0.7-2.6c0.1-0.8,0.4-1.5,0.9-2.1c0.5-0.6,1.2-1,2-1.2c0.8-0.2,1.7-0.3,2.7-0.2c1,0.1,1.8,0.4,2.5,0.8
			c0.7,0.4,1.2,1,1.6,1.6c0.3,0.7,0.5,1.4,0.4,2.1L1552.9,773z"/>
		<path class="st1" d="M1701.4,794.7l-12.3-1.6l0.3-2.3l12.3,1.6L1701.4,794.7z"/>
		<path class="st1" d="M1659.1,734.2c1.6,0.2,3-0.9,3.2-2.5c0.2-1.6-0.9-3-2.5-3.2c-1.6-0.2-3,0.9-3.2,2.5
			C1656.4,732.6,1657.6,734,1659.1,734.2z"/>
		<path class="st1" d="M1667.3,735.3c1.6,0.2,3-0.9,3.2-2.5c0.2-1.6-0.9-3-2.5-3.2c-1.6-0.2-3,0.9-3.2,2.5
			C1664.7,733.6,1665.8,735.1,1667.3,735.3z"/>
		<path class="st1" d="M1658.1,742.4c1.6,0.2,3-0.9,3.2-2.5c0.2-1.6-0.9-3-2.5-3.2c-1.6-0.2-3,0.9-3.2,2.5
			C1655.4,740.8,1656.5,742.2,1658.1,742.4z"/>
		<path class="st1" d="M1666.3,743.5c1.6,0.2,3-0.9,3.2-2.5c0.2-1.6-0.9-3-2.5-3.2c-1.6-0.2-3,0.9-3.2,2.5
			C1663.6,741.8,1664.7,743.3,1666.3,743.5z"/>
		<path class="st1" d="M1381.2,733.4l-26.8-3.4c-3.8-0.5-7.3,2.2-7.8,6.1l-3.4,26.8c-0.5,3.8,2.2,7.3,6.1,7.8l26.8,3.4
			c3.8,0.5,7.3-2.2,7.8-6.1l3.4-26.8C1387.7,737.4,1385,733.9,1381.2,733.4z"/>
		<path class="st1" d="M1373.3,744.8l-14.7-1.9l-1.7,13.4l14.7,1.9L1373.3,744.8z"/>
		<path class="st2" d="M1376.9,753.2c-0.8,6.6-6.8,11.2-13.4,10.4c-6.6-0.8-11.2-6.8-10.4-13.4c0.8-6.6,6.8-11.2,13.4-10.4
			C1373.1,740.6,1377.7,746.6,1376.9,753.2z M1361,756l-2.3-0.3c-0.5-0.1-0.7-0.1-0.9-0.2c-0.2-0.1-0.2-0.3-0.2-0.5
			c0-0.2,0.2-0.4,0.4-0.8l7-9.3c0.3-0.4,0.5-0.6,0.6-0.7c0.2-0.1,0.4,0,0.5,0.1c0.1,0.1,0.2,0.3,0.4,0.8l0.9,2.2v0
			c0.2,0.5,0.3,0.7,0.3,1c0,0.3,0,0.6-0.1,0.8c-0.1,0.2-0.3,0.5-0.6,0.9l-3.7,4.9l0,0c-0.3,0.4-0.5,0.6-0.7,0.8
			c-0.2,0.2-0.5,0.3-0.8,0.3C1361.8,756.1,1361.6,756.1,1361,756z M1366.9,756.7l3.3,0.4c0.5,0.1,0.7,0.1,0.9,0
			c0.2-0.1,0.3-0.2,0.3-0.4c0-0.2-0.1-0.4-0.2-0.8c0,0,0,0,0,0l-1.3-3l0,0c-0.2-0.4-0.3-0.6-0.4-0.7c-0.2-0.1-0.3-0.1-0.5-0.1
			c-0.2,0.1-0.3,0.3-0.6,0.6l-2,2.6l0,0c-0.3,0.4-0.4,0.6-0.4,0.8c0,0.2,0.1,0.4,0.2,0.5C1366.1,756.7,1366.4,756.7,1366.9,756.7z"
			/>
		<path class="st3" d="M1381.1,733.9l-26.8-3.4c-3.6-0.5-6.8,2.1-7.3,5.6l-3.4,26.8c-0.4,3.6,2.1,6.8,5.6,7.3l26.8,3.4
			c3.6,0.5,6.8-2.1,7.3-5.6l3.4-26.8C1387.2,737.6,1384.6,734.4,1381.1,733.9z"/>
		
			<linearGradient id="SVGID_3_" gradientUnits="userSpaceOnUse" x1="1328.6334" y1="559.1414" x2="1174.6334" y2="605.4484" gradientTransform="matrix(1 0 0 -1 0 1296)">
			<stop  offset="0" style="stop-color:#9500DA"/>
			<stop  offset="1" style="stop-color:#9500DA;stop-opacity:0"/>
		</linearGradient>
		<path class="st4" d="M1156.3,695.2c0,0,37.3,13.8,82.3,23.3s83.4,5.2,83.4,5.2"/>
		
			<linearGradient id="SVGID_4_" gradientUnits="userSpaceOnUse" x1="1509.2323" y1="618.7905" x2="1680.2323" y2="1323.7905" gradientTransform="matrix(1 0 0 -1 0 1296)">
			<stop  offset="1.065558e-07" style="stop-color:#9500DA"/>
			<stop  offset="1" style="stop-color:#9500DA;stop-opacity:0"/>
		</linearGradient>
		<path class="st5" d="M1537.6,673.6c0,0,50.8-164.6,81.4-349.6s30.5-355.2,30.5-355.2"/>
		<path class="st6" d="M1742.5,699.8L1332,649.4l-18.8,152.7l410.5,50.4L1742.5,699.8z"/>
		<path class="st7" d="M1337.6,645.3l-8.9-1.1l-1.1,8.9l8.9,1.1L1337.6,645.3z"/>
		<path class="st7" d="M1748.6,694.3l-8.9-1.1l-1.1,8.9l8.9,1.1L1748.6,694.3z"/>
		<path class="st7" d="M1728.6,848.3l-8.9-1.1l-1.1,8.9l8.9,1.1L1728.6,848.3z"/>
		<g>
			<path d="M1700.4,740.1l16.4,10.9l-8.9,1.8l-5.9,6.9L1700.4,740.1z"/>
			<path class="st8" d="M1702.6,757.9l-1.4-16.3l13.6,9.1l-7.1,1.5l-0.3,0.1l-0.2,0.2L1702.6,757.9z"/>
		</g>
		<path class="st7" d="M1318.6,798.3l-8.9-1.1l-1.1,8.9l8.9,1.1L1318.6,798.3z"/>
		<path class="st1" d="M534.2,637.4l0.7,7l-1.8,0.2l-0.7-7l-6.4,0.7l-0.2-1.8l6.4-0.7l-0.7-6.8l1.8-0.2l0.7,6.8l6.4-0.7l0.2,1.8
			L534.2,637.4z"/>
		<path class="st1" d="M499.1,700.5c-2.6,0.3-5.4-0.5-8.3-2.1c-2.1-1.2-3.5-2.5-3.6-2.6c-0.2-0.2-0.3-0.6-0.1-0.8
			c0-0.1,1.1-1.6,3-3.2c2.5-2.2,5.1-3.5,7.7-3.7c2.6-0.3,5.4,0.5,8.3,2.1c2.1,1.2,3.5,2.5,3.6,2.6c0.2,0.2,0.3,0.6,0.1,0.8
			c0,0.1-1.1,1.6-3,3.2C504.3,699,501.7,700.3,499.1,700.5z M488.5,695.3c0.5,0.5,1.6,1.3,2.9,2c1.8,1,4.6,2.2,7.5,1.9
			c2.9-0.3,5.4-2,7-3.4c1.2-1,2-2,2.4-2.6c-0.5-0.5-1.6-1.3-2.9-2c-1.8-1-4.6-2.2-7.5-1.9c-2.9,0.3-5.4,2-7,3.4
			C489.8,693.8,489,694.7,488.5,695.3z"/>
		<path class="st1" d="M498.8,697.6c-1.8,0.2-3.4-1.1-3.6-2.9c-0.2-1.8,1.1-3.4,2.9-3.6c1.8-0.2,3.4,1.1,3.6,2.9
			C501.9,695.8,500.6,697.4,498.8,697.6z"/>
		<path class="st1" d="M184.3,678.6l-1.5-14.5l9.1-0.9l0.2,1.9l-6.9,0.7l0.4,4.4l6.4-0.7l0.2,1.9l-6.4,0.7l0.5,4.4l7-0.7l0.2,1.9
			L184.3,678.6z M196.7,666.4l2.8,4l2-4.5l2.3-0.2l-2.8,5.8l4,5.1l-2.3,0.2l-2.9-3.8l-2,4.3l-2.3,0.2l2.8-5.8l-3.9-5.1L196.7,666.4z
			 M211.3,676.1c-1.1,0.1-2,0-2.8-0.4c-0.8-0.4-1.5-1-1.9-1.8c-0.5-0.8-0.8-1.7-0.9-2.8c-0.1-1.1,0-2.1,0.3-3
			c0.3-0.9,0.8-1.6,1.6-2.2c0.7-0.6,1.6-0.9,2.6-1c0.8-0.1,1.6,0,2.3,0.2c0.7,0.2,1.2,0.6,1.7,1.1c0.5,0.5,0.8,1.1,0.9,1.8l-2.1,0.2
			c-0.2-0.5-0.5-0.9-0.9-1.2c-0.4-0.3-1-0.5-1.7-0.4c-0.6,0.1-1.1,0.3-1.5,0.6c-0.4,0.4-0.7,0.8-0.9,1.4c-0.2,0.6-0.2,1.3-0.2,2
			c0.1,0.8,0.3,1.5,0.6,2c0.3,0.5,0.7,1,1.2,1.2c0.5,0.3,1,0.4,1.6,0.3c0.4,0,0.8-0.2,1.1-0.3c0.3-0.2,0.6-0.4,0.8-0.7
			c0.2-0.3,0.3-0.7,0.4-1.1l2.1-0.2c0,0.7-0.2,1.4-0.5,1.9c-0.3,0.6-0.8,1.1-1.4,1.5C212.9,675.7,212.1,676,211.3,676.1z
			 M219.4,668.5l0.7,6.4l-2.1,0.2l-1.5-14.5l2.1-0.2l0.6,5.4l0.1,0c0.2-0.6,0.5-1.1,1-1.5c0.5-0.4,1.2-0.6,2-0.7
			c0.7-0.1,1.4,0,2,0.3c0.6,0.3,1.1,0.7,1.4,1.2c0.4,0.6,0.6,1.3,0.7,2.2l0.7,6.9l-2.1,0.2l-0.7-6.6c-0.1-0.8-0.4-1.4-0.8-1.8
			c-0.5-0.4-1-0.6-1.8-0.5c-0.5,0.1-0.9,0.2-1.3,0.5c-0.4,0.3-0.6,0.6-0.8,1C219.4,667.4,219.4,667.9,219.4,668.5z M233.1,673.9
			c-0.7,0.1-1.3,0-1.9-0.2c-0.6-0.2-1.1-0.5-1.4-1c-0.4-0.5-0.6-1-0.7-1.8c-0.1-0.6,0-1.1,0.2-1.5c0.2-0.4,0.5-0.8,0.9-1
			c0.4-0.3,0.8-0.5,1.3-0.7c0.5-0.2,1-0.3,1.5-0.4c0.6-0.1,1.2-0.3,1.6-0.3c0.4-0.1,0.7-0.2,0.9-0.3c0.2-0.1,0.2-0.3,0.2-0.6l0-0.1
			c-0.1-0.6-0.3-1.1-0.7-1.4c-0.4-0.3-0.9-0.4-1.6-0.4c-0.7,0.1-1.3,0.3-1.6,0.6c-0.4,0.4-0.6,0.7-0.7,1.1l-2-0.3
			c0.2-0.7,0.5-1.3,0.9-1.7c0.4-0.5,0.9-0.8,1.5-1.1c0.6-0.2,1.2-0.4,1.8-0.5c0.4,0,0.9,0,1.4,0c0.5,0,1,0.2,1.4,0.4
			c0.5,0.2,0.8,0.6,1.2,1c0.3,0.5,0.5,1.1,0.6,1.9l0.7,7.2l-2.1,0.2l-0.2-1.5l-0.1,0c-0.1,0.3-0.3,0.6-0.5,0.9
			c-0.2,0.3-0.6,0.5-1,0.8C234.2,673.7,233.7,673.8,233.1,673.9z M233.4,672.1c0.6-0.1,1.1-0.2,1.5-0.5c0.4-0.3,0.7-0.6,0.9-1
			c0.2-0.4,0.3-0.8,0.2-1.2l-0.1-1.4c-0.1,0.1-0.2,0.2-0.4,0.3c-0.2,0.1-0.4,0.2-0.7,0.2c-0.3,0.1-0.5,0.1-0.8,0.2
			c-0.3,0.1-0.5,0.1-0.6,0.2c-0.4,0.1-0.8,0.2-1.1,0.4c-0.3,0.2-0.6,0.4-0.8,0.6c-0.2,0.2-0.3,0.6-0.2,0.9c0,0.5,0.3,0.9,0.7,1.1
			C232.3,672.1,232.8,672.2,233.4,672.1z M242.7,666.1l0.7,6.4l-2.1,0.2l-1.1-10.9l2-0.2l0.2,1.8l0.1,0c0.2-0.6,0.5-1.1,1-1.5
			c0.5-0.4,1.2-0.6,2-0.7c0.7-0.1,1.4,0,2,0.3c0.6,0.3,1.1,0.7,1.4,1.2c0.4,0.6,0.6,1.3,0.7,2.2l0.7,6.9l-2.1,0.2l-0.7-6.6
			c-0.1-0.8-0.4-1.4-0.8-1.8c-0.5-0.4-1-0.6-1.8-0.5c-0.5,0-0.9,0.2-1.3,0.4c-0.4,0.3-0.6,0.6-0.8,1
			C242.7,665,242.7,665.5,242.7,666.1z M258.1,675.4c-0.9,0.1-1.6,0.1-2.3-0.1c-0.6-0.2-1.2-0.4-1.6-0.7c-0.4-0.3-0.8-0.7-1-1.1
			l1.7-0.9c0.1,0.2,0.3,0.4,0.6,0.6c0.2,0.2,0.6,0.4,0.9,0.5c0.4,0.1,0.9,0.2,1.5,0.1c0.8-0.1,1.4-0.3,1.9-0.8
			c0.5-0.4,0.7-1.1,0.6-1.9l-0.2-2.1l-0.1,0c-0.1,0.2-0.3,0.5-0.5,0.8c-0.2,0.3-0.5,0.6-0.9,0.8c-0.4,0.3-0.9,0.4-1.6,0.5
			c-0.9,0.1-1.7,0-2.4-0.4c-0.7-0.3-1.3-0.9-1.8-1.6c-0.5-0.8-0.8-1.7-0.9-2.9c-0.1-1.2,0-2.2,0.3-3c0.3-0.9,0.8-1.5,1.4-2.1
			c0.6-0.5,1.4-0.8,2.3-0.9c0.7-0.1,1.2,0,1.7,0.2c0.4,0.2,0.8,0.4,1.1,0.7c0.3,0.3,0.5,0.5,0.6,0.7l0.2,0l-0.2-1.8l2.1-0.2
			l1.1,11.1c0.1,0.9-0.1,1.7-0.4,2.4c-0.4,0.6-0.9,1.1-1.6,1.5C259.9,675.1,259.1,675.3,258.1,675.4z M257.5,669.2
			c0.6-0.1,1.1-0.3,1.5-0.6c0.4-0.3,0.7-0.8,0.8-1.3c0.2-0.6,0.2-1.2,0.1-2c-0.1-0.7-0.2-1.4-0.5-1.9c-0.3-0.5-0.6-0.9-1.1-1.2
			c-0.5-0.3-1-0.4-1.6-0.3c-0.6,0.1-1.1,0.3-1.5,0.7c-0.4,0.4-0.7,0.8-0.8,1.4c-0.2,0.6-0.2,1.2-0.1,1.9c0.1,0.7,0.2,1.3,0.5,1.8
			c0.3,0.5,0.6,0.9,1.1,1.2C256.3,669.2,256.9,669.3,257.5,669.2z M270.1,670.1c-1.1,0.1-2,0-2.8-0.4c-0.8-0.4-1.5-1-2-1.8
			c-0.5-0.8-0.8-1.8-0.9-2.9c-0.1-1.1,0-2.1,0.3-3c0.3-0.9,0.8-1.6,1.6-2.2c0.7-0.6,1.6-0.9,2.6-1c0.6-0.1,1.2,0,1.8,0.1
			c0.6,0.1,1.1,0.4,1.6,0.8c0.5,0.4,0.9,0.9,1.3,1.6c0.3,0.7,0.6,1.5,0.7,2.5l0.1,0.7l-8.6,0.9l-0.2-1.6l6.6-0.7
			c-0.1-0.6-0.2-1-0.5-1.4c-0.3-0.4-0.6-0.7-1.1-0.9c-0.4-0.2-0.9-0.3-1.5-0.2c-0.6,0.1-1.1,0.3-1.5,0.6c-0.4,0.3-0.7,0.7-0.9,1.2
			c-0.2,0.5-0.3,1-0.2,1.5l0.1,1.2c0.1,0.7,0.3,1.3,0.6,1.8c0.3,0.5,0.7,0.8,1.2,1.1c0.5,0.2,1,0.3,1.7,0.2c0.4,0,0.8-0.1,1.1-0.3
			c0.3-0.2,0.6-0.4,0.8-0.6c0.2-0.3,0.4-0.6,0.5-0.9l2,0.2c-0.1,0.6-0.3,1.2-0.7,1.6c-0.4,0.5-0.8,0.9-1.4,1.2
			C271.6,669.8,270.9,670,270.1,670.1z M293.6,657.6l-2.2,0.2c-0.1-0.5-0.3-0.9-0.6-1.2c-0.3-0.3-0.6-0.6-0.9-0.8
			c-0.4-0.2-0.8-0.4-1.2-0.5c-0.4-0.1-0.9-0.1-1.3-0.1c-0.8,0.1-1.6,0.4-2.2,0.9c-0.6,0.5-1.1,1.2-1.4,2c-0.3,0.8-0.4,1.9-0.3,3
			c0.1,1.2,0.4,2.2,0.9,2.9c0.5,0.8,1,1.3,1.7,1.7c0.7,0.3,1.5,0.5,2.3,0.4c0.5,0,0.9-0.2,1.3-0.3c0.4-0.2,0.8-0.4,1.1-0.7
			c0.3-0.3,0.6-0.6,0.8-1c0.2-0.4,0.3-0.8,0.4-1.3l2.2-0.2c0,0.7-0.2,1.4-0.5,2c-0.3,0.6-0.7,1.2-1.1,1.7c-0.5,0.5-1,0.9-1.7,1.2
			c-0.6,0.3-1.4,0.5-2.2,0.6c-1.3,0.1-2.4-0.1-3.4-0.5c-1-0.5-1.9-1.3-2.6-2.3c-0.7-1.1-1.1-2.4-1.2-3.9c-0.2-1.5,0-2.9,0.4-4.1
			c0.4-1.2,1.1-2.1,2.1-2.8c0.9-0.7,2-1.1,3.3-1.2c0.8-0.1,1.5,0,2.2,0.1c0.7,0.1,1.3,0.4,1.9,0.8c0.6,0.4,1.1,0.8,1.5,1.4
			C293.1,656.1,293.4,656.8,293.6,657.6z M297,667.1l-1.1-10.9l2-0.2l0.2,1.7l0.1,0c0.1-0.6,0.4-1.1,0.9-1.5c0.5-0.4,1-0.6,1.7-0.7
			c0.1,0,0.3,0,0.5,0c0.2,0,0.3,0,0.4,0l0.2,2c-0.1,0-0.2,0-0.5,0c-0.2,0-0.4,0-0.7,0c-0.5,0.1-0.9,0.2-1.3,0.5
			c-0.4,0.2-0.6,0.6-0.8,1c-0.2,0.4-0.3,0.8-0.2,1.3l0.7,6.6L297,667.1z M306.7,670.2c-0.3,0-0.6,0-0.9,0c-0.3,0-0.5-0.1-0.6-0.1
			l0.3-1.8c0.4,0.1,0.7,0.1,1.1,0c0.3,0,0.6-0.2,0.8-0.4c0.2-0.2,0.4-0.6,0.5-1.1l0.2-0.7l-5.1-10.6l2.3-0.2l3.6,8.1l0.1,0l1.9-8.7
			l2.3-0.2l-3.2,12.8c-0.1,0.6-0.4,1.1-0.6,1.5c-0.3,0.4-0.6,0.8-1,1C307.8,670,307.3,670.2,306.7,670.2z M316.7,669.2l-1.5-14.9
			l2.1-0.2l0.2,1.8l0.2,0c0.1-0.2,0.2-0.5,0.5-0.8c0.2-0.3,0.5-0.6,0.9-0.9c0.4-0.3,0.9-0.4,1.6-0.5c0.9-0.1,1.7,0.1,2.4,0.4
			c0.7,0.4,1.3,1,1.8,1.8c0.5,0.8,0.8,1.8,0.9,2.9c0.1,1.2,0,2.2-0.3,3.1c-0.3,0.9-0.8,1.6-1.4,2.1c-0.6,0.5-1.4,0.8-2.3,0.9
			c-0.7,0.1-1.2,0-1.6-0.2c-0.4-0.2-0.8-0.4-1.1-0.7c-0.3-0.3-0.5-0.5-0.6-0.7l-0.1,0l0.6,5.8L316.7,669.2z M317.8,659.5
			c0.1,0.8,0.3,1.4,0.5,2c0.3,0.6,0.6,1,1.1,1.3c0.5,0.3,1,0.4,1.6,0.3c0.6-0.1,1.1-0.3,1.5-0.7c0.4-0.4,0.7-0.9,0.8-1.5
			c0.2-0.6,0.2-1.3,0.1-2c-0.1-0.7-0.2-1.3-0.5-1.9c-0.3-0.5-0.6-1-1.1-1.3c-0.5-0.3-1-0.4-1.6-0.3c-0.6,0.1-1.1,0.3-1.5,0.6
			c-0.4,0.4-0.7,0.8-0.8,1.4C317.7,658.1,317.7,658.7,317.8,659.5z M332.5,652.5l0.2,1.7l-5.9,0.6l-0.2-1.7L332.5,652.5z
			 M327.9,650.4l2.1-0.2l1,10.3c0,0.4,0.1,0.7,0.3,0.9c0.1,0.2,0.3,0.3,0.5,0.4c0.2,0,0.4,0.1,0.7,0c0.2,0,0.3,0,0.4-0.1
			c0.1,0,0.2-0.1,0.3-0.1l0.6,1.7c-0.1,0.1-0.3,0.1-0.5,0.2c-0.2,0.1-0.5,0.1-0.8,0.2c-0.6,0.1-1.1,0-1.6-0.1
			c-0.5-0.2-0.9-0.4-1.3-0.8c-0.3-0.4-0.5-0.9-0.6-1.6L327.9,650.4z M340.4,662.9c-1,0.1-1.9,0-2.7-0.4c-0.8-0.4-1.5-1-2-1.8
			c-0.5-0.8-0.8-1.8-0.9-2.9c-0.1-1.1,0-2.1,0.3-3c0.3-0.9,0.9-1.6,1.6-2.1c0.7-0.5,1.6-0.9,2.6-1c1-0.1,1.9,0,2.7,0.4s1.5,1,2,1.8
			c0.5,0.8,0.8,1.8,0.9,2.9c0.1,1.1,0,2.1-0.3,3c-0.3,0.9-0.9,1.6-1.6,2.1C342.3,662.5,341.4,662.8,340.4,662.9z M340.2,661.1
			c0.7-0.1,1.2-0.3,1.6-0.7c0.4-0.4,0.7-0.9,0.8-1.5c0.1-0.6,0.2-1.2,0.1-1.9c-0.1-0.7-0.2-1.3-0.5-1.9c-0.3-0.6-0.6-1-1.1-1.3
			c-0.5-0.3-1-0.4-1.7-0.4c-0.7,0.1-1.2,0.3-1.6,0.7c-0.4,0.4-0.7,0.9-0.8,1.5c-0.1,0.6-0.2,1.2-0.1,1.9c0.1,0.7,0.2,1.3,0.5,1.9
			c0.3,0.6,0.6,1,1.1,1.3C339,661.1,339.6,661.2,340.2,661.1z"/>
		<path class="st1" d="M545.1,689.4l-12.3,1.3l-0.2-2.3l12.3-1.3L545.1,689.4z"/>
		<path class="st1" d="M490.3,640.1c1.6-0.2,2.7-1.6,2.6-3.1c-0.2-1.6-1.6-2.7-3.1-2.6s-2.7,1.6-2.6,3.1
			C487.3,639.1,488.7,640.2,490.3,640.1z"/>
		<path class="st1" d="M498.5,639.2c1.6-0.2,2.7-1.6,2.6-3.1c-0.2-1.6-1.6-2.7-3.1-2.6s-2.7,1.6-2.6,3.1
			C495.5,638.3,496.9,639.4,498.5,639.2z"/>
		<path class="st1" d="M491.1,648.3c1.6-0.2,2.7-1.6,2.6-3.1c-0.2-1.6-1.6-2.7-3.1-2.6c-1.6,0.2-2.7,1.6-2.6,3.1
			S489.5,648.5,491.1,648.3z"/>
		<path class="st1" d="M499.3,647.5c1.6-0.2,2.7-1.6,2.6-3.1c-0.2-1.6-1.6-2.7-3.1-2.6c-1.6,0.2-2.7,1.6-2.6,3.1
			C496.3,646.5,497.8,647.6,499.3,647.5z"/>
		<path class="st1" d="M219.3,702.2l-26.9,2.7c-3.8,0.4-6.6,3.8-6.3,7.7l2.7,26.9c0.4,3.8,3.8,6.6,7.7,6.3l26.9-2.7
			c3.8-0.4,6.6-3.8,6.3-7.7l-2.7-26.9C226.6,704.6,223.2,701.8,219.3,702.2z"/>
		<path class="st3" d="M219.4,702.7l-26.9,2.7c-3.6,0.4-6.2,3.6-5.8,7.1l2.7,26.9c0.4,3.6,3.6,6.2,7.1,5.8l26.9-2.7
			c3.6-0.4,6.2-3.6,5.8-7.1l-2.7-26.9C226.1,704.9,222.9,702.3,219.4,702.7z"/>
		<path class="st6" d="M563.7,587.7l-411.2,43.8l16.3,153L580,740.7L563.7,587.7z"/>
		<path class="st7" d="M156.9,626.2l-8.9,1l1,9l8.9-1L156.9,626.2z"/>
		<path class="st7" d="M568.4,581l-8.9,1l1,8.9l8.9-1L568.4,581z"/>
		<path class="st7" d="M583.7,735.5l-9,1l1,9l8.9-1L583.7,735.5z"/>
		<g>
			<path d="M531.8,636.4l18.5,6.9l-8.3,3.8l-4.2,8.1L531.8,636.4z"/>
			<path class="st8" d="M538,653.3l-5-15.6l15.3,5.7l-6.6,3l-0.2,0.1l-0.1,0.2L538,653.3z"/>
		</g>
		<path class="st7" d="M173.1,779.6l-8.9,1l1,8.9l8.9-1L173.1,779.6z"/>
		
			<linearGradient id="SVGID_5_" gradientUnits="userSpaceOnUse" x1="320.1563" y1="681.845" x2="205.6563" y2="1311.345" gradientTransform="matrix(1 0 0 -1 0 1296)">
			<stop  offset="0" style="stop-color:#9500DA"/>
			<stop  offset="1" style="stop-color:#9500DA;stop-opacity:0"/>
		</linearGradient>
		<path class="st9" d="M343.1,610.3c0,0-66.6-151.3-102.1-310.3S194.5-8.7,194.5-8.7"/>
		
			<linearGradient id="SVGID_6_" gradientUnits="userSpaceOnUse" x1="602.1478" y1="648.8254" x2="722.3818" y2="657.4134" gradientTransform="matrix(1 0 0 -1 0 1296)">
			<stop  offset="2.131116e-07" style="stop-color:#9500DA"/>
			<stop  offset="1" style="stop-color:#9500DA;stop-opacity:0"/>
		</linearGradient>
		<path class="st10" d="M717,621c0,0-21,15.5-61.5,29S574,666.9,574,666.9"/>
		<path class="st1" d="M240,713.3l2.7-0.3l5.7,10.8l0.2,0l3.5-11.7l2.7-0.3l1.4,14.5l-2.1,0.2l-1-10.5l-0.1,0l-3.3,10.9l-1.7,0.2
			l-5.3-10.1l-0.1,0l1,10.5l-2.1,0.2L240,713.3z"/>
		<path class="st1" d="M260.3,726l-2.3,0.2l3.8-15l2.5-0.2l6.6,14l-2.3,0.2l-5.2-11.5l-0.1,0L260.3,726z M260.2,720.2l7.5-0.7
			l0.2,1.8l-7.5,0.7L260.2,720.2z"/>
		<path class="st1" d="M269.2,712.4l-0.2-1.9l11.2-1.1l0.2,1.9l-4.5,0.4l1.2,12.6l-2.2,0.2l-1.2-12.6L269.2,712.4z"/>
		<path class="st1" d="M284.8,709l1.4,14.5l-2.2,0.2l-1.4-14.5L284.8,709z"/>
		<path class="st1" d="M300.3,712.2l-2.2,0.2c-0.1-0.5-0.3-0.9-0.6-1.2s-0.6-0.6-0.9-0.8c-0.4-0.2-0.8-0.4-1.2-0.5
			c-0.4-0.1-0.9-0.1-1.3-0.1c-0.8,0.1-1.6,0.4-2.2,0.8c-0.6,0.5-1.1,1.2-1.4,2c-0.3,0.8-0.4,1.9-0.3,3c0.1,1.2,0.4,2.2,0.9,2.9
			c0.5,0.8,1,1.3,1.7,1.7c0.7,0.4,1.5,0.5,2.3,0.4c0.5,0,0.9-0.1,1.3-0.3c0.4-0.2,0.8-0.4,1.1-0.7c0.3-0.3,0.6-0.6,0.8-1
			c0.2-0.4,0.3-0.8,0.4-1.3l2.2-0.2c0,0.7-0.2,1.4-0.5,2c-0.3,0.6-0.7,1.2-1.1,1.7c-0.5,0.5-1.1,0.9-1.7,1.2
			c-0.7,0.3-1.4,0.5-2.2,0.6c-1.3,0.1-2.4-0.1-3.4-0.6c-1-0.5-1.9-1.3-2.6-2.3c-0.7-1.1-1.1-2.4-1.2-3.9c-0.1-1.5,0-2.9,0.5-4.1
			c0.5-1.2,1.2-2.1,2.1-2.8c0.9-0.7,2-1.1,3.3-1.2c0.8-0.1,1.5,0,2.2,0.1c0.7,0.2,1.3,0.4,1.9,0.8c0.6,0.4,1.1,0.8,1.5,1.4
			C299.8,710.8,300.1,711.5,300.3,712.2z"/>
		<path class="st1" d="M339.3,718.6c-1.1,0.1-2.1-0.1-3-0.6c-0.9-0.5-1.5-1.3-2.1-2.4c-0.5-1.1-0.9-2.4-1-4
			c-0.2-1.6-0.1-2.9,0.2-4.1c0.3-1.2,0.8-2.1,1.6-2.7c0.7-0.7,1.7-1,2.8-1.2c1.1-0.1,2.1,0.1,2.9,0.6c0.9,0.5,1.5,1.3,2.1,2.4
			c0.5,1.1,0.9,2.4,1,4c0.2,1.6,0.1,3-0.2,4.1c-0.3,1.2-0.8,2.1-1.6,2.7C341.3,718.1,340.4,718.5,339.3,718.6z M339.1,716.7
			c1-0.1,1.7-0.6,2.2-1.7c0.5-1,0.6-2.4,0.4-4.2c-0.1-1.2-0.3-2.2-0.7-3c-0.3-0.8-0.8-1.4-1.3-1.8c-0.5-0.4-1.1-0.6-1.7-0.5
			c-1,0.1-1.7,0.6-2.2,1.7c-0.5,1-0.6,2.4-0.4,4.2c0.1,1.2,0.3,2.2,0.7,3c0.3,0.8,0.8,1.4,1.3,1.8
			C337.9,716.6,338.5,716.7,339.1,716.7z"/>
		<path class="st1" d="M347.8,717.6c-0.4,0-0.7-0.1-1-0.3c-0.3-0.3-0.5-0.6-0.5-1c0-0.4,0.1-0.7,0.3-1c0.3-0.3,0.6-0.5,1-0.5
			c0.4,0,0.7,0.1,1,0.3c0.3,0.2,0.5,0.6,0.5,1c0,0.3,0,0.5-0.1,0.7c-0.1,0.2-0.3,0.4-0.5,0.6C348.3,717.5,348.1,717.6,347.8,717.6z"
			/>
		<path class="st1" d="M355.1,702c0.6-0.1,1.3,0,1.9,0.2c0.6,0.2,1.3,0.5,1.8,1c0.6,0.5,1,1.1,1.4,2c0.4,0.9,0.7,1.9,0.8,3.3
			c0.1,1.3,0.1,2.4-0.1,3.4c-0.2,1-0.4,1.9-0.9,2.6c-0.4,0.7-0.9,1.3-1.6,1.7c-0.6,0.4-1.4,0.7-2.2,0.8c-0.9,0.1-1.6,0-2.4-0.3
			c-0.7-0.3-1.3-0.7-1.8-1.3c-0.5-0.6-0.8-1.2-1-2l2.2-0.2c0.2,0.6,0.5,1.1,1,1.4c0.5,0.3,1.1,0.5,1.8,0.4c1.1-0.1,1.8-0.6,2.4-1.6
			c0.5-1,0.7-2.3,0.5-4l-0.1,0c-0.2,0.4-0.5,0.8-0.8,1.1c-0.3,0.3-0.7,0.6-1.2,0.8c-0.4,0.2-0.9,0.3-1.4,0.4
			c-0.8,0.1-1.6-0.1-2.3-0.4c-0.7-0.3-1.3-0.9-1.8-1.5c-0.5-0.7-0.8-1.5-0.8-2.4c-0.1-0.9,0-1.8,0.4-2.6c0.3-0.8,0.9-1.4,1.6-1.9
			C353.2,702.3,354,702,355.1,702z M355.2,703.8c-0.6,0.1-1,0.2-1.5,0.6c-0.4,0.3-0.7,0.7-0.9,1.2c-0.2,0.5-0.3,1-0.2,1.6
			c0.1,0.6,0.2,1.1,0.5,1.5c0.3,0.4,0.7,0.8,1.1,1c0.5,0.2,1,0.3,1.5,0.3c0.4,0,0.8-0.2,1.1-0.4c0.3-0.2,0.6-0.4,0.9-0.8
			c0.2-0.3,0.4-0.7,0.5-1c0.1-0.4,0.2-0.8,0.1-1.2c-0.1-0.5-0.2-1-0.5-1.5c-0.3-0.4-0.7-0.8-1.1-1
			C356.3,703.8,355.8,703.7,355.2,703.8z"/>
		<path class="st1" d="M369.2,715.6c-1,0.1-1.9,0-2.7-0.3c-0.8-0.3-1.4-0.7-1.9-1.2c-0.5-0.6-0.8-1.2-0.9-2l2.2-0.2
			c0.1,0.4,0.3,0.8,0.5,1.1c0.3,0.3,0.7,0.5,1.1,0.6c0.4,0.1,0.9,0.2,1.4,0.1c0.6-0.1,1.1-0.2,1.5-0.4c0.4-0.2,0.7-0.6,1-0.9
			c0.2-0.4,0.3-0.8,0.3-1.3c0-0.5-0.2-0.9-0.5-1.2c-0.3-0.3-0.7-0.6-1.2-0.8c-0.5-0.2-1.1-0.2-1.7-0.2l-1.2,0.1l-0.2-1.8l1.2-0.1
			c0.5-0.1,1-0.2,1.4-0.4c0.4-0.2,0.7-0.5,0.9-0.9c0.2-0.4,0.3-0.8,0.2-1.3c0-0.4-0.2-0.8-0.4-1.1c-0.2-0.3-0.5-0.6-0.9-0.7
			c-0.4-0.2-0.8-0.2-1.3-0.2c-0.5,0-0.9,0.2-1.3,0.4c-0.4,0.2-0.7,0.5-0.9,0.8c-0.2,0.3-0.3,0.7-0.3,1.2l-2.1,0.2
			c-0.1-0.8,0.1-1.5,0.5-2.1c0.4-0.6,0.9-1.2,1.6-1.6c0.7-0.4,1.5-0.7,2.4-0.7c0.9-0.1,1.8,0,2.5,0.3c0.7,0.3,1.3,0.7,1.7,1.3
			c0.4,0.6,0.7,1.2,0.7,1.9c0.1,0.8-0.1,1.5-0.5,2.1c-0.4,0.6-1,1-1.7,1.3l0,0.1c1,0.1,1.8,0.4,2.3,0.9c0.6,0.6,0.9,1.3,1,2.2
			c0.1,0.8-0.1,1.5-0.5,2.2c-0.4,0.7-0.9,1.2-1.7,1.7C371.1,715.3,370.2,715.5,369.2,715.6z"/>
		<path class="st1" d="M381.9,714.4c-0.6,0.1-1.3,0-1.9-0.2c-0.6-0.2-1.2-0.5-1.8-1s-1-1.2-1.4-2c-0.4-0.9-0.6-2-0.8-3.3
			c-0.1-1.3-0.1-2.4,0.1-3.4c0.2-1,0.4-1.9,0.9-2.6c0.4-0.7,0.9-1.3,1.6-1.7c0.6-0.4,1.4-0.7,2.2-0.8c0.9-0.1,1.6,0,2.4,0.3
			c0.7,0.3,1.3,0.7,1.8,1.3c0.5,0.6,0.8,1.2,1,2l-2.2,0.2c-0.2-0.6-0.5-1.1-1-1.4c-0.5-0.3-1.1-0.5-1.8-0.4
			c-1.1,0.1-1.8,0.6-2.4,1.6c-0.5,1-0.7,2.3-0.5,3.9l0.1,0c0.2-0.4,0.5-0.8,0.8-1.1c0.3-0.3,0.7-0.6,1.2-0.8
			c0.4-0.2,0.9-0.3,1.4-0.4c0.8-0.1,1.6,0.1,2.3,0.4c0.7,0.3,1.3,0.9,1.8,1.5c0.5,0.7,0.8,1.5,0.8,2.4c0.1,0.9,0,1.8-0.4,2.6
			c-0.3,0.8-0.9,1.4-1.6,2C383.8,714,382.9,714.3,381.9,714.4z M381.7,712.6c0.6-0.1,1-0.2,1.5-0.6c0.4-0.3,0.7-0.7,0.9-1.2
			c0.2-0.5,0.3-1,0.2-1.6c-0.1-0.6-0.2-1.1-0.5-1.5c-0.3-0.4-0.7-0.8-1.1-1c-0.5-0.2-1-0.3-1.5-0.3c-0.4,0-0.8,0.2-1.1,0.4
			c-0.3,0.2-0.6,0.4-0.9,0.8c-0.2,0.3-0.4,0.7-0.5,1c-0.1,0.4-0.2,0.8-0.1,1.2c0.1,0.5,0.2,1,0.5,1.5c0.3,0.4,0.7,0.8,1.1,1
			C380.6,712.5,381.1,712.6,381.7,712.6z"/>
		<path class="st1" d="M389.3,713.5l-0.2-1.6l4.4-5.6c0.5-0.6,0.9-1.1,1.2-1.6c0.3-0.5,0.5-0.9,0.7-1.3c0.1-0.4,0.2-0.8,0.1-1.2
			c0-0.5-0.2-0.9-0.5-1.2c-0.3-0.3-0.6-0.6-1-0.7c-0.4-0.2-0.9-0.2-1.4-0.2c-0.5,0-1,0.2-1.3,0.5s-0.6,0.6-0.8,1
			c-0.2,0.4-0.2,0.9-0.2,1.4l-2.1,0.2c-0.1-0.9,0-1.7,0.4-2.4c0.3-0.7,0.8-1.3,1.5-1.7c0.7-0.4,1.5-0.7,2.4-0.8
			c0.9-0.1,1.7,0,2.5,0.3c0.7,0.3,1.3,0.7,1.8,1.3c0.5,0.6,0.7,1.3,0.8,2c0.1,0.5,0,1.1-0.2,1.6c-0.1,0.5-0.4,1.1-0.9,1.8
			c-0.4,0.7-1.1,1.5-1.8,2.5l-2.6,3.3l0,0.1l6.5-0.6l0.2,1.9L389.3,713.5z"/>
		<path class="st1" d="M406.4,712.1c-0.6,0.1-1.3,0-1.9-0.2c-0.6-0.2-1.2-0.5-1.8-1c-0.6-0.5-1-1.2-1.4-2c-0.4-0.9-0.6-2-0.8-3.3
			c-0.1-1.3-0.1-2.4,0.1-3.4c0.2-1,0.4-1.9,0.9-2.6c0.4-0.7,0.9-1.3,1.6-1.7c0.6-0.4,1.4-0.7,2.2-0.8c0.9-0.1,1.6,0,2.4,0.3
			c0.7,0.3,1.3,0.7,1.8,1.3c0.5,0.6,0.8,1.2,1,2l-2.2,0.2c-0.2-0.6-0.5-1.1-1-1.4c-0.5-0.3-1.1-0.5-1.8-0.4
			c-1.1,0.1-1.8,0.6-2.4,1.6c-0.5,1-0.7,2.3-0.5,3.9l0.1,0c0.2-0.4,0.5-0.8,0.8-1.1c0.3-0.3,0.7-0.6,1.2-0.8
			c0.4-0.2,0.9-0.3,1.4-0.4c0.8-0.1,1.6,0.1,2.3,0.4c0.7,0.3,1.3,0.9,1.8,1.5c0.5,0.7,0.8,1.5,0.8,2.4c0.1,0.9,0,1.8-0.4,2.6
			c-0.3,0.8-0.9,1.4-1.6,2C408.3,711.7,407.4,712,406.4,712.1z M406.2,710.2c0.6-0.1,1-0.2,1.5-0.6s0.7-0.7,0.9-1.2
			c0.2-0.5,0.3-1,0.2-1.6c-0.1-0.6-0.2-1.1-0.5-1.5c-0.3-0.4-0.7-0.8-1.1-1c-0.5-0.2-1-0.3-1.5-0.3c-0.4,0-0.8,0.2-1.1,0.4
			c-0.3,0.2-0.6,0.4-0.9,0.8c-0.2,0.3-0.4,0.7-0.5,1c-0.1,0.4-0.2,0.8-0.1,1.2c0.1,0.5,0.2,1,0.5,1.5c0.3,0.4,0.7,0.8,1.1,1
			C405.1,710.2,405.7,710.3,406.2,710.2z"/>
		<path class="st1" d="M423.5,712.1l-1.7-18.1l1.2-0.1l1.7,18.1L423.5,712.1z M426,699.2c-0.1-0.7-0.5-1.2-1.1-1.5
			c-0.6-0.3-1.3-0.4-2.1-0.4c-0.6,0.1-1.1,0.2-1.5,0.4c-0.4,0.2-0.7,0.5-0.9,0.9c-0.2,0.3-0.3,0.7-0.2,1.1c0,0.3,0.1,0.6,0.3,0.9
			c0.2,0.2,0.4,0.4,0.7,0.6c0.3,0.1,0.6,0.3,0.9,0.3c0.3,0.1,0.6,0.1,0.9,0.2l1.5,0.2c0.5,0.1,1,0.2,1.5,0.3c0.5,0.1,1,0.4,1.4,0.6
			c0.4,0.3,0.8,0.6,1.1,1.1c0.3,0.4,0.5,1,0.6,1.6c0.1,0.8-0.1,1.6-0.4,2.3c-0.4,0.7-0.9,1.2-1.7,1.7c-0.8,0.4-1.7,0.7-2.8,0.8
			c-1.1,0.1-2,0-2.9-0.2c-0.8-0.3-1.5-0.7-2-1.3c-0.5-0.6-0.8-1.3-1-2.2l2.2-0.2c0.1,0.5,0.3,0.9,0.6,1.3c0.3,0.3,0.7,0.5,1.2,0.7
			c0.5,0.1,1,0.2,1.6,0.1c0.6-0.1,1.2-0.2,1.6-0.4c0.5-0.2,0.8-0.6,1.1-0.9c0.2-0.4,0.3-0.8,0.3-1.3c0-0.4-0.2-0.8-0.5-1
			c-0.3-0.3-0.6-0.4-1.1-0.6c-0.4-0.1-0.9-0.3-1.4-0.3l-1.8-0.3c-1.2-0.2-2.2-0.6-2.9-1.1c-0.7-0.5-1.1-1.3-1.2-2.3
			c-0.1-0.8,0.1-1.6,0.5-2.3c0.4-0.7,1-1.2,1.7-1.6c0.7-0.4,1.6-0.7,2.6-0.8c1-0.1,1.9,0,2.7,0.3c0.8,0.3,1.4,0.7,1.9,1.3
			c0.5,0.6,0.8,1.2,0.9,2L426,699.2z"/>
		<path class="st11" d="M211.1,720.7c-0.3-0.1-0.7,0-1,0.2l-2.1,2l-1.4,1.3l-2.1,2c-0.3,0.2-0.7,0.3-1,0.2l-2.1-0.7
			c-0.3-0.1-0.6-0.4-0.7-0.8l-0.5-2.2c-0.1-0.3,0-0.7,0.3-1l1.6-1.5c0.3-0.2,0.7-0.3,1-0.2l2.1,0.7c0.3,0.1,0.6,0.4,0.7,0.8l0.3,1.4
			l1.4-1.3l-0.3-1.5c-0.1-0.3-0.3-0.7-0.7-0.8l-3.9-1.2c-0.3-0.1-0.7,0-1,0.2l-3.1,2.9c-0.3,0.3-0.4,0.6-0.3,1l0.9,4.1
			c0.1,0.3,0.3,0.7,0.7,0.8l4,1.2c0.3,0.1,0.7,0,1-0.2l2.1-1.9l1.4-1.3l2.1-1.9c0.3-0.2,0.7-0.3,1-0.2l2.1,0.7
			c0.3,0.1,0.6,0.4,0.7,0.8l0.5,2.2c0.1,0.3,0,0.7-0.3,1l-1.6,1.5c-0.3,0.2-0.7,0.3-1,0.2l-2.1-0.7c-0.3-0.1-0.6-0.4-0.7-0.8
			l-0.3-1.4l-1.4,1.3l0.3,1.4c0.1,0.3,0.3,0.7,0.7,0.8l4,1.2c0.3,0.1,0.7,0,1-0.2l3-2.8c0.3-0.2,0.4-0.6,0.3-1l-0.9-4.1
			c-0.1-0.3-0.3-0.7-0.7-0.8L211.1,720.7z"/>
	</g>
</g>
</svg>
