<?xml version="1.0" encoding="utf-8"?>
<!-- Generator: Adobe Illustrator 24.0.2, SVG Export Plug-In . SVG Version: 6.00 Build 0)  -->
<svg version="1.1" id="Слой_1" xmlns="http://www.w3.org/2000/svg" xmlns:xlink="http://www.w3.org/1999/xlink" x="0px" y="0px"
	 viewBox="0 0 1920 2474" style="enable-background:new 0 0 1920 2474;" xml:space="preserve">
<style type="text/css">
	.st0{fill:none;stroke:url(#SVGID_1_);stroke-width:1.043;stroke-opacity:0.1;}
</style>
<linearGradient id="SVGID_1_" gradientUnits="userSpaceOnUse" x1="-0.5215" y1="1236.415" x2="1920.5215" y2="1236.415">
	<stop  offset="1.065558e-07" style="stop-color:#9500DA"/>
	<stop  offset="1" style="stop-color:#0085FF;stop-opacity:0"/>
</linearGradient>
<path class="st0" d="M112.3,0v2472.8 M1920,144.6H0 M226,0v2472.8 M1920,291H0 M338.3,0v2472.8 M1920,435.7H0 M451.9,0v2472.8
	 M1920,582H0 M564.2,0v2472.8 M1920,726.7H0 M677.9,0v2472.8 M1920,873.1H0 M790.2,0v2472.8 M1920,1017.7H0 M903.8,0v2472.8
	 M1920,1164.1H0 M1016.2,0v2472.8 M1920,1308.7H0 M1129.8,0v2472.8 M1920,1455.1H0 M1242.1,0v2472.8 M1920,1599.8H0 M1355.8,0
	v2472.8 M1920,1746.1H0 M1468.1,0v2472.8 M1920,1890.8H0 M1581.7,0v2472.8 M1920,2037.2H0 M1694,0v2472.8 M1920,2181.8H0 M1807.7,0
	v2472.8 M1920,2328.2H0 M0,0v2472.8h1920V0H0z"/>
</svg>
